TiroTamil-Regular.ufo
<glyph name="dUdatta" format="2">
  <unicode hex="0951"/>
  <outline>
    <contour>
      <point x="-335" y="600" type="line"/>
      <point x="-335" y="848" type="line"/>
      <point x="-385" y="848" type="line"/>
      <point x="-385" y="600" type="line"/>
    </contour>
  </outline>
  <guideline angle="0" x="0" y="0"/>
</glyph>
<glyph name="dAnudatta" format="2">
  <unicode hex="0952"/>
  <outline>
    <contour>
      <point x="-91" y="-252" type="line"/>
      <point x="-91" y="-203" type="line"/>
      <point x="-628" y="-203" type="line"/>
      <point x="-628" y="-252" type="line"/>
    </contour>
  </outline>
</glyph>
<glyph name="Danda" format="2">
  <advance width="255"/>
  <unicode hex="0964"/>
  <outline>
    <contour>
      <point x="85" y="-60" type="line"/>
      <point x="170" y="-60" type="line"/>
      <point x="170" y="582" type="line"/>
      <point x="85" y="582" type="line"/>
    </contour>
  </outline>
  <guideline angle="0" x="0" y="602"/>
</glyph>
<glyph name="DoubleDanda" format="2">
  <advance width="455"/>
  <unicode hex="0965"/>
  <outline>
    <contour>
      <point x="85" y="-60" type="line"/>
      <point x="170" y="-60" type="line"/>
      <point x="170" y="582" type="line"/>
      <point x="85" y="582" type="line"/>
    </contour>
    <contour>
      <point x="285" y="-60" type="line"/>
      <point x="370" y="-60" type="line"/>
      <point x="370" y="582" type="line"/>
      <point x="285" y="582" type="line"/>
    </contour>
  </outline>
</glyph>
<glyph name="t.Anusvara" format="2">
  <unicode hex="0B82"/>
  <outline>
    <contour>
      <point x="-359" y="595" type="curve" smooth="yes"/>
      <point x="-301" y="595"/>
      <point x="-260" y="634"/>
      <point x="-260" y="692" type="curve" smooth="yes"/>
      <point x="-260" y="750"/>
      <point x="-301" y="789"/>
      <point x="-359" y="789" type="curve" smooth="yes"/>
      <point x="-418" y="789"/>
      <point x="-460" y="750"/>
      <point x="-460" y="692" type="curve" smooth="yes"/>
      <point x="-460" y="634"/>
      <point x="-418" y="595"/>
    </contour>
    <contour>
      <point x="-359" y="640" type="curve" smooth="yes"/>
      <point x="-386" y="640"/>
      <point x="-410" y="658"/>
      <point x="-410" y="692" type="curve" smooth="yes"/>
      <point x="-410" y="726"/>
      <point x="-386" y="744"/>
      <point x="-359" y="744" type="curve" smooth="yes"/>
      <point x="-334" y="744"/>
      <point x="-310" y="726"/>
      <point x="-310" y="692" type="curve" smooth="yes"/>
      <point x="-310" y="659"/>
      <point x="-334" y="640"/>
    </contour>
  </outline>
  <guideline angle="0" x="0" y="0"/>
</glyph>
<glyph name="t.Visarga" format="2">
  <advance width="890"/>
  <unicode hex="0B83"/>
  <outline>
    <contour>
      <point x="431" y="435" type="curve" smooth="yes"/>
      <point x="532" y="435"/>
      <point x="605" y="521"/>
      <point x="605" y="620" type="curve" smooth="yes"/>
      <point x="605" y="716"/>
      <point x="537" y="798"/>
      <point x="435" y="798" type="curve" smooth="yes"/>
      <point x="335" y="798"/>
      <point x="265" y="716"/>
      <point x="265" y="615" type="curve" smooth="yes"/>
      <point x="265" y="512"/>
      <point x="336" y="435"/>
    </contour>
    <contour>
      <point x="217" y="41" type="curve" smooth="yes"/>
      <point x="159" y="41"/>
      <point x="119" y="94"/>
      <point x="119" y="161" type="curve" smooth="yes"/>
      <point x="119" y="230"/>
      <point x="160" y="284"/>
      <point x="219" y="284" type="curve" smooth="yes"/>
      <point x="272" y="284"/>
      <point x="317" y="238"/>
      <point x="317" y="165" type="curve" smooth="yes"/>
      <point x="317" y="94"/>
      <point x="274" y="41"/>
    </contour>
    <contour>
      <point x="226" y="-19" type="curve" smooth="yes"/>
      <point x="327" y="-19"/>
      <point x="400" y="67"/>
      <point x="400" y="166" type="curve" smooth="yes"/>
      <point x="400" y="262"/>
      <point x="332" y="344"/>
      <point x="230" y="344" type="curve" smooth="yes"/>
      <point x="130" y="344"/>
      <point x="60" y="262"/>
      <point x="60" y="161" type="curve" smooth="yes"/>
      <point x="60" y="58"/>
      <point x="131" y="-19"/>
    </contour>
    <contour>
      <point x="647" y="41" type="curve" smooth="yes"/>
      <point x="589" y="41"/>
      <point x="549" y="94"/>
      <point x="549" y="161" type="curve" smooth="yes"/>
      <point x="549" y="230"/>
      <point x="590" y="284"/>
      <point x="649" y="284" type="curve" smooth="yes"/>
      <point x="702" y="284"/>
      <point x="747" y="238"/>
      <point x="747" y="165" type="curve" smooth="yes"/>
      <point x="747" y="94"/>
      <point x="704" y="41"/>
    </contour>
    <contour>
      <point x="656" y="-19" type="curve" smooth="yes"/>
      <point x="757" y="-19"/>
      <point x="830" y="67"/>
      <point x="830" y="166" type="curve" smooth="yes"/>
      <point x="830" y="262"/>
      <point x="762" y="344"/>
      <point x="660" y="344" type="curve" smooth="yes"/>
      <point x="560" y="344"/>
      <point x="490" y="262"/>
      <point x="490" y="161" type="curve" smooth="yes"/>
      <point x="490" y="58"/>
      <point x="561" y="-19"/>
    </contour>
    <contour>
      <point x="422" y="495" type="curve" smooth="yes"/>
      <point x="364" y="495"/>
      <point x="324" y="548"/>
      <point x="324" y="615" type="curve" smooth="yes"/>
      <point x="324" y="684"/>
      <point x="365" y="738"/>
      <point x="424" y="738" type="curve" smooth="yes"/>
      <point x="477" y="738"/>
      <point x="522" y="692"/>
      <point x="522" y="619" type="curve" smooth="yes"/>
      <point x="522" y="548"/>
      <point x="479" y="495"/>
    </contour>
  </outline>
</glyph>
<glyph name="t.A" format="2">
  <advance width="1178"/>
  <unicode hex="0B85"/>
  <outline>
    <contour>
      <point x="389" y="-75" type="curve" smooth="yes"/>
      <point x="671" y="-75"/>
      <point x="852" y="85"/>
      <point x="852" y="297" type="curve" smooth="yes"/>
      <point x="852" y="437"/>
      <point x="775" y="534"/>
      <point x="619" y="534" type="curve" smooth="yes"/>
      <point x="470" y="534"/>
      <point x="382" y="445"/>
      <point x="382" y="352" type="curve" smooth="yes"/>
      <point x="382" y="278"/>
      <point x="439" y="227"/>
      <point x="509" y="227" type="curve" smooth="yes"/>
      <point x="582" y="227"/>
      <point x="650" y="280"/>
      <point x="650" y="366" type="curve" smooth="yes"/>
      <point x="650" y="415"/>
      <point x="625" y="463"/>
      <point x="574" y="483" type="curve"/>
      <point x="588" y="509" type="line"/>
      <point x="481" y="474" type="line"/>
      <point x="526" y="462"/>
      <point x="566" y="422"/>
      <point x="566" y="366" type="curve" smooth="yes"/>
      <point x="566" y="315"/>
      <point x="534" y="291"/>
      <point x="498" y="291" type="curve" smooth="yes"/>
      <point x="458" y="291"/>
      <point x="435" y="320"/>
      <point x="435" y="361" type="curve" smooth="yes"/>
      <point x="435" y="409"/>
      <point x="467" y="445"/>
      <point x="510" y="466" type="curve"/>
      <point x="565" y="484"/>
      <point x="568" y="486"/>
      <point x="601" y="486" type="curve" smooth="yes"/>
      <point x="706" y="486"/>
      <point x="747" y="407"/>
      <point x="747" y="307" type="curve" smooth="yes"/>
      <point x="747" y="133"/>
      <point x="629" y="-28"/>
      <point x="383" y="-28" type="curve" smooth="yes"/>
      <point x="195" y="-28"/>
      <point x="110" y="64"/>
      <point x="110" y="105" type="curve" smooth="yes"/>
      <point x="110" y="116"/>
      <point x="116" y="121"/>
      <point x="133" y="121" type="curve" smooth="yes"/>
      <point x="990" y="121" type="line"/>
      <point x="990" y="170" type="line"/>
      <point x="106" y="170" type="line" smooth="yes"/>
      <point x="60" y="170"/>
      <point x="40" y="149"/>
      <point x="40" y="117" type="curve" smooth="yes"/>
      <point x="40" y="45"/>
      <point x="153" y="-75"/>
    </contour>
    <contour>
      <point x="1073" y="-148" type="line"/>
      <point x="1073" y="522" type="line"/>
      <point x="970" y="522" type="line"/>
      <point x="970" y="-148" type="line"/>
    </contour>
  </outline>
</glyph>
<glyph name="t.I" format="2">
  <advance width="1165"/>
  <unicode hex="0B87"/>
  <outline>
    <contour>
      <point x="278" y="-292" type="curve" smooth="yes"/>
      <point x="553" y="-292"/>
      <point x="805" y="-9"/>
      <point x="805" y="282" type="curve" smooth="yes"/>
      <point x="805" y="449"/>
      <point x="723" y="565"/>
      <point x="569" y="565" type="curve" smooth="yes"/>
      <point x="435" y="565"/>
      <point x="339" y="475"/>
      <point x="339" y="365" type="curve" smooth="yes"/>
      <point x="339" y="282"/>
      <point x="394" y="225"/>
      <point x="470" y="225" type="curve" smooth="yes"/>
      <point x="550" y="225"/>
      <point x="611" y="287"/>
      <point x="611" y="365" type="curve" smooth="yes"/>
      <point x="611" y="422"/>
      <point x="579" y="482"/>
      <point x="506" y="508" type="curve"/>
      <point x="506" y="536" type="line"/>
      <point x="435" y="494" type="line"/>
      <point x="495" y="483"/>
      <point x="525" y="430"/>
      <point x="525" y="372" type="curve" smooth="yes"/>
      <point x="525" y="312"/>
      <point x="493" y="282"/>
      <point x="459" y="282" type="curve" smooth="yes"/>
      <point x="419" y="282"/>
      <point x="392" y="321"/>
      <point x="392" y="370" type="curve" smooth="yes"/>
      <point x="392" y="444"/>
      <point x="459" y="517"/>
      <point x="559" y="517" type="curve" smooth="yes"/>
      <point x="667" y="517"/>
      <point x="725" y="427"/>
      <point x="725" y="297" type="curve" smooth="yes"/>
      <point x="725" y="43"/>
      <point x="493" y="-235"/>
      <point x="265" y="-235" type="curve" smooth="yes"/>
      <point x="182" y="-235"/>
      <point x="139" y="-203"/>
      <point x="139" y="-151" type="curve" smooth="yes"/>
      <point x="139" y="-27"/>
      <point x="343" y="57"/>
      <point x="513" y="57" type="curve" smooth="yes"/>
      <point x="658" y="57"/>
      <point x="824" y="-3"/>
      <point x="824" y="-126" type="curve" smooth="yes"/>
      <point x="824" y="-183"/>
      <point x="784" y="-227"/>
      <point x="690" y="-227" type="curve" smooth="yes"/>
      <point x="446" y="-227"/>
      <point x="139" y="81"/>
      <point x="139" y="375" type="curve" smooth="yes"/>
      <point x="139" y="602"/>
      <point x="327" y="776"/>
      <point x="577" y="776" type="curve" smooth="yes"/>
      <point x="899" y="776"/>
      <point x="1002" y="532"/>
      <point x="1002" y="282" type="curve" smooth="yes"/>
      <point x="1002" y="184"/>
      <point x="1001" y="139"/>
      <point x="995" y="-283" type="curve"/>
      <point x="1049" y="-283" type="line"/>
      <point x="1060" y="182"/>
      <point x="1060" y="275"/>
      <point x="1060" y="367" type="curve" smooth="yes"/>
      <point x="1060" y="680"/>
      <point x="872" y="858"/>
      <point x="592" y="858" type="curve" smooth="yes"/>
      <point x="312" y="858"/>
      <point x="80" y="658"/>
      <point x="80" y="381" type="curve" smooth="yes"/>
      <point x="80" y="34"/>
      <point x="443" y="-292"/>
      <point x="720" y="-292" type="curve" smooth="yes"/>
      <point x="850" y="-292"/>
      <point x="906" y="-222"/>
      <point x="906" y="-138" type="curve" smooth="yes"/>
      <point x="906" y="25"/>
      <point x="706" y="107"/>
      <point x="519" y="107" type="curve" smooth="yes"/>
      <point x="312" y="107"/>
      <point x="85" y="5"/>
      <point x="85" y="-156" type="curve" smooth="yes"/>
      <point x="85" y="-236"/>
      <point x="149" y="-292"/>
    </contour>
  </outline>
</glyph>
<glyph name="t.Ii" format="2">
  <advance width="759"/>
  <unicode hex="0B88"/>
  <outline>
    <contour>
      <point x="169" y="0" type="line"/>
      <point x="169" y="473" type="line"/>
      <point x="696" y="473" type="line"/>
      <point x="696" y="522" type="line"/>
      <point x="105" y="522" type="line"/>
      <point x="105" y="0" type="line"/>
    </contour>
    <contour>
      <point x="288" y="194" type="curve" smooth="yes"/>
      <point x="325" y="194"/>
      <point x="351" y="222"/>
      <point x="351" y="256" type="curve" smooth="yes"/>
      <point x="351" y="290"/>
      <point x="325" y="318"/>
      <point x="288" y="318" type="curve" smooth="yes"/>
      <point x="251" y="318"/>
      <point x="225" y="290"/>
      <point x="225" y="256" type="curve" smooth="yes"/>
      <point x="225" y="222"/>
      <point x="251" y="194"/>
    </contour>
    <contour>
      <point x="511" y="0" type="line"/>
      <point x="511" y="493" type="line"/>
      <point x="408" y="493" type="line"/>
      <point x="408" y="0" type="line"/>
    </contour>
    <contour>
      <point x="631" y="194" type="curve" smooth="yes"/>
      <point x="668" y="194"/>
      <point x="694" y="222"/>
      <point x="694" y="256" type="curve" smooth="yes"/>
      <point x="694" y="290"/>
      <point x="668" y="318"/>
      <point x="631" y="318" type="curve" smooth="yes"/>
      <point x="594" y="318"/>
      <point x="568" y="290"/>
      <point x="568" y="256" type="curve" smooth="yes"/>
      <point x="568" y="222"/>
      <point x="594" y="194"/>
    </contour>
  </outline>
</glyph>
<glyph name="t.U" format="2">
  <advance width="1003"/>
  <unicode hex="0B89"/>
  <outline>
    <contour>
      <point x="981" y="0" type="line"/>
      <point x="981" y="49" type="line"/>
      <point x="196" y="49" type="line" smooth="yes"/>
      <point x="160" y="49"/>
      <point x="135" y="63"/>
      <point x="135" y="93" type="curve" smooth="yes"/>
      <point x="135" y="123"/>
      <point x="162" y="137"/>
      <point x="196" y="137" type="curve" smooth="yes"/>
      <point x="373" y="137" type="line" smooth="yes"/>
      <point x="534" y="137"/>
      <point x="636" y="206"/>
      <point x="636" y="337" type="curve" smooth="yes"/>
      <point x="636" y="464"/>
      <point x="536" y="534"/>
      <point x="386" y="534" type="curve" smooth="yes"/>
      <point x="234" y="534"/>
      <point x="143" y="463"/>
      <point x="143" y="365" type="curve" smooth="yes"/>
      <point x="143" y="296"/>
      <point x="187" y="239"/>
      <point x="260" y="239" type="curve" smooth="yes"/>
      <point x="330" y="239"/>
      <point x="392" y="292"/>
      <point x="392" y="366" type="curve" smooth="yes"/>
      <point x="392" y="402"/>
      <point x="378" y="449"/>
      <point x="332" y="482" type="curve"/>
      <point x="346" y="508" type="line"/>
      <point x="237" y="483" type="line"/>
      <point x="290" y="470"/>
      <point x="311" y="413"/>
      <point x="311" y="374" type="curve" smooth="yes"/>
      <point x="311" y="330"/>
      <point x="284" y="304"/>
      <point x="252" y="304" type="curve" smooth="yes"/>
      <point x="219" y="304"/>
      <point x="196" y="332"/>
      <point x="196" y="370" type="curve" smooth="yes"/>
      <point x="196" y="436"/>
      <point x="267" y="486"/>
      <point x="365" y="486" type="curve" smooth="yes"/>
      <point x="462" y="486"/>
      <point x="531" y="447"/>
      <point x="531" y="340" type="curve" smooth="yes"/>
      <point x="531" y="238"/>
      <point x="473" y="186"/>
      <point x="350" y="186" type="curve" smooth="yes"/>
      <point x="178" y="186" type="line" smooth="yes"/>
      <point x="105" y="186"/>
      <point x="60" y="151"/>
      <point x="60" y="92" type="curve" smooth="yes"/>
      <point x="60" y="36"/>
      <point x="102" y="0"/>
      <point x="174" y="0" type="curve" smooth="yes"/>
    </contour>
  </outline>
</glyph>
<glyph name="t.Uu" format="2">
  <advance width="1644"/>
  <unicode hex="0B8A"/>
  <outline>
    <contour>
      <point x="1576" y="0" type="line"/>
      <point x="1576" y="49" type="line"/>
      <point x="196" y="49" type="line" smooth="yes"/>
      <point x="160" y="49"/>
      <point x="135" y="63"/>
      <point x="135" y="93" type="curve" smooth="yes"/>
      <point x="135" y="123"/>
      <point x="162" y="137"/>
      <point x="196" y="137" type="curve" smooth="yes"/>
      <point x="367" y="137" type="line" smooth="yes"/>
      <point x="520" y="137"/>
      <point x="622" y="206"/>
      <point x="622" y="337" type="curve" smooth="yes"/>
      <point x="622" y="464"/>
      <point x="526" y="534"/>
      <point x="384" y="534" type="curve" smooth="yes"/>
      <point x="234" y="534"/>
      <point x="143" y="463"/>
      <point x="143" y="365" type="curve" smooth="yes"/>
      <point x="143" y="296"/>
      <point x="187" y="239"/>
      <point x="260" y="239" type="curve" smooth="yes"/>
      <point x="330" y="239"/>
      <point x="392" y="292"/>
      <point x="392" y="366" type="curve" smooth="yes"/>
      <point x="392" y="402"/>
      <point x="378" y="449"/>
      <point x="332" y="482" type="curve"/>
      <point x="346" y="508" type="line"/>
      <point x="237" y="483" type="line"/>
      <point x="290" y="470"/>
      <point x="311" y="413"/>
      <point x="311" y="374" type="curve" smooth="yes"/>
      <point x="311" y="330"/>
      <point x="284" y="304"/>
      <point x="252" y="304" type="curve" smooth="yes"/>
      <point x="219" y="304"/>
      <point x="196" y="332"/>
      <point x="196" y="370" type="curve" smooth="yes"/>
      <point x="196" y="436"/>
      <point x="267" y="486"/>
      <point x="363" y="486" type="curve" smooth="yes"/>
      <point x="452" y="486"/>
      <point x="517" y="447"/>
      <point x="517" y="340" type="curve" smooth="yes"/>
      <point x="517" y="238"/>
      <point x="459" y="186"/>
      <point x="344" y="186" type="curve" smooth="yes"/>
      <point x="178" y="186" type="line" smooth="yes"/>
      <point x="105" y="186"/>
      <point x="60" y="151"/>
      <point x="60" y="92" type="curve" smooth="yes"/>
      <point x="60" y="36"/>
      <point x="102" y="0"/>
      <point x="174" y="0" type="curve" smooth="yes"/>
    </contour>
    <contour>
      <point x="912" y="90" type="curve" smooth="yes"/>
      <point x="1008" y="90"/>
      <point x="1083" y="150"/>
      <point x="1083" y="238" type="curve" smooth="yes"/>
      <point x="1083" y="309"/>
      <point x="1036" y="363"/>
      <point x="961" y="363" type="curve" smooth="yes"/>
      <point x="890" y="363"/>
      <point x="834" y="315"/>
      <point x="834" y="237" type="curve" smooth="yes"/>
      <point x="834" y="206"/>
      <point x="843" y="176"/>
      <point x="861" y="153" type="curve"/>
      <point x="848" y="129" type="line"/>
      <point x="931" y="123" type="line"/>
      <point x="903" y="157"/>
      <point x="888" y="191"/>
      <point x="888" y="229" type="curve" smooth="yes"/>
      <point x="888" y="275"/>
      <point x="911" y="300"/>
      <point x="947" y="300" type="curve" smooth="yes"/>
      <point x="980" y="300"/>
      <point x="1002" y="278"/>
      <point x="1002" y="236" type="curve" smooth="yes"/>
      <point x="1002" y="179"/>
      <point x="963" y="144"/>
      <point x="899" y="144" type="curve" smooth="yes"/>
      <point x="831" y="144"/>
      <point x="769" y="207"/>
      <point x="769" y="301" type="curve" smooth="yes"/>
      <point x="769" y="406"/>
      <point x="849" y="480"/>
      <point x="965" y="480" type="curve" smooth="yes"/>
      <point x="1039" y="480"/>
      <point x="1089" y="450"/>
      <point x="1121" y="406" type="curve" smooth="yes"/>
      <point x="1152" y="363"/>
      <point x="1163" y="313"/>
      <point x="1163" y="243" type="curve"/>
      <point x="1251" y="389" type="line"/>
      <point x="1209" y="389" type="line"/>
      <point x="1173" y="479"/>
      <point x="1090" y="534"/>
      <point x="973" y="534" type="curve" smooth="yes"/>
      <point x="820" y="534"/>
      <point x="707" y="440"/>
      <point x="707" y="300" type="curve" smooth="yes"/>
      <point x="707" y="174"/>
      <point x="798" y="90"/>
    </contour>
    <contour>
      <point x="1266" y="112" type="line"/>
      <point x="1266" y="473" type="line"/>
      <point x="1579" y="473" type="line"/>
      <point x="1579" y="522" type="line"/>
      <point x="1215" y="522" type="line"/>
      <point x="1215" y="373" type="line"/>
      <point x="1163" y="243" type="line"/>
      <point x="1163" y="112" type="line"/>
    </contour>
    <contour>
      <point x="1494" y="112" type="line"/>
      <point x="1494" y="493" type="line"/>
      <point x="1391" y="493" type="line"/>
      <point x="1391" y="112" type="line"/>
    </contour>
  </outline>
</glyph>
<glyph name="t.E" format="2">
  <advance width="909"/>
  <unicode hex="0B8E"/>
  <outline>
    <contour>
      <point x="300" y="-15" type="curve" smooth="yes"/>
      <point x="422" y="-15"/>
      <point x="488" y="77"/>
      <point x="488" y="173" type="curve" smooth="yes"/>
      <point x="488" y="261"/>
      <point x="431" y="319"/>
      <point x="351" y="319" type="curve" smooth="yes"/>
      <point x="268" y="319"/>
      <point x="207" y="257"/>
      <point x="207" y="163" type="curve" smooth="yes"/>
      <point x="207" y="130"/>
      <point x="214" y="97"/>
      <point x="228" y="68" type="curve"/>
      <point x="207" y="47" type="line"/>
      <point x="285" y="38" type="line"/>
      <point x="267" y="72"/>
      <point x="256" y="116"/>
      <point x="256" y="152" type="curve" smooth="yes"/>
      <point x="256" y="214"/>
      <point x="290" y="252"/>
      <point x="332" y="252" type="curve" smooth="yes"/>
      <point x="370" y="252"/>
      <point x="390" y="222"/>
      <point x="390" y="175" type="curve" smooth="yes"/>
      <point x="390" y="106"/>
      <point x="346" y="58"/>
      <point x="276" y="58" type="curve" smooth="yes"/>
      <point x="252" y="58" type="line"/>
      <point x="181" y="72"/>
      <point x="129" y="147"/>
      <point x="129" y="239" type="curve" smooth="yes"/>
      <point x="129" y="355"/>
      <point x="209" y="462"/>
      <point x="383" y="472" type="curve" smooth="yes"/>
      <point x="400" y="473"/>
      <point x="413" y="473"/>
      <point x="423" y="473" type="curve" smooth="yes"/>
      <point x="879" y="473" type="line"/>
      <point x="879" y="522" type="line"/>
      <point x="440" y="522" type="line" smooth="yes"/>
      <point x="428" y="522"/>
      <point x="407" y="522"/>
      <point x="390" y="521" type="curve" smooth="yes"/>
      <point x="168" y="508"/>
      <point x="70" y="381"/>
      <point x="70" y="236" type="curve" smooth="yes"/>
      <point x="70" y="99"/>
      <point x="163" y="-15"/>
    </contour>
    <contour>
      <point x="729" y="0" type="line"/>
      <point x="729" y="493" type="line"/>
      <point x="626" y="493" type="line"/>
      <point x="626" y="0" type="line"/>
    </contour>
  </outline>
</glyph>
<glyph name="t.Ai" format="2">
  <advance width="969"/>
  <unicode hex="0B90"/>
  <outline>
    <contour>
      <point x="288" y="-292" type="curve" smooth="yes"/>
      <point x="398" y="-292"/>
      <point x="466" y="-248"/>
      <point x="495" y="-183" type="curve"/>
      <point x="501" y="-183" type="line"/>
      <point x="522" y="-245"/>
      <point x="587" y="-292"/>
      <point x="696" y="-292" type="curve" smooth="yes"/>
      <point x="806" y="-292"/>
      <point x="905" y="-243"/>
      <point x="905" y="-122" type="curve" smooth="yes"/>
      <point x="905" y="-66"/>
      <point x="884" y="-12"/>
      <point x="852" y="24" type="curve"/>
      <point x="803" y="8" type="line"/>
      <point x="830" y="-28"/>
      <point x="848" y="-72"/>
      <point x="848" y="-117" type="curve" smooth="yes"/>
      <point x="848" y="-195"/>
      <point x="796" y="-243"/>
      <point x="705" y="-243" type="curve" smooth="yes"/>
      <point x="617" y="-243"/>
      <point x="569" y="-197"/>
      <point x="569" y="-93" type="curve" smooth="yes"/>
      <point x="569" y="-7" type="line"/>
      <point x="466" y="-7" type="line"/>
      <point x="466" y="-69" type="line" smooth="yes"/>
      <point x="466" y="-170"/>
      <point x="413" y="-243"/>
      <point x="304" y="-243" type="curve" smooth="yes"/>
      <point x="216" y="-243"/>
      <point x="164" y="-194"/>
      <point x="164" y="-100" type="curve" smooth="yes"/>
      <point x="164" y="9"/>
      <point x="238" y="55"/>
      <point x="366" y="62" type="curve" smooth="yes"/>
      <point x="555" y="73" type="line" smooth="yes"/>
      <point x="747" y="84"/>
      <point x="909" y="150"/>
      <point x="909" y="327" type="curve" smooth="yes"/>
      <point x="909" y="447"/>
      <point x="836" y="534"/>
      <point x="708" y="534" type="curve" smooth="yes"/>
      <point x="619" y="534"/>
      <point x="559" y="492"/>
      <point x="535" y="416" type="curve"/>
      <point x="529" y="416" type="line"/>
      <point x="501" y="482"/>
      <point x="425" y="534"/>
      <point x="308" y="534" type="curve" smooth="yes"/>
      <point x="151" y="534"/>
      <point x="66" y="441"/>
      <point x="66" y="337" type="curve" smooth="yes"/>
      <point x="66" y="240"/>
      <point x="142" y="166"/>
      <point x="241" y="166" type="curve" smooth="yes"/>
      <point x="339" y="166"/>
      <point x="391" y="237"/>
      <point x="391" y="307" type="curve" smooth="yes"/>
      <point x="391" y="367"/>
      <point x="351" y="417"/>
      <point x="286" y="417" type="curve" smooth="yes"/>
      <point x="220" y="417"/>
      <point x="178" y="365"/>
      <point x="178" y="305" type="curve" smooth="yes"/>
      <point x="178" y="279"/>
      <point x="183" y="253"/>
      <point x="196" y="226" type="curve"/>
      <point x="187" y="209" type="line"/>
      <point x="249" y="203" type="line"/>
      <point x="224" y="236"/>
      <point x="222" y="278"/>
      <point x="222" y="295" type="curve" smooth="yes"/>
      <point x="222" y="336"/>
      <point x="238" y="360"/>
      <point x="269" y="360" type="curve" smooth="yes"/>
      <point x="301" y="360"/>
      <point x="313" y="335"/>
      <point x="313" y="304" type="curve" smooth="yes"/>
      <point x="313" y="262"/>
      <point x="290" y="219"/>
      <point x="236" y="219" type="curve"/>
      <point x="201" y="222" type="line"/>
      <point x="152" y="237"/>
      <point x="124" y="284"/>
      <point x="124" y="339" type="curve" smooth="yes"/>
      <point x="124" y="423"/>
      <point x="186" y="489"/>
      <point x="299" y="489" type="curve" smooth="yes"/>
      <point x="413" y="489"/>
      <point x="466" y="420"/>
      <point x="466" y="284" type="curve" smooth="yes"/>
      <point x="466" y="198" type="line"/>
      <point x="569" y="198" type="line"/>
      <point x="569" y="300" type="line" smooth="yes"/>
      <point x="569" y="422"/>
      <point x="608" y="486"/>
      <point x="690" y="486" type="curve" smooth="yes"/>
      <point x="770" y="486"/>
      <point x="804" y="422"/>
      <point x="804" y="328" type="curve" smooth="yes"/>
      <point x="804" y="179"/>
      <point x="717" y="127"/>
      <point x="535" y="118" type="curve" smooth="yes"/>
      <point x="342" y="108" type="line" smooth="yes"/>
      <point x="171" y="99"/>
      <point x="60" y="33"/>
      <point x="60" y="-101" type="curve" smooth="yes"/>
      <point x="60" y="-225"/>
      <point x="153" y="-292"/>
    </contour>
  </outline>
</glyph>
<glyph name="t.O" format="2">
  <advance width="1004"/>
  <unicode hex="0B92"/>
  <outline>
    <contour>
      <point x="707" y="-90" type="line"/>
      <point x="632" y="-59"/>
      <point x="574" y="-1"/>
      <point x="574" y="83" type="curve" smooth="yes"/>
      <point x="574" y="136"/>
      <point x="596" y="180"/>
      <point x="629" y="207" type="curve"/>
      <point x="634" y="204" type="line"/>
      <point x="626" y="185"/>
      <point x="620" y="157"/>
      <point x="620" y="129" type="curve" smooth="yes"/>
      <point x="620" y="53"/>
      <point x="669" y="-15"/>
      <point x="760" y="-15" type="curve" smooth="yes"/>
      <point x="863" y="-15"/>
      <point x="934" y="72"/>
      <point x="934" y="196" type="curve" smooth="yes"/>
      <point x="934" y="396"/>
      <point x="743" y="534"/>
      <point x="490" y="534" type="curve" smooth="yes"/>
      <point x="237" y="534"/>
      <point x="65" y="396"/>
      <point x="65" y="218" type="curve" smooth="yes"/>
      <point x="65" y="95"/>
      <point x="152" y="-15"/>
      <point x="284" y="-15" type="curve" smooth="yes"/>
      <point x="405" y="-15"/>
      <point x="471" y="76"/>
      <point x="471" y="171" type="curve" smooth="yes"/>
      <point x="471" y="259"/>
      <point x="416" y="319"/>
      <point x="334" y="319" type="curve" smooth="yes"/>
      <point x="249" y="319"/>
      <point x="190" y="255"/>
      <point x="190" y="163" type="curve" smooth="yes"/>
      <point x="190" y="129"/>
      <point x="198" y="96"/>
      <point x="212" y="68" type="curve"/>
      <point x="189" y="47" type="line"/>
      <point x="270" y="38" type="line"/>
      <point x="251" y="71"/>
      <point x="239" y="117"/>
      <point x="239" y="152" type="curve" smooth="yes"/>
      <point x="239" y="214"/>
      <point x="272" y="252"/>
      <point x="315" y="252" type="curve" smooth="yes"/>
      <point x="351" y="252"/>
      <point x="373" y="225"/>
      <point x="373" y="175" type="curve" smooth="yes"/>
      <point x="373" y="106"/>
      <point x="329" y="58"/>
      <point x="259" y="58" type="curve"/>
      <point x="227" y="60" type="line"/>
      <point x="153" y="80"/>
      <point x="124" y="164"/>
      <point x="124" y="221" type="curve" smooth="yes"/>
      <point x="124" y="372"/>
      <point x="285" y="480"/>
      <point x="483" y="480" type="curve" smooth="yes"/>
      <point x="686" y="480"/>
      <point x="836" y="369"/>
      <point x="836" y="186" type="curve" smooth="yes"/>
      <point x="836" y="99"/>
      <point x="802" y="54"/>
      <point x="747" y="54" type="curve" smooth="yes"/>
      <point x="700" y="54"/>
      <point x="670" y="88"/>
      <point x="670" y="149" type="curve" smooth="yes"/>
      <point x="670" y="184"/>
      <point x="680" y="223"/>
      <point x="695" y="259" type="curve"/>
      <point x="653" y="283" type="line"/>
      <point x="569" y="234"/>
      <point x="523" y="162"/>
      <point x="523" y="80" type="curve" smooth="yes"/>
      <point x="523" y="10"/>
      <point x="558" y="-49"/>
      <point x="606" y="-81" type="curve"/>
      <point x="606" y="-109" type="line"/>
    </contour>
    <contour>
      <point x="336" y="-366" type="curve" smooth="yes"/>
      <point x="541" y="-366"/>
      <point x="560" y="-215"/>
      <point x="565" y="-174" type="curve" smooth="yes"/>
      <point x="568" y="-149"/>
      <point x="569" y="-132"/>
      <point x="609" y="-132" type="curve" smooth="yes"/>
      <point x="774" y="-132" type="line"/>
      <point x="774" y="-83" type="line"/>
      <point x="578" y="-83" type="line" smooth="yes"/>
      <point x="520" y="-83"/>
      <point x="488" y="-112"/>
      <point x="481" y="-170" type="curve" smooth="yes"/>
      <point x="479" y="-186" type="line" smooth="yes"/>
      <point x="469" y="-266"/>
      <point x="425" y="-317"/>
      <point x="328" y="-317" type="curve" smooth="yes"/>
      <point x="238" y="-317"/>
      <point x="187" y="-272"/>
      <point x="187" y="-211" type="curve" smooth="yes"/>
      <point x="187" y="-169"/>
      <point x="209" y="-137"/>
      <point x="246" y="-114" type="curve"/>
      <point x="221" y="-74" type="line"/>
      <point x="163" y="-105"/>
      <point x="130" y="-155"/>
      <point x="130" y="-214" type="curve" smooth="yes"/>
      <point x="130" y="-305"/>
      <point x="203" y="-366"/>
    </contour>
  </outline>
</glyph>
<glyph name="t.Ka" format="2">
  <advance width="847"/>
  <unicode hex="0B95"/>
  <outline>
    <contour>
      <point x="307" y="-15" type="curve" smooth="yes"/>
      <point x="452" y="-15"/>
      <point x="523" y="30"/>
      <point x="523" y="135" type="curve" smooth="yes"/>
      <point x="523" y="493" type="line"/>
      <point x="420" y="493" type="line"/>
      <point x="420" y="137" type="line" smooth="yes"/>
      <point x="420" y="68"/>
      <point x="385" y="39"/>
      <point x="301" y="39" type="curve" smooth="yes"/>
      <point x="194" y="39"/>
      <point x="109" y="96"/>
      <point x="109" y="181" type="curve" smooth="yes"/>
      <point x="109" y="221"/>
      <point x="126" y="242"/>
      <point x="192" y="242" type="curve" smooth="yes"/>
      <point x="586" y="242" type="line" smooth="yes"/>
      <point x="652" y="242"/>
      <point x="682" y="210"/>
      <point x="682" y="149" type="curve" smooth="yes"/>
      <point x="682" y="89"/>
      <point x="654" y="51"/>
      <point x="575" y="31" type="curve"/>
      <point x="595" y="-15" type="line"/>
      <point x="710" y="9"/>
      <point x="787" y="74"/>
      <point x="787" y="162" type="curve" smooth="yes"/>
      <point x="787" y="244"/>
      <point x="719" y="291"/>
      <point x="601" y="291" type="curve" smooth="yes"/>
      <point x="180" y="291" type="line" smooth="yes"/>
      <point x="89" y="291"/>
      <point x="50" y="246"/>
      <point x="50" y="178" type="curve" smooth="yes"/>
      <point x="50" y="64"/>
      <point x="162" y="-15"/>
    </contour>
    <contour>
      <point x="269" y="271" type="line"/>
      <point x="269" y="473" type="line"/>
      <point x="697" y="473" type="line"/>
      <point x="697" y="522" type="line"/>
      <point x="206" y="522" type="line"/>
      <point x="206" y="271" type="line"/>
    </contour>
  </outline>
</glyph>
<glyph name="t.Nga" format="2">
  <advance width="1037"/>
  <unicode hex="0B99"/>
  <outline>
    <contour>
      <point x="932" y="0" type="line"/>
      <point x="932" y="522" type="line"/>
      <point x="829" y="522" type="line"/>
      <point x="829" y="49" type="line"/>
      <point x="326" y="49" type="line"/>
      <point x="326" y="0" type="line"/>
    </contour>
    <contour>
      <point x="169" y="0" type="line"/>
      <point x="169" y="473" type="line"/>
      <point x="666" y="473" type="line"/>
      <point x="666" y="522" type="line"/>
      <point x="105" y="522" type="line"/>
      <point x="105" y="0" type="line"/>
    </contour>
    <contour>
      <point x="429" y="113" type="line"/>
      <point x="429" y="493" type="line"/>
      <point x="326" y="493" type="line"/>
      <point x="326" y="113" type="line"/>
    </contour>
    <contour>
      <point x="644" y="29" type="line"/>
      <point x="671" y="65"/>
      <point x="697" y="128"/>
      <point x="697" y="187" type="curve" smooth="yes"/>
      <point x="697" y="282"/>
      <point x="633" y="348"/>
      <point x="539" y="348" type="curve" smooth="yes"/>
      <point x="492" y="348"/>
      <point x="452" y="331"/>
      <point x="431" y="304" type="curve"/>
      <point x="404" y="304" type="line"/>
      <point x="429" y="201" type="line"/>
      <point x="429" y="261"/>
      <point x="464" y="292"/>
      <point x="512" y="292" type="curve" smooth="yes"/>
      <point x="570" y="292"/>
      <point x="592" y="246"/>
      <point x="592" y="187" type="curve" smooth="yes"/>
      <point x="592" y="136"/>
      <point x="576" y="78"/>
      <point x="533" y="29" type="curve"/>
    </contour>
  </outline>
</glyph>
<glyph name="t.Ja" format="2">
  <advance width="972"/>
  <unicode hex="0B9C"/>
  <outline>
    <contour>
      <point x="271" y="-292" type="curve" smooth="yes"/>
      <point x="392" y="-292"/>
      <point x="451" y="-225"/>
      <point x="515" y="-147" type="curve" smooth="yes"/>
      <point x="564" y="-87"/>
      <point x="623" y="-14"/>
      <point x="708" y="-14" type="curve" smooth="yes"/>
      <point x="772" y="-14"/>
      <point x="820" y="-55"/>
      <point x="820" y="-128" type="curve" smooth="yes"/>
      <point x="820" y="-197"/>
      <point x="775" y="-241"/>
      <point x="704" y="-241" type="curve" smooth="yes"/>
      <point x="664" y="-241"/>
      <point x="619" y="-227"/>
      <point x="580" y="-201" type="curve"/>
      <point x="557" y="-243" type="line"/>
      <point x="600" y="-274"/>
      <point x="659" y="-292"/>
      <point x="715" y="-292" type="curve" smooth="yes"/>
      <point x="825" y="-292"/>
      <point x="912" y="-225"/>
      <point x="912" y="-126" type="curve" smooth="yes"/>
      <point x="912" y="-32"/>
      <point x="835" y="36"/>
      <point x="719" y="36" type="curve" smooth="yes"/>
      <point x="634" y="36"/>
      <point x="573" y="-1"/>
      <point x="476" y="-113" type="curve" smooth="yes"/>
      <point x="419" y="-178"/>
      <point x="376" y="-244"/>
      <point x="289" y="-244" type="curve" smooth="yes"/>
      <point x="209" y="-244"/>
      <point x="165" y="-187"/>
      <point x="165" y="-105" type="curve" smooth="yes"/>
      <point x="165" y="-4"/>
      <point x="231" y="48"/>
      <point x="346" y="60" type="curve" smooth="yes"/>
      <point x="554" y="81" type="line" smooth="yes"/>
      <point x="754" y="101"/>
      <point x="906" y="153"/>
      <point x="906" y="327" type="curve" smooth="yes"/>
      <point x="906" y="448"/>
      <point x="833" y="534"/>
      <point x="705" y="534" type="curve" smooth="yes"/>
      <point x="616" y="534"/>
      <point x="556" y="492"/>
      <point x="532" y="416" type="curve"/>
      <point x="526" y="416" type="line"/>
      <point x="498" y="482"/>
      <point x="422" y="534"/>
      <point x="305" y="534" type="curve" smooth="yes"/>
      <point x="148" y="534"/>
      <point x="63" y="441"/>
      <point x="63" y="337" type="curve" smooth="yes"/>
      <point x="63" y="240"/>
      <point x="139" y="166"/>
      <point x="238" y="166" type="curve" smooth="yes"/>
      <point x="336" y="166"/>
      <point x="388" y="237"/>
      <point x="388" y="307" type="curve" smooth="yes"/>
      <point x="388" y="367"/>
      <point x="348" y="417"/>
      <point x="283" y="417" type="curve" smooth="yes"/>
      <point x="217" y="417"/>
      <point x="175" y="365"/>
      <point x="175" y="305" type="curve" smooth="yes"/>
      <point x="175" y="287"/>
      <point x="179" y="253"/>
      <point x="193" y="226" type="curve"/>
      <point x="187" y="214" type="line"/>
      <point x="242" y="210" type="line"/>
      <point x="224" y="232"/>
      <point x="219" y="272"/>
      <point x="219" y="295" type="curve" smooth="yes"/>
      <point x="219" y="336"/>
      <point x="235" y="360"/>
      <point x="266" y="360" type="curve" smooth="yes"/>
      <point x="298" y="360"/>
      <point x="310" y="335"/>
      <point x="310" y="304" type="curve" smooth="yes"/>
      <point x="310" y="262"/>
      <point x="287" y="218"/>
      <point x="226" y="218" type="curve" smooth="yes"/>
      <point x="157" y="218"/>
      <point x="121" y="279"/>
      <point x="121" y="339" type="curve" smooth="yes"/>
      <point x="121" y="423"/>
      <point x="183" y="489"/>
      <point x="296" y="489" type="curve" smooth="yes"/>
      <point x="410" y="489"/>
      <point x="463" y="420"/>
      <point x="463" y="284" type="curve" smooth="yes"/>
      <point x="463" y="198" type="line"/>
      <point x="566" y="198" type="line"/>
      <point x="566" y="300" type="line" smooth="yes"/>
      <point x="566" y="422"/>
      <point x="605" y="486"/>
      <point x="687" y="486" type="curve" smooth="yes"/>
      <point x="767" y="486"/>
      <point x="801" y="422"/>
      <point x="801" y="332" type="curve" smooth="yes"/>
      <point x="801" y="178"/>
      <point x="702" y="142"/>
      <point x="534" y="126" type="curve" smooth="yes"/>
      <point x="323" y="106" type="line" smooth="yes"/>
      <point x="172" y="92"/>
      <point x="60" y="23"/>
      <point x="60" y="-103" type="curve" smooth="yes"/>
      <point x="60" y="-209"/>
      <point x="140" y="-292"/>
    </contour>
  </outline>
</glyph>
<glyph name="t.Nya" format="2">
  <advance width="1259"/>
  <unicode hex="0B9E"/>
  <outline>
    <contour>
      <point x="642" y="-339" type="curve" smooth="yes"/>
      <point x="959" y="-339"/>
      <point x="1196" y="-145"/>
      <point x="1196" y="116" type="curve" smooth="yes"/>
      <point x="1196" y="252"/>
      <point x="1132" y="335"/>
      <point x="1027" y="335" type="curve" smooth="yes"/>
      <point x="979" y="335"/>
      <point x="940" y="318"/>
      <point x="919" y="291" type="curve"/>
      <point x="892" y="291" type="line"/>
      <point x="917" y="190" type="line"/>
      <point x="917" y="248"/>
      <point x="949" y="279"/>
      <point x="999" y="279" type="curve" smooth="yes"/>
      <point x="1077" y="279"/>
      <point x="1092" y="203"/>
      <point x="1092" y="129" type="curve" smooth="yes"/>
      <point x="1092" y="-135"/>
      <point x="900" y="-283"/>
      <point x="642" y="-283" type="curve" smooth="yes"/>
      <point x="335" y="-283"/>
      <point x="129" y="-73"/>
      <point x="129" y="189" type="curve" smooth="yes"/>
      <point x="129" y="308"/>
      <point x="171" y="421"/>
      <point x="259" y="497" type="curve"/>
      <point x="220" y="537" type="line"/>
      <point x="133" y="464"/>
      <point x="70" y="342"/>
      <point x="70" y="192" type="curve" smooth="yes"/>
      <point x="70" y="-78"/>
      <point x="273" y="-339"/>
    </contour>
    <contour>
      <point x="488" y="-15" type="curve" smooth="yes"/>
      <point x="610" y="-15"/>
      <point x="676" y="77"/>
      <point x="676" y="173" type="curve" smooth="yes"/>
      <point x="676" y="261"/>
      <point x="619" y="319"/>
      <point x="539" y="319" type="curve" smooth="yes"/>
      <point x="456" y="319"/>
      <point x="395" y="257"/>
      <point x="395" y="163" type="curve" smooth="yes"/>
      <point x="395" y="130"/>
      <point x="403" y="97"/>
      <point x="417" y="68" type="curve"/>
      <point x="396" y="47" type="line"/>
      <point x="474" y="38" type="line"/>
      <point x="457" y="72"/>
      <point x="444" y="116"/>
      <point x="444" y="152" type="curve" smooth="yes"/>
      <point x="444" y="214"/>
      <point x="478" y="252"/>
      <point x="520" y="252" type="curve" smooth="yes"/>
      <point x="558" y="252"/>
      <point x="578" y="222"/>
      <point x="578" y="175" type="curve" smooth="yes"/>
      <point x="578" y="106"/>
      <point x="534" y="58"/>
      <point x="464" y="58" type="curve" smooth="yes"/>
      <point x="440" y="58" type="line"/>
      <point x="371" y="72"/>
      <point x="317" y="147"/>
      <point x="317" y="239" type="curve" smooth="yes"/>
      <point x="317" y="355"/>
      <point x="397" y="462"/>
      <point x="571" y="472" type="curve" smooth="yes"/>
      <point x="588" y="473"/>
      <point x="601" y="473"/>
      <point x="611" y="473" type="curve" smooth="yes"/>
      <point x="1126" y="473" type="line"/>
      <point x="1126" y="522" type="line"/>
      <point x="628" y="522" type="line" smooth="yes"/>
      <point x="616" y="522"/>
      <point x="595" y="522"/>
      <point x="578" y="521" type="curve" smooth="yes"/>
      <point x="356" y="508"/>
      <point x="258" y="381"/>
      <point x="258" y="236" type="curve" smooth="yes"/>
      <point x="258" y="99"/>
      <point x="351" y="-15"/>
    </contour>
    <contour>
      <point x="917" y="0" type="line"/>
      <point x="917" y="493" type="line"/>
      <point x="814" y="493" type="line"/>
      <point x="814" y="0" type="line"/>
    </contour>
  </outline>
</glyph>
<glyph name="t.Tta" format="2">
  <advance width="1000"/>
  <unicode hex="0B9F"/>
  <outline>
    <contour>
      <point x="978" y="0" type="line"/>
      <point x="978" y="49" type="line"/>
      <point x="208" y="49" type="line"/>
      <point x="208" y="522" type="line"/>
      <point x="105" y="522" type="line"/>
      <point x="105" y="0" type="line"/>
    </contour>
  </outline>
</glyph>
<glyph name="t.Nna" format="2">
  <advance width="1619"/>
  <unicode hex="0BA3"/>
  <outline>
    <contour>
      <point x="286" y="-15" type="curve" smooth="yes"/>
      <point x="405" y="-15"/>
      <point x="473" y="74"/>
      <point x="473" y="170" type="curve" smooth="yes"/>
      <point x="473" y="257"/>
      <point x="418" y="319"/>
      <point x="335" y="319" type="curve" smooth="yes"/>
      <point x="252" y="319"/>
      <point x="192" y="257"/>
      <point x="192" y="160" type="curve" smooth="yes"/>
      <point x="192" y="130"/>
      <point x="198" y="93"/>
      <point x="212" y="66" type="curve"/>
      <point x="190" y="45" type="line"/>
      <point x="270" y="36" type="line"/>
      <point x="248" y="75"/>
      <point x="241" y="119"/>
      <point x="241" y="151" type="curve" smooth="yes"/>
      <point x="241" y="217"/>
      <point x="276" y="252"/>
      <point x="316" y="252" type="curve" smooth="yes"/>
      <point x="355" y="252"/>
      <point x="375" y="223"/>
      <point x="375" y="176" type="curve" smooth="yes"/>
      <point x="375" y="108"/>
      <point x="334" y="55"/>
      <point x="250" y="55" type="curve" smooth="yes"/>
      <point x="181" y="55"/>
      <point x="129" y="130"/>
      <point x="129" y="225" type="curve" smooth="yes"/>
      <point x="129" y="367"/>
      <point x="255" y="480"/>
      <point x="436" y="480" type="curve" smooth="yes"/>
      <point x="620" y="480"/>
      <point x="750" y="356"/>
      <point x="750" y="184" type="curve" smooth="yes"/>
      <point x="750" y="105"/>
      <point x="721" y="50"/>
      <point x="674" y="50" type="curve" smooth="yes"/>
      <point x="628" y="50"/>
      <point x="598" y="101"/>
      <point x="598" y="179" type="curve" smooth="yes"/>
      <point x="598" y="344"/>
      <point x="734" y="478"/>
      <point x="885" y="478" type="curve" smooth="yes"/>
      <point x="1040" y="478"/>
      <point x="1141" y="347"/>
      <point x="1141" y="187" type="curve" smooth="yes"/>
      <point x="1141" y="105"/>
      <point x="1114" y="50"/>
      <point x="1064" y="50" type="curve" smooth="yes"/>
      <point x="1016" y="50"/>
      <point x="990" y="99"/>
      <point x="990" y="183" type="curve" smooth="yes"/>
      <point x="990" y="356"/>
      <point x="1105" y="473"/>
      <point x="1297" y="473" type="curve" smooth="yes"/>
      <point x="1589" y="473" type="line"/>
      <point x="1589" y="522" type="line"/>
      <point x="1297" y="522" type="line" smooth="yes"/>
      <point x="1084" y="522"/>
      <point x="930" y="386"/>
      <point x="930" y="179" type="curve" smooth="yes"/>
      <point x="930" y="64"/>
      <point x="981" y="-15"/>
      <point x="1082" y="-15" type="curve" smooth="yes"/>
      <point x="1183" y="-15"/>
      <point x="1246" y="66"/>
      <point x="1246" y="187" type="curve" smooth="yes"/>
      <point x="1246" y="372"/>
      <point x="1106" y="532"/>
      <point x="897" y="532" type="curve" smooth="yes"/>
      <point x="700" y="532"/>
      <point x="538" y="378"/>
      <point x="538" y="177" type="curve" smooth="yes"/>
      <point x="538" y="68"/>
      <point x="589" y="-15"/>
      <point x="691" y="-15" type="curve" smooth="yes"/>
      <point x="792" y="-15"/>
      <point x="855" y="64"/>
      <point x="855" y="189" type="curve" smooth="yes"/>
      <point x="855" y="431"/>
      <point x="624" y="534"/>
      <point x="444" y="534" type="curve" smooth="yes"/>
      <point x="213" y="534"/>
      <point x="70" y="390"/>
      <point x="70" y="223" type="curve" smooth="yes"/>
      <point x="70" y="92"/>
      <point x="156" y="-15"/>
    </contour>
    <contour>
      <point x="1453" y="0" type="line"/>
      <point x="1453" y="493" type="line"/>
      <point x="1350" y="493" type="line"/>
      <point x="1350" y="0" type="line"/>
    </contour>
  </outline>
  <guideline angle="0" x="0" y="180"/>
</glyph>
<glyph name="t.Ta" format="2">
  <advance width="871"/>
  <unicode hex="0BA4"/>
  <outline>
    <contour>
      <point x="128" y="-252" type="curve" smooth="yes"/>
      <point x="156" y="-252"/>
      <point x="174" y="-233"/>
      <point x="174" y="-189" type="curve" smooth="yes"/>
      <point x="174" y="-149"/>
      <point x="184" y="-132"/>
      <point x="228" y="-132" type="curve" smooth="yes"/>
      <point x="493" y="-132" type="line" smooth="yes"/>
      <point x="674" y="-132"/>
      <point x="811" y="-43"/>
      <point x="811" y="110" type="curve" smooth="yes"/>
      <point x="811" y="243"/>
      <point x="707" y="291"/>
      <point x="601" y="291" type="curve" smooth="yes"/>
      <point x="180" y="291" type="line" smooth="yes"/>
      <point x="89" y="291"/>
      <point x="50" y="246"/>
      <point x="50" y="178" type="curve" smooth="yes"/>
      <point x="50" y="64"/>
      <point x="162" y="-15"/>
      <point x="307" y="-15" type="curve" smooth="yes"/>
      <point x="452" y="-15"/>
      <point x="523" y="30"/>
      <point x="523" y="135" type="curve" smooth="yes"/>
      <point x="523" y="493" type="line"/>
      <point x="420" y="493" type="line"/>
      <point x="420" y="137" type="line" smooth="yes"/>
      <point x="420" y="68"/>
      <point x="385" y="39"/>
      <point x="301" y="39" type="curve" smooth="yes"/>
      <point x="194" y="39"/>
      <point x="109" y="96"/>
      <point x="109" y="181" type="curve" smooth="yes"/>
      <point x="109" y="221"/>
      <point x="126" y="242"/>
      <point x="192" y="242" type="curve" smooth="yes"/>
      <point x="579" y="242" type="line" smooth="yes"/>
      <point x="671" y="242"/>
      <point x="706" y="196"/>
      <point x="706" y="112" type="curve" smooth="yes"/>
      <point x="706" y="-16"/>
      <point x="626" y="-83"/>
      <point x="482" y="-83" type="curve" smooth="yes"/>
      <point x="229" y="-83" type="line" smooth="yes"/>
      <point x="136" y="-83"/>
      <point x="77" y="-120"/>
      <point x="77" y="-190" type="curve" smooth="yes"/>
      <point x="77" y="-222"/>
      <point x="94" y="-252"/>
    </contour>
    <contour>
      <point x="269" y="271" type="line"/>
      <point x="269" y="473" type="line"/>
      <point x="697" y="473" type="line"/>
      <point x="697" y="522" type="line"/>
      <point x="206" y="522" type="line"/>
      <point x="206" y="271" type="line"/>
    </contour>
  </outline>
</glyph>
<glyph name="t.Na" format="2">
  <advance width="775"/>
  <unicode hex="0BA8"/>
  <outline>
    <contour>
      <point x="123" y="-252" type="curve" smooth="yes"/>
      <point x="151" y="-252"/>
      <point x="169" y="-233"/>
      <point x="169" y="-189" type="curve" smooth="yes"/>
      <point x="169" y="-149"/>
      <point x="179" y="-132"/>
      <point x="223" y="-132" type="curve" smooth="yes"/>
      <point x="389" y="-132" type="line" smooth="yes"/>
      <point x="579" y="-132"/>
      <point x="710" y="-43"/>
      <point x="710" y="139" type="curve" smooth="yes"/>
      <point x="710" y="255"/>
      <point x="646" y="335"/>
      <point x="544" y="335" type="curve" smooth="yes"/>
      <point x="497" y="335"/>
      <point x="460" y="318"/>
      <point x="437" y="290" type="curve"/>
      <point x="413" y="290" type="line"/>
      <point x="435" y="187" type="line"/>
      <point x="435" y="249"/>
      <point x="468" y="279"/>
      <point x="516" y="279" type="curve" smooth="yes"/>
      <point x="583" y="279"/>
      <point x="605" y="217"/>
      <point x="605" y="138" type="curve" smooth="yes"/>
      <point x="605" y="-29"/>
      <point x="509" y="-83"/>
      <point x="377" y="-83" type="curve" smooth="yes"/>
      <point x="224" y="-83" type="line" smooth="yes"/>
      <point x="131" y="-83"/>
      <point x="72" y="-120"/>
      <point x="72" y="-190" type="curve" smooth="yes"/>
      <point x="72" y="-222"/>
      <point x="89" y="-252"/>
    </contour>
    <contour>
      <point x="435" y="0" type="line"/>
      <point x="435" y="493" type="line"/>
      <point x="332" y="493" type="line"/>
      <point x="332" y="0" type="line"/>
    </contour>
    <contour>
      <point x="169" y="0" type="line"/>
      <point x="169" y="473" type="line"/>
      <point x="644" y="473" type="line"/>
      <point x="644" y="522" type="line"/>
      <point x="105" y="522" type="line"/>
      <point x="105" y="0" type="line"/>
    </contour>
  </outline>
</glyph>
<glyph name="t.Nnna" format="2">
  <advance width="1233"/>
  <unicode hex="0BA9"/>
  <outline>
    <contour>
      <point x="286" y="-15" type="curve" smooth="yes"/>
      <point x="405" y="-15"/>
      <point x="473" y="74"/>
      <point x="473" y="170" type="curve" smooth="yes"/>
      <point x="473" y="257"/>
      <point x="418" y="319"/>
      <point x="335" y="319" type="curve" smooth="yes"/>
      <point x="252" y="319"/>
      <point x="192" y="257"/>
      <point x="192" y="160" type="curve" smooth="yes"/>
      <point x="192" y="129"/>
      <point x="200" y="96"/>
      <point x="214" y="68" type="curve"/>
      <point x="195" y="47" type="line"/>
      <point x="271" y="40" type="line"/>
      <point x="248" y="84"/>
      <point x="241" y="121"/>
      <point x="241" y="151" type="curve" smooth="yes"/>
      <point x="241" y="217"/>
      <point x="276" y="252"/>
      <point x="317" y="252" type="curve" smooth="yes"/>
      <point x="355" y="252"/>
      <point x="375" y="223"/>
      <point x="375" y="176" type="curve" smooth="yes"/>
      <point x="375" y="107"/>
      <point x="332" y="57"/>
      <point x="256" y="57" type="curve" smooth="yes"/>
      <point x="180" y="57"/>
      <point x="129" y="135"/>
      <point x="129" y="226" type="curve" smooth="yes"/>
      <point x="129" y="366"/>
      <point x="253" y="480"/>
      <point x="446" y="480" type="curve" smooth="yes"/>
      <point x="664" y="480"/>
      <point x="755" y="334"/>
      <point x="755" y="180" type="curve" smooth="yes"/>
      <point x="755" y="106"/>
      <point x="727" y="50"/>
      <point x="679" y="50" type="curve" smooth="yes"/>
      <point x="630" y="50"/>
      <point x="604" y="96"/>
      <point x="604" y="186" type="curve" smooth="yes"/>
      <point x="604" y="327"/>
      <point x="706" y="473"/>
      <point x="911" y="473" type="curve" smooth="yes"/>
      <point x="1203" y="473" type="line"/>
      <point x="1203" y="522" type="line"/>
      <point x="911" y="522" type="line" smooth="yes"/>
      <point x="681" y="522"/>
      <point x="544" y="358"/>
      <point x="544" y="183" type="curve" smooth="yes"/>
      <point x="544" y="63"/>
      <point x="595" y="-15"/>
      <point x="696" y="-15" type="curve" smooth="yes"/>
      <point x="797" y="-15"/>
      <point x="860" y="66"/>
      <point x="860" y="184" type="curve" smooth="yes"/>
      <point x="860" y="375"/>
      <point x="700" y="534"/>
      <point x="451" y="534" type="curve" smooth="yes"/>
      <point x="217" y="534"/>
      <point x="70" y="395"/>
      <point x="70" y="222" type="curve" smooth="yes"/>
      <point x="70" y="92"/>
      <point x="156" y="-15"/>
    </contour>
    <contour>
      <point x="1067" y="0" type="line"/>
      <point x="1067" y="493" type="line"/>
      <point x="964" y="493" type="line"/>
      <point x="964" y="0" type="line"/>
    </contour>
  </outline>
</glyph>
<glyph name="t.Pa" format="2">
  <advance width="898"/>
  <unicode hex="0BAA"/>
  <outline>
    <contour>
      <point x="793" y="0" type="line"/>
      <point x="793" y="522" type="line"/>
      <point x="690" y="522" type="line"/>
      <point x="690" y="49" type="line"/>
      <point x="208" y="49" type="line"/>
      <point x="208" y="522" type="line"/>
      <point x="105" y="522" type="line"/>
      <point x="105" y="0" type="line"/>
    </contour>
  </outline>
</glyph>
<glyph name="t.Ma" format="2">
  <advance width="971"/>
  <unicode hex="0BAE"/>
  <outline>
    <contour>
      <point x="779" y="0" type="line" smooth="yes"/>
      <point x="861" y="0"/>
      <point x="901" y="73"/>
      <point x="901" y="207" type="curve" smooth="yes"/>
      <point x="901" y="373"/>
      <point x="814" y="534"/>
      <point x="634" y="534" type="curve" smooth="yes"/>
      <point x="515" y="534"/>
      <point x="478" y="465"/>
      <point x="478" y="363" type="curve" smooth="yes"/>
      <point x="478" y="29" type="line"/>
      <point x="581" y="29" type="line"/>
      <point x="581" y="350" type="line" smooth="yes"/>
      <point x="581" y="436"/>
      <point x="586" y="480"/>
      <point x="652" y="480" type="curve" smooth="yes"/>
      <point x="754" y="480"/>
      <point x="842" y="370"/>
      <point x="842" y="211" type="curve" smooth="yes"/>
      <point x="842" y="140"/>
      <point x="833" y="49"/>
      <point x="768" y="49" type="curve" smooth="yes"/>
      <point x="208" y="49" type="line"/>
      <point x="208" y="522" type="line"/>
      <point x="105" y="522" type="line"/>
      <point x="105" y="0" type="line"/>
    </contour>
  </outline>
</glyph>
<glyph name="t.Ya" format="2">
  <advance width="972"/>
  <unicode hex="0BAF"/>
  <outline>
    <contour>
      <point x="867" y="0" type="line"/>
      <point x="867" y="522" type="line"/>
      <point x="764" y="522" type="line"/>
      <point x="764" y="49" type="line"/>
      <point x="460" y="49" type="line"/>
      <point x="460" y="522" type="line"/>
      <point x="357" y="522" type="line"/>
      <point x="357" y="169" type="line"/>
      <point x="359" y="104" type="line"/>
      <point x="359" y="0" type="line"/>
    </contour>
    <contour>
      <point x="232" y="-15" type="curve" smooth="yes"/>
      <point x="289" y="-15"/>
      <point x="330" y="10"/>
      <point x="357" y="58" type="curve"/>
      <point x="384" y="58" type="line"/>
      <point x="357" y="169" type="line"/>
      <point x="357" y="93"/>
      <point x="310" y="43"/>
      <point x="261" y="43" type="curve" smooth="yes"/>
      <point x="230" y="43"/>
      <point x="208" y="62"/>
      <point x="208" y="113" type="curve" smooth="yes"/>
      <point x="208" y="522" type="line"/>
      <point x="105" y="522" type="line"/>
      <point x="105" y="130" type="line" smooth="yes"/>
      <point x="105" y="23"/>
      <point x="162" y="-15"/>
    </contour>
  </outline>
</glyph>
<glyph name="t.Ra" format="2">
  <advance width="683"/>
  <unicode hex="0BB0"/>
  <outline>
    <contour>
      <point x="169" y="0" type="line"/>
      <point x="169" y="473" type="line"/>
      <point x="653" y="473" type="line"/>
      <point x="653" y="522" type="line"/>
      <point x="105" y="522" type="line"/>
      <point x="105" y="0" type="line"/>
    </contour>
    <contour>
      <point x="493" y="0" type="line"/>
      <point x="493" y="493" type="line"/>
      <point x="390" y="493" type="line"/>
      <point x="390" y="0" type="line"/>
      <point x="112" y="-152" type="line"/>
      <point x="112" y="-209" type="line"/>
    </contour>
  </outline>
  <guideline angle="27.5781" x="0" y="-259"/>
  <guideline angle="27.5781" x="0" y="-205"/>
</glyph>
<glyph name="t.Rra" format="2">
  <advance width="844"/>
  <unicode hex="0BB1"/>
  <outline>
    <contour>
      <point x="123" y="-252" type="curve" smooth="yes"/>
      <point x="150" y="-252"/>
      <point x="168" y="-234"/>
      <point x="168" y="-186" type="curve" smooth="yes"/>
      <point x="168" y="-150"/>
      <point x="178" y="-132"/>
      <point x="222" y="-132" type="curve"/>
      <point x="431" y="-132" type="line" smooth="yes"/>
      <point x="625" y="-132"/>
      <point x="769" y="1"/>
      <point x="769" y="230" type="curve" smooth="yes"/>
      <point x="769" y="409"/>
      <point x="682" y="534"/>
      <point x="535" y="534" type="curve" smooth="yes"/>
      <point x="458" y="534"/>
      <point x="402" y="499"/>
      <point x="381" y="450" type="curve"/>
      <point x="377" y="450" type="line"/>
      <point x="355" y="505"/>
      <point x="307" y="534"/>
      <point x="241" y="534" type="curve" smooth="yes"/>
      <point x="167" y="534"/>
      <point x="105" y="496"/>
      <point x="105" y="391" type="curve" smooth="yes"/>
      <point x="105" y="0" type="line"/>
      <point x="169" y="0" type="line"/>
      <point x="169" y="394" type="line" smooth="yes"/>
      <point x="169" y="458"/>
      <point x="198" y="484"/>
      <point x="239" y="484" type="curve" smooth="yes"/>
      <point x="294" y="484"/>
      <point x="316" y="435"/>
      <point x="316" y="371" type="curve" smooth="yes"/>
      <point x="316" y="0" type="line"/>
      <point x="419" y="0" type="line"/>
      <point x="419" y="369" type="line" smooth="yes"/>
      <point x="419" y="437"/>
      <point x="462" y="484"/>
      <point x="526" y="484" type="curve" smooth="yes"/>
      <point x="604" y="484"/>
      <point x="664" y="415"/>
      <point x="664" y="239" type="curve" smooth="yes"/>
      <point x="664" y="37"/>
      <point x="584" y="-83"/>
      <point x="416" y="-83" type="curve" smooth="yes"/>
      <point x="223" y="-83" type="line" smooth="yes"/>
      <point x="130" y="-83"/>
      <point x="71" y="-121"/>
      <point x="71" y="-188" type="curve" smooth="yes"/>
      <point x="71" y="-223"/>
      <point x="87" y="-252"/>
    </contour>
  </outline>
</glyph>
<glyph name="t.La" format="2">
  <advance width="1042"/>
  <unicode hex="0BB2"/>
  <outline>
    <contour>
      <point x="293" y="-15" type="curve" smooth="yes"/>
      <point x="414" y="-15"/>
      <point x="480" y="78"/>
      <point x="480" y="172" type="curve" smooth="yes"/>
      <point x="480" y="260"/>
      <point x="425" y="319"/>
      <point x="343" y="319" type="curve" smooth="yes"/>
      <point x="258" y="319"/>
      <point x="199" y="255"/>
      <point x="199" y="163" type="curve" smooth="yes"/>
      <point x="199" y="130"/>
      <point x="206" y="98"/>
      <point x="220" y="69" type="curve"/>
      <point x="198" y="47" type="line"/>
      <point x="279" y="38" type="line"/>
      <point x="261" y="70"/>
      <point x="248" y="118"/>
      <point x="248" y="152" type="curve" smooth="yes"/>
      <point x="248" y="214"/>
      <point x="281" y="252"/>
      <point x="324" y="252" type="curve" smooth="yes"/>
      <point x="360" y="252"/>
      <point x="382" y="225"/>
      <point x="382" y="175" type="curve" smooth="yes"/>
      <point x="382" y="106"/>
      <point x="338" y="58"/>
      <point x="268" y="58" type="curve" smooth="yes"/>
      <point x="244" y="58" type="line"/>
      <point x="175" y="73"/>
      <point x="129" y="155"/>
      <point x="129" y="244" type="curve" smooth="yes"/>
      <point x="129" y="367"/>
      <point x="217" y="480"/>
      <point x="370" y="480" type="curve" smooth="yes"/>
      <point x="501" y="480"/>
      <point x="573" y="402"/>
      <point x="573" y="273" type="curve" smooth="yes"/>
      <point x="573" y="234"/>
      <point x="566" y="168"/>
      <point x="566" y="137" type="curve" smooth="yes"/>
      <point x="566" y="20"/>
      <point x="650" y="-15"/>
      <point x="726" y="-15" type="curve" smooth="yes"/>
      <point x="857" y="-15"/>
      <point x="967" y="91"/>
      <point x="967" y="270" type="curve" smooth="yes"/>
      <point x="967" y="426"/>
      <point x="888" y="548"/>
      <point x="813" y="548" type="curve" smooth="yes"/>
      <point x="780" y="548"/>
      <point x="766" y="524"/>
      <point x="766" y="504" type="curve" smooth="yes"/>
      <point x="766" y="466"/>
      <point x="800" y="455"/>
      <point x="835" y="430" type="curve" smooth="yes"/>
      <point x="871" y="404"/>
      <point x="910" y="365"/>
      <point x="910" y="268" type="curve" smooth="yes"/>
      <point x="910" y="136"/>
      <point x="833" y="46"/>
      <point x="743" y="46" type="curve" smooth="yes"/>
      <point x="696" y="46"/>
      <point x="661" y="70"/>
      <point x="661" y="151" type="curve" smooth="yes"/>
      <point x="661" y="184"/>
      <point x="668" y="238"/>
      <point x="668" y="278" type="curve" smooth="yes"/>
      <point x="668" y="446"/>
      <point x="563" y="534"/>
      <point x="392" y="534" type="curve" smooth="yes"/>
      <point x="186" y="534"/>
      <point x="70" y="397"/>
      <point x="70" y="242" type="curve" smooth="yes"/>
      <point x="70" y="112"/>
      <point x="153" y="-15"/>
    </contour>
  </outline>
  <guideline angle="0" x="0" y="50"/>
</glyph>
<glyph name="t.Lla" format="2">
  <advance width="1120"/>
  <unicode hex="0BB3"/>
  <outline>
    <contour>
      <point x="300" y="-15" type="curve" smooth="yes"/>
      <point x="422" y="-15"/>
      <point x="487" y="78"/>
      <point x="487" y="172" type="curve" smooth="yes"/>
      <point x="487" y="260"/>
      <point x="432" y="319"/>
      <point x="350" y="319" type="curve" smooth="yes"/>
      <point x="265" y="319"/>
      <point x="206" y="255"/>
      <point x="206" y="163" type="curve" smooth="yes"/>
      <point x="206" y="131"/>
      <point x="213" y="100"/>
      <point x="227" y="69" type="curve"/>
      <point x="205" y="47" type="line"/>
      <point x="286" y="38" type="line"/>
      <point x="265" y="78"/>
      <point x="255" y="120"/>
      <point x="255" y="152" type="curve" smooth="yes"/>
      <point x="255" y="214"/>
      <point x="288" y="252"/>
      <point x="331" y="252" type="curve" smooth="yes"/>
      <point x="367" y="252"/>
      <point x="389" y="225"/>
      <point x="389" y="176" type="curve" smooth="yes"/>
      <point x="389" y="108"/>
      <point x="345" y="58"/>
      <point x="275" y="58" type="curve" smooth="yes"/>
      <point x="250" y="58" type="line"/>
      <point x="182" y="75"/>
      <point x="129" y="152"/>
      <point x="129" y="247" type="curve" smooth="yes"/>
      <point x="129" y="367"/>
      <point x="214" y="480"/>
      <point x="364" y="480" type="curve" smooth="yes"/>
      <point x="511" y="480"/>
      <point x="582" y="373"/>
      <point x="582" y="222" type="curve"/>
      <point x="670" y="368" type="line"/>
      <point x="628" y="368" type="line"/>
      <point x="599" y="467"/>
      <point x="503" y="534"/>
      <point x="373" y="534" type="curve" smooth="yes"/>
      <point x="187" y="534"/>
      <point x="70" y="397"/>
      <point x="70" y="245" type="curve" smooth="yes"/>
      <point x="70" y="112"/>
      <point x="160" y="-15"/>
    </contour>
    <contour>
      <point x="685" y="0" type="line"/>
      <point x="685" y="473" type="line"/>
      <point x="1090" y="473" type="line"/>
      <point x="1090" y="522" type="line"/>
      <point x="634" y="522" type="line"/>
      <point x="634" y="362" type="line"/>
      <point x="582" y="222" type="line"/>
      <point x="582" y="0" type="line"/>
    </contour>
    <contour>
      <point x="957" y="0" type="line"/>
      <point x="957" y="493" type="line"/>
      <point x="854" y="493" type="line"/>
      <point x="854" y="0" type="line"/>
    </contour>
  </outline>
</glyph>
<glyph name="t.Llla" format="2">
  <advance width="967"/>
  <unicode hex="0BB4"/>
  <outline>
    <contour>
      <point x="577" y="-103" type="line"/>
      <point x="577" y="350" type="line" smooth="yes"/>
      <point x="577" y="436"/>
      <point x="582" y="480"/>
      <point x="648" y="480" type="curve" smooth="yes"/>
      <point x="750" y="480"/>
      <point x="838" y="370"/>
      <point x="838" y="211" type="curve" smooth="yes"/>
      <point x="838" y="140"/>
      <point x="829" y="49"/>
      <point x="764" y="49" type="curve" smooth="yes"/>
      <point x="208" y="49" type="line"/>
      <point x="208" y="522" type="line"/>
      <point x="105" y="522" type="line"/>
      <point x="105" y="0" type="line"/>
      <point x="775" y="0" type="line" smooth="yes"/>
      <point x="857" y="0"/>
      <point x="897" y="73"/>
      <point x="897" y="207" type="curve" smooth="yes"/>
      <point x="897" y="373"/>
      <point x="810" y="534"/>
      <point x="630" y="534" type="curve" smooth="yes"/>
      <point x="511" y="534"/>
      <point x="474" y="465"/>
      <point x="474" y="363" type="curve" smooth="yes"/>
      <point x="474" y="-103" type="line"/>
    </contour>
    <contour>
      <point x="275" y="-366" type="curve" smooth="yes"/>
      <point x="470" y="-366"/>
      <point x="488" y="-215"/>
      <point x="493" y="-174" type="curve" smooth="yes"/>
      <point x="496" y="-148"/>
      <point x="497" y="-132"/>
      <point x="536" y="-132" type="curve" smooth="yes"/>
      <point x="711" y="-132" type="line"/>
      <point x="711" y="-83" type="line"/>
      <point x="503" y="-83" type="line" smooth="yes"/>
      <point x="457" y="-83"/>
      <point x="416" y="-104"/>
      <point x="409" y="-170" type="curve" smooth="yes"/>
      <point x="407" y="-186" type="line" smooth="yes"/>
      <point x="397" y="-266"/>
      <point x="357" y="-317"/>
      <point x="267" y="-317" type="curve" smooth="yes"/>
      <point x="190" y="-317"/>
      <point x="136" y="-278"/>
      <point x="136" y="-207" type="curve" smooth="yes"/>
      <point x="136" y="-161"/>
      <point x="164" y="-127"/>
      <point x="197" y="-127" type="curve" smooth="yes"/>
      <point x="224" y="-127"/>
      <point x="223" y="-152"/>
      <point x="226" y="-166" type="curve" smooth="yes"/>
      <point x="228" y="-177"/>
      <point x="234" y="-210"/>
      <point x="270" y="-210" type="curve" smooth="yes"/>
      <point x="301" y="-210"/>
      <point x="315" y="-187"/>
      <point x="315" y="-162" type="curve" smooth="yes"/>
      <point x="315" y="-113"/>
      <point x="267" y="-84"/>
      <point x="207" y="-84" type="curve" smooth="yes"/>
      <point x="134" y="-84"/>
      <point x="81" y="-135"/>
      <point x="81" y="-209" type="curve" smooth="yes"/>
      <point x="81" y="-297"/>
      <point x="145" y="-366"/>
    </contour>
  </outline>
</glyph>
<glyph name="t.Sha" format="2">
  <advance width="1168"/>
  <unicode hex="0BB6"/>
  <outline>
    <contour>
      <point x="293" y="-15" type="curve" smooth="yes"/>
      <point x="495" y="-15"/>
      <point x="525" y="169"/>
      <point x="525" y="339" type="curve" smooth="yes"/>
      <point x="525" y="370"/>
      <point x="525" y="411"/>
      <point x="524" y="473" type="curve"/>
      <point x="964" y="473" type="line" smooth="yes"/>
      <point x="1006" y="473"/>
      <point x="1015" y="470"/>
      <point x="1026" y="414" type="curve" smooth="yes"/>
      <point x="1033" y="379"/>
      <point x="1037" y="336"/>
      <point x="1037" y="299" type="curve" smooth="yes"/>
      <point x="1037" y="149"/>
      <point x="975" y="39"/>
      <point x="872" y="39" type="curve" smooth="yes"/>
      <point x="795" y="39"/>
      <point x="776" y="100"/>
      <point x="776" y="174" type="curve"/>
      <point x="776" y="493" type="line"/>
      <point x="673" y="493" type="line"/>
      <point x="673" y="178" type="line" smooth="yes"/>
      <point x="673" y="58"/>
      <point x="735" y="-15"/>
      <point x="853" y="-15" type="curve" smooth="yes"/>
      <point x="1041" y="-15"/>
      <point x="1096" y="165"/>
      <point x="1096" y="301" type="curve" smooth="yes"/>
      <point x="1096" y="341"/>
      <point x="1091" y="390"/>
      <point x="1083" y="425" type="curve" smooth="yes"/>
      <point x="1061" y="520"/>
      <point x="1043" y="522"/>
      <point x="983" y="522" type="curve" smooth="yes"/>
      <point x="460" y="522" type="line"/>
      <point x="461" y="503"/>
      <point x="463" y="391"/>
      <point x="463" y="341" type="curve" smooth="yes"/>
      <point x="463" y="197"/>
      <point x="446" y="39"/>
      <point x="311" y="39" type="curve" smooth="yes"/>
      <point x="233" y="39"/>
      <point x="208" y="92"/>
      <point x="208" y="173" type="curve" smooth="yes"/>
      <point x="208" y="522" type="line"/>
      <point x="105" y="522" type="line"/>
      <point x="105" y="170" type="line" smooth="yes"/>
      <point x="105" y="44"/>
      <point x="179" y="-15"/>
    </contour>
  </outline>
</glyph>
<glyph name="t.Ssa" format="2">
  <advance width="1428"/>
  <unicode hex="0BB7"/>
  <outline>
    <contour>
      <point x="1092" y="-292" type="line"/>
      <point x="1092" y="398" type="line" smooth="yes"/>
      <point x="1092" y="489"/>
      <point x="1041" y="534"/>
      <point x="956" y="534" type="curve" smooth="yes"/>
      <point x="856" y="534"/>
      <point x="795" y="471"/>
      <point x="795" y="374" type="curve" smooth="yes"/>
      <point x="795" y="262"/>
      <point x="881" y="196"/>
      <point x="1014" y="196" type="curve" smooth="yes"/>
      <point x="1087" y="196"/>
      <point x="1153" y="210"/>
      <point x="1220" y="252" type="curve"/>
      <point x="1220" y="49" type="line"/>
      <point x="646" y="49" type="line"/>
      <point x="685" y="104"/>
      <point x="712" y="178"/>
      <point x="712" y="254" type="curve" smooth="yes"/>
      <point x="712" y="411"/>
      <point x="600" y="534"/>
      <point x="403" y="534" type="curve" smooth="yes"/>
      <point x="197" y="534"/>
      <point x="70" y="398"/>
      <point x="70" y="233" type="curve" smooth="yes"/>
      <point x="70" y="94"/>
      <point x="158" y="-15"/>
      <point x="293" y="-15" type="curve" smooth="yes"/>
      <point x="415" y="-15"/>
      <point x="482" y="74"/>
      <point x="482" y="170" type="curve" smooth="yes"/>
      <point x="482" y="257"/>
      <point x="427" y="319"/>
      <point x="345" y="319" type="curve" smooth="yes"/>
      <point x="261" y="319"/>
      <point x="201" y="257"/>
      <point x="201" y="162" type="curve" smooth="yes"/>
      <point x="201" y="129"/>
      <point x="209" y="96"/>
      <point x="223" y="68" type="curve"/>
      <point x="207" y="51" type="line"/>
      <point x="280" y="41" type="line"/>
      <point x="261" y="73"/>
      <point x="250" y="118"/>
      <point x="250" y="152" type="curve" smooth="yes"/>
      <point x="250" y="216"/>
      <point x="284" y="252"/>
      <point x="326" y="252" type="curve" smooth="yes"/>
      <point x="363" y="252"/>
      <point x="384" y="224"/>
      <point x="384" y="175" type="curve" smooth="yes"/>
      <point x="384" y="104"/>
      <point x="339" y="58"/>
      <point x="269" y="58" type="curve"/>
      <point x="226" y="64" type="line"/>
      <point x="164" y="88"/>
      <point x="129" y="156"/>
      <point x="129" y="235" type="curve" smooth="yes"/>
      <point x="129" y="366"/>
      <point x="232" y="467"/>
      <point x="386" y="467" type="curve" smooth="yes"/>
      <point x="531" y="467"/>
      <point x="607" y="378"/>
      <point x="607" y="251" type="curve" smooth="yes"/>
      <point x="607" y="167"/>
      <point x="573" y="80"/>
      <point x="509" y="5" type="curve"/>
      <point x="511" y="0" type="line"/>
      <point x="1323" y="0" type="line"/>
      <point x="1323" y="437" type="line"/>
      <point x="1318" y="438" type="line"/>
      <point x="1242" y="323"/>
      <point x="1158" y="250"/>
      <point x="1010" y="250" type="curve" smooth="yes"/>
      <point x="911" y="250"/>
      <point x="860" y="295"/>
      <point x="860" y="377" type="curve" smooth="yes"/>
      <point x="860" y="440"/>
      <point x="889" y="473"/>
      <point x="933" y="473" type="curve" smooth="yes"/>
      <point x="966" y="473"/>
      <point x="989" y="454"/>
      <point x="989" y="397" type="curve" smooth="yes"/>
      <point x="989" y="-292" type="line"/>
    </contour>
  </outline>
</glyph>
<glyph name="t.Sa" format="2">
  <advance width="1266"/>
  <unicode hex="0BB8"/>
  <outline>
    <contour>
      <point x="293" y="-15" type="curve" smooth="yes"/>
      <point x="415" y="-15"/>
      <point x="480" y="78"/>
      <point x="480" y="172" type="curve" smooth="yes"/>
      <point x="480" y="260"/>
      <point x="425" y="319"/>
      <point x="343" y="319" type="curve" smooth="yes"/>
      <point x="246" y="319"/>
      <point x="199" y="242"/>
      <point x="199" y="162" type="curve" smooth="yes"/>
      <point x="199" y="131"/>
      <point x="206" y="100"/>
      <point x="220" y="69" type="curve"/>
      <point x="198" y="47" type="line"/>
      <point x="279" y="38" type="line"/>
      <point x="258" y="78"/>
      <point x="248" y="120"/>
      <point x="248" y="152" type="curve" smooth="yes"/>
      <point x="248" y="214"/>
      <point x="281" y="252"/>
      <point x="324" y="252" type="curve" smooth="yes"/>
      <point x="360" y="252"/>
      <point x="382" y="225"/>
      <point x="382" y="176" type="curve" smooth="yes"/>
      <point x="382" y="108"/>
      <point x="338" y="58"/>
      <point x="268" y="58" type="curve" smooth="yes"/>
      <point x="242" y="58" type="line"/>
      <point x="176" y="75"/>
      <point x="129" y="152"/>
      <point x="129" y="245" type="curve" smooth="yes"/>
      <point x="129" y="366"/>
      <point x="215" y="480"/>
      <point x="364" y="480" type="curve" smooth="yes"/>
      <point x="499" y="480"/>
      <point x="572" y="367"/>
      <point x="572" y="189" type="curve" smooth="yes"/>
      <point x="572" y="0" type="line"/>
      <point x="675" y="0" type="line"/>
      <point x="675" y="311" type="line" smooth="yes"/>
      <point x="675" y="451"/>
      <point x="718" y="486"/>
      <point x="759" y="486" type="curve" smooth="yes"/>
      <point x="811" y="486"/>
      <point x="822" y="427"/>
      <point x="822" y="314" type="curve" smooth="yes"/>
      <point x="822" y="284"/>
      <point x="820" y="220"/>
      <point x="820" y="168" type="curve" smooth="yes"/>
      <point x="820" y="22"/>
      <point x="896" y="-15"/>
      <point x="979" y="-15" type="curve" smooth="yes"/>
      <point x="1114" y="-15"/>
      <point x="1188" y="115"/>
      <point x="1188" y="292" type="curve" smooth="yes"/>
      <point x="1188" y="432"/>
      <point x="1118" y="548"/>
      <point x="1046" y="548" type="curve" smooth="yes"/>
      <point x="1015" y="548"/>
      <point x="999" y="526"/>
      <point x="999" y="504" type="curve" smooth="yes"/>
      <point x="999" y="466"/>
      <point x="1031" y="455"/>
      <point x="1063" y="432" type="curve" smooth="yes"/>
      <point x="1097" y="408"/>
      <point x="1131" y="370"/>
      <point x="1131" y="276" type="curve" smooth="yes"/>
      <point x="1131" y="156"/>
      <point x="1084" y="44"/>
      <point x="994" y="44" type="curve" smooth="yes"/>
      <point x="949" y="44"/>
      <point x="914" y="71"/>
      <point x="914" y="174" type="curve" smooth="yes"/>
      <point x="914" y="205"/>
      <point x="918" y="275"/>
      <point x="918" y="340" type="curve" smooth="yes"/>
      <point x="918" y="467"/>
      <point x="875" y="534"/>
      <point x="776" y="534" type="curve" smooth="yes"/>
      <point x="689" y="534"/>
      <point x="630" y="481"/>
      <point x="630" y="335" type="curve"/>
      <point x="624" y="335" type="line"/>
      <point x="599" y="460"/>
      <point x="498" y="534"/>
      <point x="372" y="534" type="curve" smooth="yes"/>
      <point x="179" y="534"/>
      <point x="70" y="397"/>
      <point x="70" y="242" type="curve" smooth="yes"/>
      <point x="70" y="112"/>
      <point x="154" y="-15"/>
    </contour>
  </outline>
  <guideline angle="0" x="0" y="50"/>
</glyph>
<glyph name="t.Ha" format="2">
  <advance width="1569"/>
  <unicode hex="0BB9"/>
  <outline>
    <contour>
      <point x="894" y="0" type="line"/>
      <point x="894" y="394" type="line" smooth="yes"/>
      <point x="894" y="458"/>
      <point x="923" y="484"/>
      <point x="964" y="484" type="curve" smooth="yes"/>
      <point x="1019" y="484"/>
      <point x="1041" y="435"/>
      <point x="1041" y="371" type="curve" smooth="yes"/>
      <point x="1041" y="0" type="line"/>
      <point x="1144" y="0" type="line"/>
      <point x="1144" y="369" type="line" smooth="yes"/>
      <point x="1144" y="437"/>
      <point x="1187" y="484"/>
      <point x="1251" y="484" type="curve" smooth="yes"/>
      <point x="1329" y="484"/>
      <point x="1389" y="415"/>
      <point x="1389" y="239" type="curve" smooth="yes"/>
      <point x="1389" y="37"/>
      <point x="1302" y="-83"/>
      <point x="1114" y="-83" type="curve" smooth="yes"/>
      <point x="181" y="-83" type="line" smooth="yes"/>
      <point x="88" y="-83"/>
      <point x="29" y="-121"/>
      <point x="29" y="-188" type="curve" smooth="yes"/>
      <point x="29" y="-223"/>
      <point x="45" y="-252"/>
      <point x="81" y="-252" type="curve" smooth="yes"/>
      <point x="108" y="-252"/>
      <point x="126" y="-234"/>
      <point x="126" y="-186" type="curve" smooth="yes"/>
      <point x="126" y="-150"/>
      <point x="136" y="-132"/>
      <point x="180" y="-132" type="curve" smooth="yes"/>
      <point x="1129" y="-132" type="line" smooth="yes"/>
      <point x="1340" y="-132"/>
      <point x="1494" y="1"/>
      <point x="1494" y="230" type="curve" smooth="yes"/>
      <point x="1494" y="409"/>
      <point x="1407" y="534"/>
      <point x="1260" y="534" type="curve" smooth="yes"/>
      <point x="1183" y="534"/>
      <point x="1127" y="499"/>
      <point x="1106" y="450" type="curve"/>
      <point x="1102" y="450" type="line"/>
      <point x="1078" y="507"/>
      <point x="1030" y="534"/>
      <point x="967" y="534" type="curve" smooth="yes"/>
      <point x="892" y="534"/>
      <point x="832" y="495"/>
      <point x="832" y="391" type="curve" smooth="yes"/>
      <point x="832" y="0" type="line"/>
    </contour>
    <contour>
      <point x="848" y="49" type="line"/>
      <point x="646" y="49" type="line"/>
      <point x="685" y="104"/>
      <point x="712" y="178"/>
      <point x="712" y="254" type="curve" smooth="yes"/>
      <point x="712" y="411"/>
      <point x="600" y="534"/>
      <point x="403" y="534" type="curve" smooth="yes"/>
      <point x="197" y="534"/>
      <point x="70" y="398"/>
      <point x="70" y="233" type="curve" smooth="yes"/>
      <point x="70" y="94"/>
      <point x="158" y="-15"/>
      <point x="293" y="-15" type="curve" smooth="yes"/>
      <point x="415" y="-15"/>
      <point x="482" y="74"/>
      <point x="482" y="170" type="curve" smooth="yes"/>
      <point x="482" y="257"/>
      <point x="427" y="319"/>
      <point x="345" y="319" type="curve" smooth="yes"/>
      <point x="261" y="319"/>
      <point x="201" y="257"/>
      <point x="201" y="162" type="curve" smooth="yes"/>
      <point x="201" y="129"/>
      <point x="209" y="96"/>
      <point x="223" y="68" type="curve"/>
      <point x="202" y="47" type="line"/>
      <point x="280" y="41" type="line"/>
      <point x="263" y="68"/>
      <point x="250" y="116"/>
      <point x="250" y="152" type="curve" smooth="yes"/>
      <point x="250" y="216"/>
      <point x="284" y="252"/>
      <point x="326" y="252" type="curve" smooth="yes"/>
      <point x="363" y="252"/>
      <point x="384" y="224"/>
      <point x="384" y="175" type="curve" smooth="yes"/>
      <point x="384" y="106"/>
      <point x="341" y="58"/>
      <point x="269" y="58" type="curve"/>
      <point x="229" y="63" type="line"/>
      <point x="168" y="84"/>
      <point x="129" y="152"/>
      <point x="129" y="235" type="curve" smooth="yes"/>
      <point x="129" y="366"/>
      <point x="232" y="467"/>
      <point x="386" y="467" type="curve" smooth="yes"/>
      <point x="531" y="467"/>
      <point x="607" y="378"/>
      <point x="607" y="251" type="curve" smooth="yes"/>
      <point x="607" y="167"/>
      <point x="573" y="80"/>
      <point x="509" y="5" type="curve"/>
      <point x="511" y="0" type="line"/>
      <point x="848" y="0" type="line"/>
    </contour>
  </outline>
</glyph>
<glyph name="t.VSignAa" format="2">
  <advance width="683"/>
  <unicode hex="0BBE"/>
  <outline>
    <contour>
      <point x="169" y="0" type="line"/>
      <point x="169" y="473" type="line"/>
      <point x="653" y="473" type="line"/>
      <point x="653" y="522" type="line"/>
      <point x="105" y="522" type="line"/>
      <point x="105" y="0" type="line"/>
    </contour>
    <contour>
      <point x="493" y="0" type="line"/>
      <point x="493" y="493" type="line"/>
      <point x="390" y="493" type="line"/>
      <point x="390" y="0" type="line"/>
    </contour>
  </outline>
</glyph>
<glyph name="t.VSignI" format="2">
  <advance width="213"/>
  <unicode hex="0BBF"/>
  <outline>
    <contour>
      <point x="105" y="0" type="line"/>
      <point x="109" y="367"/>
      <point x="111" y="479"/>
      <point x="111" y="598" type="curve" smooth="yes"/>
      <point x="111" y="759"/>
      <point x="33" y="858"/>
      <point x="-98" y="858" type="curve" smooth="yes"/>
      <point x="-216" y="858"/>
      <point x="-301" y="774"/>
      <point x="-301" y="671" type="curve" smooth="yes"/>
      <point x="-301" y="619"/>
      <point x="-281" y="566"/>
      <point x="-235" y="524" type="curve"/>
      <point x="-235" y="519" type="line"/>
      <point x="-173" y="519" type="line"/>
      <point x="-222" y="562"/>
      <point x="-240" y="610"/>
      <point x="-240" y="653" type="curve" smooth="yes"/>
      <point x="-240" y="728"/>
      <point x="-182" y="778"/>
      <point x="-105" y="778" type="curve" smooth="yes"/>
      <point x="5" y="778"/>
      <point x="54" y="675"/>
      <point x="54" y="562" type="curve" smooth="yes"/>
      <point x="54" y="442"/>
      <point x="53" y="327"/>
      <point x="51" y="0" type="curve"/>
    </contour>
  </outline>
</glyph>
<glyph name="t.VSignIi" format="2">
  <unicode hex="0BC0"/>
  <outline>
    <contour>
      <point x="-198" y="519" type="line"/>
      <point x="-246" y="563"/>
      <point x="-273" y="623"/>
      <point x="-273" y="674" type="curve" smooth="yes"/>
      <point x="-273" y="754"/>
      <point x="-208" y="803"/>
      <point x="-127" y="803" type="curve" smooth="yes"/>
      <point x="-57" y="803"/>
      <point x="-4" y="769"/>
      <point x="-4" y="699" type="curve" smooth="yes"/>
      <point x="-4" y="653"/>
      <point x="-32" y="631"/>
      <point x="-63" y="631" type="curve" smooth="yes"/>
      <point x="-96" y="631"/>
      <point x="-123" y="657"/>
      <point x="-123" y="699" type="curve" smooth="yes"/>
      <point x="-123" y="731"/>
      <point x="-106" y="782"/>
      <point x="-49" y="807" type="curve"/>
      <point x="-139" y="825" type="line"/>
      <point x="-126" y="801" type="line"/>
      <point x="-164" y="771"/>
      <point x="-178" y="733"/>
      <point x="-178" y="695" type="curve" smooth="yes"/>
      <point x="-178" y="625"/>
      <point x="-130" y="573"/>
      <point x="-53" y="573" type="curve" smooth="yes"/>
      <point x="30" y="573"/>
      <point x="75" y="633"/>
      <point x="75" y="701" type="curve" smooth="yes"/>
      <point x="75" y="792"/>
      <point x="-5" y="858"/>
      <point x="-124" y="858" type="curve" smooth="yes"/>
      <point x="-258" y="858"/>
      <point x="-335" y="775"/>
      <point x="-335" y="677" type="curve" smooth="yes"/>
      <point x="-335" y="620"/>
      <point x="-308" y="566"/>
      <point x="-266" y="524" type="curve"/>
      <point x="-266" y="519" type="line"/>
    </contour>
  </outline>
</glyph>
<glyph name="t.VSignU" format="2">
  <advance width="509"/>
  <unicode hex="0BC1"/>
  <outline>
    <contour>
      <point x="272" y="223" type="curve" smooth="yes"/>
      <point x="372" y="223"/>
      <point x="444" y="264"/>
      <point x="444" y="344" type="curve" smooth="yes"/>
      <point x="444" y="522" type="line"/>
      <point x="-208" y="522" type="line"/>
      <point x="-208" y="473" type="line"/>
      <point x="341" y="473" type="line"/>
      <point x="341" y="349" type="line"/>
      <point x="341" y="305"/>
      <point x="318" y="273"/>
      <point x="266" y="273" type="curve" smooth="yes"/>
      <point x="218" y="273"/>
      <point x="190" y="299"/>
      <point x="190" y="350" type="curve" smooth="yes"/>
      <point x="190" y="493" type="line"/>
      <point x="127" y="493" type="line"/>
      <point x="127" y="347" type="line" smooth="yes"/>
      <point x="127" y="275"/>
      <point x="175" y="223"/>
    </contour>
  </outline>
</glyph>
<glyph name="t.VSignUu" format="2">
  <advance width="945"/>
  <unicode hex="0BC2"/>
  <outline>
    <contour>
      <point x="247" y="347" type="line" smooth="yes"/>
      <point x="247" y="275"/>
      <point x="295" y="223"/>
      <point x="392" y="223" type="curve" smooth="yes"/>
      <point x="492" y="223"/>
      <point x="564" y="264"/>
      <point x="564" y="344" type="curve" smooth="yes"/>
      <point x="564" y="522" type="line"/>
      <point x="-208" y="522" type="line"/>
      <point x="-208" y="473" type="line"/>
      <point x="461" y="473" type="line"/>
      <point x="461" y="349" type="line" smooth="yes"/>
      <point x="461" y="305"/>
      <point x="438" y="273"/>
      <point x="386" y="273" type="curve" smooth="yes"/>
      <point x="338" y="273"/>
      <point x="310" y="299"/>
      <point x="310" y="350" type="curve" smooth="yes"/>
      <point x="310" y="491" type="line" smooth="yes"/>
      <point x="310" y="597"/>
      <point x="408" y="666"/>
      <point x="523" y="666" type="curve" smooth="yes"/>
      <point x="663" y="666"/>
      <point x="770" y="565"/>
      <point x="770" y="366" type="curve" smooth="yes"/>
      <point x="770" y="155"/>
      <point x="650" y="34"/>
      <point x="462" y="34" type="curve" smooth="yes"/>
      <point x="240" y="34"/>
      <point x="112" y="201"/>
      <point x="109" y="389" type="curve"/>
      <point x="55" y="389" type="line"/>
      <point x="55" y="173"/>
      <point x="206" y="-15"/>
      <point x="475" y="-15" type="curve" smooth="yes"/>
      <point x="747" y="-15"/>
      <point x="875" y="178"/>
      <point x="875" y="375" type="curve" smooth="yes"/>
      <point x="875" y="588"/>
      <point x="726" y="720"/>
      <point x="535" y="720" type="curve" smooth="yes"/>
      <point x="364" y="720"/>
      <point x="247" y="611"/>
      <point x="247" y="482" type="curve" smooth="yes"/>
    </contour>
  </outline>
</glyph>
<glyph name="t.SignE" format="2">
  <advance width="981"/>
  <unicode hex="0BC6"/>
  <outline>
    <contour>
      <point x="446" y="-15" type="curve" smooth="yes"/>
      <point x="609" y="-15"/>
      <point x="701" y="98"/>
      <point x="701" y="219" type="curve" smooth="yes"/>
      <point x="701" y="325"/>
      <point x="629" y="387"/>
      <point x="550" y="387" type="curve" smooth="yes"/>
      <point x="461" y="387"/>
      <point x="386" y="312"/>
      <point x="386" y="194" type="curve" smooth="yes"/>
      <point x="386" y="149"/>
      <point x="397" y="92"/>
      <point x="421" y="46" type="curve"/>
      <point x="411" y="28" type="line"/>
      <point x="478" y="29" type="line"/>
      <point x="449" y="94"/>
      <point x="437" y="147"/>
      <point x="437" y="189" type="curve" smooth="yes"/>
      <point x="437" y="266"/>
      <point x="480" y="320"/>
      <point x="529" y="320" type="curve" smooth="yes"/>
      <point x="569" y="320"/>
      <point x="603" y="282"/>
      <point x="603" y="222" type="curve" smooth="yes"/>
      <point x="603" y="122"/>
      <point x="539" y="44"/>
      <point x="432" y="44" type="curve" smooth="yes"/>
      <point x="263" y="44"/>
      <point x="130" y="213"/>
      <point x="130" y="404" type="curve" smooth="yes"/>
      <point x="130" y="610"/>
      <point x="283" y="775"/>
      <point x="511" y="775" type="curve" smooth="yes"/>
      <point x="701" y="775"/>
      <point x="820" y="657"/>
      <point x="820" y="450" type="curve" smooth="yes"/>
      <point x="820" y="425"/>
      <point x="820" y="371"/>
      <point x="817" y="0" type="curve"/>
      <point x="872" y="0" type="line"/>
      <point x="877" y="389"/>
      <point x="878" y="442"/>
      <point x="878" y="471" type="curve" smooth="yes"/>
      <point x="878" y="733"/>
      <point x="729" y="858"/>
      <point x="516" y="858" type="curve" smooth="yes"/>
      <point x="252" y="858"/>
      <point x="71" y="667"/>
      <point x="71" y="410" type="curve" smooth="yes"/>
      <point x="71" y="161"/>
      <point x="242" y="-15"/>
    </contour>
  </outline>
</glyph>
<glyph name="t.SignEe" format="2">
  <advance width="837"/>
  <unicode hex="0BC7"/>
  <outline>
    <contour>
      <point x="474" y="-15" type="curve" smooth="yes"/>
      <point x="643" y="-15"/>
      <point x="772" y="93"/>
      <point x="772" y="222" type="curve" smooth="yes"/>
      <point x="772" y="313"/>
      <point x="709" y="381"/>
      <point x="623" y="381" type="curve" smooth="yes"/>
      <point x="538" y="381"/>
      <point x="475" y="311"/>
      <point x="475" y="215" type="curve" smooth="yes"/>
      <point x="475" y="155"/>
      <point x="498" y="90"/>
      <point x="537" y="36" type="curve"/>
      <point x="584" y="47" type="line"/>
      <point x="542" y="106"/>
      <point x="526" y="164"/>
      <point x="526" y="207" type="curve" smooth="yes"/>
      <point x="526" y="269"/>
      <point x="561" y="311"/>
      <point x="607" y="311" type="curve" smooth="yes"/>
      <point x="648" y="311"/>
      <point x="674" y="276"/>
      <point x="674" y="221" type="curve" smooth="yes"/>
      <point x="674" y="120"/>
      <point x="591" y="48"/>
      <point x="477" y="48" type="curve" smooth="yes"/>
      <point x="273" y="48"/>
      <point x="126" y="214"/>
      <point x="126" y="426" type="curve" smooth="yes"/>
      <point x="126" y="646"/>
      <point x="288" y="796"/>
      <point x="467" y="796" type="curve" smooth="yes"/>
      <point x="616" y="796"/>
      <point x="675" y="708"/>
      <point x="675" y="634" type="curve" smooth="yes"/>
      <point x="675" y="582"/>
      <point x="649" y="546"/>
      <point x="608" y="546" type="curve" smooth="yes"/>
      <point x="566" y="546"/>
      <point x="540" y="584"/>
      <point x="540" y="635" type="curve" smooth="yes"/>
      <point x="540" y="688"/>
      <point x="566" y="727"/>
      <point x="611" y="778" type="curve"/>
      <point x="567" y="798" type="line"/>
      <point x="519" y="752"/>
      <point x="485" y="692"/>
      <point x="485" y="626" type="curve" smooth="yes"/>
      <point x="485" y="543"/>
      <point x="541" y="479"/>
      <point x="623" y="479" type="curve" smooth="yes"/>
      <point x="709" y="479"/>
      <point x="771" y="550"/>
      <point x="771" y="637" type="curve" smooth="yes"/>
      <point x="771" y="761"/>
      <point x="646" y="858"/>
      <point x="479" y="858" type="curve" smooth="yes"/>
      <point x="275" y="858"/>
      <point x="67" y="713"/>
      <point x="67" y="430" type="curve" smooth="yes"/>
      <point x="67" y="157"/>
      <point x="260" y="-15"/>
    </contour>
  </outline>
  <guideline angle="0" x="0" y="0"/>
</glyph>
<glyph name="t.SignAi" format="2">
  <advance width="1227"/>
  <unicode hex="0BC8"/>
  <outline>
    <contour>
      <point x="284" y="-15" type="curve" smooth="yes"/>
      <point x="406" y="-15"/>
      <point x="473" y="74"/>
      <point x="473" y="170" type="curve" smooth="yes"/>
      <point x="473" y="257"/>
      <point x="418" y="319"/>
      <point x="336" y="319" type="curve" smooth="yes"/>
      <point x="252" y="319"/>
      <point x="192" y="257"/>
      <point x="192" y="162" type="curve" smooth="yes"/>
      <point x="192" y="129"/>
      <point x="200" y="96"/>
      <point x="214" y="68" type="curve"/>
      <point x="203" y="57" type="line"/>
      <point x="270" y="41" type="line"/>
      <point x="250" y="80"/>
      <point x="241" y="119"/>
      <point x="241" y="152" type="curve" smooth="yes"/>
      <point x="241" y="216"/>
      <point x="275" y="252"/>
      <point x="317" y="252" type="curve" smooth="yes"/>
      <point x="354" y="252"/>
      <point x="375" y="224"/>
      <point x="375" y="175" type="curve" smooth="yes"/>
      <point x="375" y="106"/>
      <point x="331" y="58"/>
      <point x="261" y="58" type="curve"/>
      <point x="214" y="65" type="line"/>
      <point x="162" y="89"/>
      <point x="129" y="153"/>
      <point x="129" y="225" type="curve" smooth="yes"/>
      <point x="129" y="367"/>
      <point x="255" y="480"/>
      <point x="443" y="480" type="curve" smooth="yes"/>
      <point x="630" y="480"/>
      <point x="756" y="368"/>
      <point x="756" y="184" type="curve" smooth="yes"/>
      <point x="756" y="105"/>
      <point x="729" y="50"/>
      <point x="680" y="50" type="curve" smooth="yes"/>
      <point x="633" y="50"/>
      <point x="605" y="100"/>
      <point x="605" y="181" type="curve" smooth="yes"/>
      <point x="605" y="366"/>
      <point x="755" y="479"/>
      <point x="882" y="480" type="curve" smooth="yes"/>
      <point x="1012" y="481"/>
      <point x="1053" y="371"/>
      <point x="1053" y="261" type="curve" smooth="yes"/>
      <point x="1053" y="162"/>
      <point x="1019" y="84"/>
      <point x="939" y="23" type="curve"/>
      <point x="965" y="-15" type="line"/>
      <point x="1081" y="43"/>
      <point x="1157" y="139"/>
      <point x="1157" y="272" type="curve" smooth="yes"/>
      <point x="1157" y="412"/>
      <point x="1075" y="534"/>
      <point x="892" y="534" type="curve" smooth="yes"/>
      <point x="703" y="534"/>
      <point x="545" y="369"/>
      <point x="545" y="179" type="curve" smooth="yes"/>
      <point x="545" y="67"/>
      <point x="595" y="-15"/>
      <point x="697" y="-15" type="curve" smooth="yes"/>
      <point x="798" y="-15"/>
      <point x="861" y="64"/>
      <point x="861" y="185" type="curve" smooth="yes"/>
      <point x="861" y="403"/>
      <point x="664" y="534"/>
      <point x="448" y="534" type="curve" smooth="yes"/>
      <point x="213" y="534"/>
      <point x="70" y="390"/>
      <point x="70" y="223" type="curve" smooth="yes"/>
      <point x="70" y="94"/>
      <point x="158" y="-15"/>
    </contour>
  </outline>
</glyph>
<glyph name="t.VSignO" format="2">
  <advance width="2388"/>
  <unicode hex="0BCA"/>
  <outline>
    <component base="t.VSignE"/>
    <component base="t.VSignAa" xOffset="1705"/>
    <contour>
      <point x="1021" y="309" type="curve" smooth="yes"/>
      <point x="1021" y="281"/>
      <point x="1036" y="266"/>
      <point x="1065" y="266" type="curve" smooth="yes"/>
      <point x="1093" y="266"/>
      <point x="1107" y="281"/>
      <point x="1107" y="309" type="curve" smooth="yes"/>
      <point x="1107" y="337"/>
      <point x="1093" y="352"/>
      <point x="1065" y="352" type="curve" smooth="yes"/>
      <point x="1036" y="352"/>
      <point x="1021" y="337"/>
    </contour>
    <contour>
      <point x="1580" y="309" type="curve" smooth="yes"/>
      <point x="1580" y="281"/>
      <point x="1593" y="266"/>
      <point x="1621" y="266" type="curve" smooth="yes"/>
      <point x="1651" y="266"/>
      <point x="1665" y="281"/>
      <point x="1665" y="309" type="curve" smooth="yes"/>
      <point x="1665" y="337"/>
      <point x="1651" y="352"/>
      <point x="1621" y="352" type="curve" smooth="yes"/>
      <point x="1593" y="352"/>
      <point x="1580" y="337"/>
    </contour>
    <contour>
      <point x="1300" y="587" type="curve" smooth="yes"/>
      <point x="1300" y="560"/>
      <point x="1315" y="547"/>
      <point x="1343" y="547" type="curve" smooth="yes"/>
      <point x="1371" y="547"/>
      <point x="1386" y="560"/>
      <point x="1386" y="587" type="curve" smooth="yes"/>
      <point x="1386" y="616"/>
      <point x="1371" y="630"/>
      <point x="1343" y="630" type="curve" smooth="yes"/>
      <point x="1315" y="630"/>
      <point x="1300" y="616"/>
    </contour>
    <contour>
      <point x="1300" y="30" type="curve" smooth="yes"/>
      <point x="1300" y="2"/>
      <point x="1315" y="-12"/>
      <point x="1343" y="-12" type="curve" smooth="yes"/>
      <point x="1371" y="-12"/>
      <point x="1386" y="2"/>
      <point x="1386" y="30" type="curve" smooth="yes"/>
      <point x="1386" y="59"/>
      <point x="1371" y="73"/>
      <point x="1343" y="73" type="curve" smooth="yes"/>
      <point x="1315" y="73"/>
      <point x="1300" y="59"/>
    </contour>
    <contour>
      <point x="1544" y="448" type="curve" smooth="yes"/>
      <point x="1544" y="421"/>
      <point x="1558" y="406"/>
      <point x="1586" y="406" type="curve" smooth="yes"/>
      <point x="1614" y="406"/>
      <point x="1629" y="421"/>
      <point x="1629" y="448" type="curve" smooth="yes"/>
      <point x="1629" y="477"/>
      <point x="1614" y="491"/>
      <point x="1586" y="491" type="curve" smooth="yes"/>
      <point x="1558" y="491"/>
      <point x="1544" y="477"/>
    </contour>
    <contour>
      <point x="1544" y="169" type="curve" smooth="yes"/>
      <point x="1544" y="141"/>
      <point x="1558" y="127"/>
      <point x="1586" y="127" type="curve" smooth="yes"/>
      <point x="1614" y="127"/>
      <point x="1629" y="141"/>
      <point x="1629" y="169" type="curve" smooth="yes"/>
      <point x="1629" y="198"/>
      <point x="1614" y="212"/>
      <point x="1586" y="212" type="curve" smooth="yes"/>
      <point x="1558" y="212"/>
      <point x="1544" y="198"/>
    </contour>
    <contour>
      <point x="1058" y="448" type="curve" smooth="yes"/>
      <point x="1058" y="421"/>
      <point x="1072" y="406"/>
      <point x="1100" y="406" type="curve" smooth="yes"/>
      <point x="1129" y="406"/>
      <point x="1143" y="421"/>
      <point x="1143" y="448" type="curve" smooth="yes"/>
      <point x="1143" y="477"/>
      <point x="1129" y="491"/>
      <point x="1100" y="491" type="curve" smooth="yes"/>
      <point x="1072" y="491"/>
      <point x="1058" y="477"/>
    </contour>
    <contour>
      <point x="1058" y="169" type="curve" smooth="yes"/>
      <point x="1058" y="141"/>
      <point x="1072" y="127"/>
      <point x="1100" y="127" type="curve" smooth="yes"/>
      <point x="1129" y="127"/>
      <point x="1143" y="141"/>
      <point x="1143" y="169" type="curve" smooth="yes"/>
      <point x="1143" y="198"/>
      <point x="1129" y="212"/>
      <point x="1100" y="212" type="curve" smooth="yes"/>
      <point x="1072" y="212"/>
      <point x="1058" y="198"/>
    </contour>
    <contour>
      <point x="1161" y="552" type="curve" smooth="yes"/>
      <point x="1161" y="523"/>
      <point x="1175" y="509"/>
      <point x="1204" y="509" type="curve" smooth="yes"/>
      <point x="1232" y="509"/>
      <point x="1247" y="523"/>
      <point x="1247" y="552" type="curve" smooth="yes"/>
      <point x="1247" y="580"/>
      <point x="1232" y="594"/>
      <point x="1204" y="594" type="curve" smooth="yes"/>
      <point x="1175" y="594"/>
      <point x="1161" y="580"/>
    </contour>
    <contour>
      <point x="1440" y="552" type="curve" smooth="yes"/>
      <point x="1440" y="523"/>
      <point x="1454" y="509"/>
      <point x="1482" y="509" type="curve" smooth="yes"/>
      <point x="1512" y="509"/>
      <point x="1526" y="523"/>
      <point x="1526" y="552" type="curve" smooth="yes"/>
      <point x="1526" y="580"/>
      <point x="1512" y="594"/>
      <point x="1482" y="594" type="curve" smooth="yes"/>
      <point x="1454" y="594"/>
      <point x="1440" y="580"/>
    </contour>
    <contour>
      <point x="1161" y="66" type="curve" smooth="yes"/>
      <point x="1161" y="38"/>
      <point x="1175" y="24"/>
      <point x="1204" y="24" type="curve" smooth="yes"/>
      <point x="1232" y="24"/>
      <point x="1247" y="38"/>
      <point x="1247" y="66" type="curve" smooth="yes"/>
      <point x="1247" y="95"/>
      <point x="1232" y="109"/>
      <point x="1204" y="109" type="curve" smooth="yes"/>
      <point x="1175" y="109"/>
      <point x="1161" y="95"/>
    </contour>
    <contour>
      <point x="1440" y="66" type="curve" smooth="yes"/>
      <point x="1440" y="38"/>
      <point x="1454" y="24"/>
      <point x="1482" y="24" type="curve" smooth="yes"/>
      <point x="1512" y="24"/>
      <point x="1526" y="38"/>
      <point x="1526" y="66" type="curve" smooth="yes"/>
      <point x="1526" y="95"/>
      <point x="1512" y="109"/>
      <point x="1482" y="109" type="curve" smooth="yes"/>
      <point x="1454" y="109"/>
      <point x="1440" y="95"/>
    </contour>
  </outline>
</glyph>
<glyph name="t.VSignOo" format="2">
  <advance width="2244"/>
  <unicode hex="0BCB"/>
  <outline>
    <component base="t.VSignEe"/>
    <component base="t.VSignAa" xOffset="1561"/>
    <contour>
      <point x="877" y="309" type="curve" smooth="yes"/>
      <point x="877" y="281"/>
      <point x="892" y="266"/>
      <point x="921" y="266" type="curve" smooth="yes"/>
      <point x="949" y="266"/>
      <point x="963" y="281"/>
      <point x="963" y="309" type="curve" smooth="yes"/>
      <point x="963" y="337"/>
      <point x="949" y="352"/>
      <point x="921" y="352" type="curve" smooth="yes"/>
      <point x="892" y="352"/>
      <point x="877" y="337"/>
    </contour>
    <contour>
      <point x="1436" y="309" type="curve" smooth="yes"/>
      <point x="1436" y="281"/>
      <point x="1449" y="266"/>
      <point x="1477" y="266" type="curve" smooth="yes"/>
      <point x="1507" y="266"/>
      <point x="1521" y="281"/>
      <point x="1521" y="309" type="curve" smooth="yes"/>
      <point x="1521" y="337"/>
      <point x="1507" y="352"/>
      <point x="1477" y="352" type="curve" smooth="yes"/>
      <point x="1449" y="352"/>
      <point x="1436" y="337"/>
    </contour>
    <contour>
      <point x="1156" y="587" type="curve" smooth="yes"/>
      <point x="1156" y="560"/>
      <point x="1171" y="547"/>
      <point x="1199" y="547" type="curve" smooth="yes"/>
      <point x="1227" y="547"/>
      <point x="1242" y="560"/>
      <point x="1242" y="587" type="curve" smooth="yes"/>
      <point x="1242" y="616"/>
      <point x="1227" y="630"/>
      <point x="1199" y="630" type="curve" smooth="yes"/>
      <point x="1171" y="630"/>
      <point x="1156" y="616"/>
    </contour>
    <contour>
      <point x="1156" y="30" type="curve" smooth="yes"/>
      <point x="1156" y="2"/>
      <point x="1171" y="-12"/>
      <point x="1199" y="-12" type="curve" smooth="yes"/>
      <point x="1227" y="-12"/>
      <point x="1242" y="2"/>
      <point x="1242" y="30" type="curve" smooth="yes"/>
      <point x="1242" y="59"/>
      <point x="1227" y="73"/>
      <point x="1199" y="73" type="curve" smooth="yes"/>
      <point x="1171" y="73"/>
      <point x="1156" y="59"/>
    </contour>
    <contour>
      <point x="1400" y="448" type="curve" smooth="yes"/>
      <point x="1400" y="421"/>
      <point x="1414" y="406"/>
      <point x="1442" y="406" type="curve" smooth="yes"/>
      <point x="1470" y="406"/>
      <point x="1485" y="421"/>
      <point x="1485" y="448" type="curve" smooth="yes"/>
      <point x="1485" y="477"/>
      <point x="1470" y="491"/>
      <point x="1442" y="491" type="curve" smooth="yes"/>
      <point x="1414" y="491"/>
      <point x="1400" y="477"/>
    </contour>
    <contour>
      <point x="1400" y="169" type="curve" smooth="yes"/>
      <point x="1400" y="141"/>
      <point x="1414" y="127"/>
      <point x="1442" y="127" type="curve" smooth="yes"/>
      <point x="1470" y="127"/>
      <point x="1485" y="141"/>
      <point x="1485" y="169" type="curve" smooth="yes"/>
      <point x="1485" y="198"/>
      <point x="1470" y="212"/>
      <point x="1442" y="212" type="curve" smooth="yes"/>
      <point x="1414" y="212"/>
      <point x="1400" y="198"/>
    </contour>
    <contour>
      <point x="914" y="448" type="curve" smooth="yes"/>
      <point x="914" y="421"/>
      <point x="928" y="406"/>
      <point x="956" y="406" type="curve" smooth="yes"/>
      <point x="985" y="406"/>
      <point x="999" y="421"/>
      <point x="999" y="448" type="curve" smooth="yes"/>
      <point x="999" y="477"/>
      <point x="985" y="491"/>
      <point x="956" y="491" type="curve" smooth="yes"/>
      <point x="928" y="491"/>
      <point x="914" y="477"/>
    </contour>
    <contour>
      <point x="914" y="169" type="curve" smooth="yes"/>
      <point x="914" y="141"/>
      <point x="928" y="127"/>
      <point x="956" y="127" type="curve" smooth="yes"/>
      <point x="985" y="127"/>
      <point x="999" y="141"/>
      <point x="999" y="169" type="curve" smooth="yes"/>
      <point x="999" y="198"/>
      <point x="985" y="212"/>
      <point x="956" y="212" type="curve" smooth="yes"/>
      <point x="928" y="212"/>
      <point x="914" y="198"/>
    </contour>
    <contour>
      <point x="1017" y="552" type="curve" smooth="yes"/>
      <point x="1017" y="523"/>
      <point x="1031" y="509"/>
      <point x="1060" y="509" type="curve" smooth="yes"/>
      <point x="1088" y="509"/>
      <point x="1103" y="523"/>
      <point x="1103" y="552" type="curve" smooth="yes"/>
      <point x="1103" y="580"/>
      <point x="1088" y="594"/>
      <point x="1060" y="594" type="curve" smooth="yes"/>
      <point x="1031" y="594"/>
      <point x="1017" y="580"/>
    </contour>
    <contour>
      <point x="1296" y="552" type="curve" smooth="yes"/>
      <point x="1296" y="523"/>
      <point x="1310" y="509"/>
      <point x="1338" y="509" type="curve" smooth="yes"/>
      <point x="1368" y="509"/>
      <point x="1382" y="523"/>
      <point x="1382" y="552" type="curve" smooth="yes"/>
      <point x="1382" y="580"/>
      <point x="1368" y="594"/>
      <point x="1338" y="594" type="curve" smooth="yes"/>
      <point x="1310" y="594"/>
      <point x="1296" y="580"/>
    </contour>
    <contour>
      <point x="1017" y="66" type="curve" smooth="yes"/>
      <point x="1017" y="38"/>
      <point x="1031" y="24"/>
      <point x="1060" y="24" type="curve" smooth="yes"/>
      <point x="1088" y="24"/>
      <point x="1103" y="38"/>
      <point x="1103" y="66" type="curve" smooth="yes"/>
      <point x="1103" y="95"/>
      <point x="1088" y="109"/>
      <point x="1060" y="109" type="curve" smooth="yes"/>
      <point x="1031" y="109"/>
      <point x="1017" y="95"/>
    </contour>
    <contour>
      <point x="1296" y="66" type="curve" smooth="yes"/>
      <point x="1296" y="38"/>
      <point x="1310" y="24"/>
      <point x="1338" y="24" type="curve" smooth="yes"/>
      <point x="1368" y="24"/>
      <point x="1382" y="38"/>
      <point x="1382" y="66" type="curve" smooth="yes"/>
      <point x="1382" y="95"/>
      <point x="1368" y="109"/>
      <point x="1338" y="109" type="curve" smooth="yes"/>
      <point x="1310" y="109"/>
      <point x="1296" y="95"/>
    </contour>
  </outline>
</glyph>
<glyph name="t.VSignAu" format="2">
  <advance width="2826"/>
  <unicode hex="0BCC"/>
  <outline>
    <component base="t.VSignE"/>
    <component base="t.Lla" xOffset="1706"/>
    <contour>
      <point x="1022" y="309" type="curve" smooth="yes"/>
      <point x="1022" y="281"/>
      <point x="1037" y="266"/>
      <point x="1066" y="266" type="curve" smooth="yes"/>
      <point x="1094" y="266"/>
      <point x="1108" y="281"/>
      <point x="1108" y="309" type="curve" smooth="yes"/>
      <point x="1108" y="337"/>
      <point x="1094" y="352"/>
      <point x="1066" y="352" type="curve" smooth="yes"/>
      <point x="1037" y="352"/>
      <point x="1022" y="337"/>
    </contour>
    <contour>
      <point x="1581" y="309" type="curve" smooth="yes"/>
      <point x="1581" y="281"/>
      <point x="1594" y="266"/>
      <point x="1622" y="266" type="curve" smooth="yes"/>
      <point x="1652" y="266"/>
      <point x="1666" y="281"/>
      <point x="1666" y="309" type="curve" smooth="yes"/>
      <point x="1666" y="337"/>
      <point x="1652" y="352"/>
      <point x="1622" y="352" type="curve" smooth="yes"/>
      <point x="1594" y="352"/>
      <point x="1581" y="337"/>
    </contour>
    <contour>
      <point x="1301" y="587" type="curve" smooth="yes"/>
      <point x="1301" y="560"/>
      <point x="1316" y="547"/>
      <point x="1344" y="547" type="curve" smooth="yes"/>
      <point x="1372" y="547"/>
      <point x="1387" y="560"/>
      <point x="1387" y="587" type="curve" smooth="yes"/>
      <point x="1387" y="616"/>
      <point x="1372" y="630"/>
      <point x="1344" y="630" type="curve" smooth="yes"/>
      <point x="1316" y="630"/>
      <point x="1301" y="616"/>
    </contour>
    <contour>
      <point x="1301" y="30" type="curve" smooth="yes"/>
      <point x="1301" y="2"/>
      <point x="1316" y="-12"/>
      <point x="1344" y="-12" type="curve" smooth="yes"/>
      <point x="1372" y="-12"/>
      <point x="1387" y="2"/>
      <point x="1387" y="30" type="curve" smooth="yes"/>
      <point x="1387" y="59"/>
      <point x="1372" y="73"/>
      <point x="1344" y="73" type="curve" smooth="yes"/>
      <point x="1316" y="73"/>
      <point x="1301" y="59"/>
    </contour>
    <contour>
      <point x="1545" y="448" type="curve" smooth="yes"/>
      <point x="1545" y="421"/>
      <point x="1559" y="406"/>
      <point x="1587" y="406" type="curve" smooth="yes"/>
      <point x="1615" y="406"/>
      <point x="1630" y="421"/>
      <point x="1630" y="448" type="curve" smooth="yes"/>
      <point x="1630" y="477"/>
      <point x="1615" y="491"/>
      <point x="1587" y="491" type="curve" smooth="yes"/>
      <point x="1559" y="491"/>
      <point x="1545" y="477"/>
    </contour>
    <contour>
      <point x="1545" y="169" type="curve" smooth="yes"/>
      <point x="1545" y="141"/>
      <point x="1559" y="127"/>
      <point x="1587" y="127" type="curve" smooth="yes"/>
      <point x="1615" y="127"/>
      <point x="1630" y="141"/>
      <point x="1630" y="169" type="curve" smooth="yes"/>
      <point x="1630" y="198"/>
      <point x="1615" y="212"/>
      <point x="1587" y="212" type="curve" smooth="yes"/>
      <point x="1559" y="212"/>
      <point x="1545" y="198"/>
    </contour>
    <contour>
      <point x="1059" y="448" type="curve" smooth="yes"/>
      <point x="1059" y="421"/>
      <point x="1073" y="406"/>
      <point x="1101" y="406" type="curve" smooth="yes"/>
      <point x="1130" y="406"/>
      <point x="1144" y="421"/>
      <point x="1144" y="448" type="curve" smooth="yes"/>
      <point x="1144" y="477"/>
      <point x="1130" y="491"/>
      <point x="1101" y="491" type="curve" smooth="yes"/>
      <point x="1073" y="491"/>
      <point x="1059" y="477"/>
    </contour>
    <contour>
      <point x="1059" y="169" type="curve" smooth="yes"/>
      <point x="1059" y="141"/>
      <point x="1073" y="127"/>
      <point x="1101" y="127" type="curve" smooth="yes"/>
      <point x="1130" y="127"/>
      <point x="1144" y="141"/>
      <point x="1144" y="169" type="curve" smooth="yes"/>
      <point x="1144" y="198"/>
      <point x="1130" y="212"/>
      <point x="1101" y="212" type="curve" smooth="yes"/>
      <point x="1073" y="212"/>
      <point x="1059" y="198"/>
    </contour>
    <contour>
      <point x="1162" y="552" type="curve" smooth="yes"/>
      <point x="1162" y="523"/>
      <point x="1176" y="509"/>
      <point x="1205" y="509" type="curve" smooth="yes"/>
      <point x="1233" y="509"/>
      <point x="1248" y="523"/>
      <point x="1248" y="552" type="curve" smooth="yes"/>
      <point x="1248" y="580"/>
      <point x="1233" y="594"/>
      <point x="1205" y="594" type="curve" smooth="yes"/>
      <point x="1176" y="594"/>
      <point x="1162" y="580"/>
    </contour>
    <contour>
      <point x="1441" y="552" type="curve" smooth="yes"/>
      <point x="1441" y="523"/>
      <point x="1455" y="509"/>
      <point x="1483" y="509" type="curve" smooth="yes"/>
      <point x="1513" y="509"/>
      <point x="1527" y="523"/>
      <point x="1527" y="552" type="curve" smooth="yes"/>
      <point x="1527" y="580"/>
      <point x="1513" y="594"/>
      <point x="1483" y="594" type="curve" smooth="yes"/>
      <point x="1455" y="594"/>
      <point x="1441" y="580"/>
    </contour>
    <contour>
      <point x="1162" y="66" type="curve" smooth="yes"/>
      <point x="1162" y="38"/>
      <point x="1176" y="24"/>
      <point x="1205" y="24" type="curve" smooth="yes"/>
      <point x="1233" y="24"/>
      <point x="1248" y="38"/>
      <point x="1248" y="66" type="curve" smooth="yes"/>
      <point x="1248" y="95"/>
      <point x="1233" y="109"/>
      <point x="1205" y="109" type="curve" smooth="yes"/>
      <point x="1176" y="109"/>
      <point x="1162" y="95"/>
    </contour>
    <contour>
      <point x="1441" y="66" type="curve" smooth="yes"/>
      <point x="1441" y="38"/>
      <point x="1455" y="24"/>
      <point x="1483" y="24" type="curve" smooth="yes"/>
      <point x="1513" y="24"/>
      <point x="1527" y="38"/>
      <point x="1527" y="66" type="curve" smooth="yes"/>
      <point x="1527" y="95"/>
      <point x="1513" y="109"/>
      <point x="1483" y="109" type="curve" smooth="yes"/>
      <point x="1455" y="109"/>
      <point x="1441" y="95"/>
    </contour>
  </outline>
</glyph>
<glyph name="t.Virama" format="2">
  <unicode hex="0BCD"/>
  <outline>
    <contour>
      <point x="-360" y="615" type="curve" smooth="yes"/>
      <point x="-315" y="615"/>
      <point x="-284" y="649"/>
      <point x="-284" y="691" type="curve" smooth="yes"/>
      <point x="-284" y="733"/>
      <point x="-315" y="767"/>
      <point x="-360" y="767" type="curve" smooth="yes"/>
      <point x="-405" y="767"/>
      <point x="-436" y="733"/>
      <point x="-436" y="691" type="curve" smooth="yes"/>
      <point x="-436" y="649"/>
      <point x="-405" y="615"/>
    </contour>
  </outline>
</glyph>
<glyph name="t.Om" format="2">
  <advance width="981"/>
  <unicode hex="0BD0"/>
  <outline>
    <contour>
      <point x="453" y="-413" type="curve" smooth="yes"/>
      <point x="670" y="-413"/>
      <point x="702" y="-326"/>
      <point x="732" y="-239" type="curve" smooth="yes"/>
      <point x="751" y="-184"/>
      <point x="765" y="-158"/>
      <point x="821" y="-149" type="curve"/>
      <point x="821" y="-99" type="line"/>
      <point x="810" y="-99" type="line" smooth="yes"/>
      <point x="629" y="-99"/>
      <point x="556" y="-9"/>
      <point x="556" y="79" type="curve" smooth="yes"/>
      <point x="556" y="126"/>
      <point x="576" y="174"/>
      <point x="615" y="211" type="curve"/>
      <point x="620" y="208" type="line"/>
      <point x="612" y="189"/>
      <point x="606" y="160"/>
      <point x="606" y="134" type="curve" smooth="yes"/>
      <point x="606" y="56"/>
      <point x="654" y="-9"/>
      <point x="745" y="-9" type="curve" smooth="yes"/>
      <point x="848" y="-9"/>
      <point x="911" y="76"/>
      <point x="911" y="199" type="curve" smooth="yes"/>
      <point x="911" y="401"/>
      <point x="739" y="534"/>
      <point x="478" y="534" type="curve" smooth="yes"/>
      <point x="231" y="534"/>
      <point x="65" y="414"/>
      <point x="65" y="235" type="curve" smooth="yes"/>
      <point x="65" y="113"/>
      <point x="142" y="25"/>
      <point x="265" y="25" type="curve" smooth="yes"/>
      <point x="372" y="25"/>
      <point x="439" y="91"/>
      <point x="439" y="188" type="curve" smooth="yes"/>
      <point x="439" y="266"/>
      <point x="396" y="326"/>
      <point x="316" y="326" type="curve" smooth="yes"/>
      <point x="241" y="326"/>
      <point x="182" y="272"/>
      <point x="182" y="180" type="curve" smooth="yes"/>
      <point x="182" y="156"/>
      <point x="186" y="120"/>
      <point x="200" y="95" type="curve"/>
      <point x="182" y="77" type="line"/>
      <point x="258" y="67" type="line"/>
      <point x="236" y="100"/>
      <point x="231" y="144"/>
      <point x="231" y="170" type="curve" smooth="yes"/>
      <point x="231" y="235"/>
      <point x="264" y="266"/>
      <point x="301" y="266" type="curve" smooth="yes"/>
      <point x="336" y="266"/>
      <point x="354" y="239"/>
      <point x="354" y="197" type="curve" smooth="yes"/>
      <point x="354" y="129"/>
      <point x="310" y="85"/>
      <point x="247" y="85" type="curve"/>
      <point x="212" y="88" type="line"/>
      <point x="148" y="107"/>
      <point x="123" y="170"/>
      <point x="123" y="234" type="curve" smooth="yes"/>
      <point x="123" y="393"/>
      <point x="281" y="480"/>
      <point x="471" y="480" type="curve" smooth="yes"/>
      <point x="682" y="480"/>
      <point x="822" y="372"/>
      <point x="822" y="191" type="curve" smooth="yes"/>
      <point x="822" y="102"/>
      <point x="788" y="55"/>
      <point x="734" y="55" type="curve" smooth="yes"/>
      <point x="685" y="55"/>
      <point x="656" y="92"/>
      <point x="656" y="153" type="curve" smooth="yes"/>
      <point x="656" y="188"/>
      <point x="666" y="227"/>
      <point x="681" y="263" type="curve"/>
      <point x="639" y="287" type="line"/>
      <point x="549" y="233"/>
      <point x="504" y="153"/>
      <point x="504" y="76" type="curve" smooth="yes"/>
      <point x="504" y="-18"/>
      <point x="572" y="-112"/>
      <point x="721" y="-136" type="curve"/>
      <point x="721" y="-139" type="line"/>
      <point x="689" y="-161"/>
      <point x="673" y="-195"/>
      <point x="658" y="-240" type="curve" smooth="yes"/>
      <point x="638" y="-300"/>
      <point x="612" y="-365"/>
      <point x="439" y="-365" type="curve" smooth="yes"/>
      <point x="290" y="-365"/>
      <point x="201" y="-306"/>
      <point x="201" y="-214" type="curve" smooth="yes"/>
      <point x="201" y="-168"/>
      <point x="224" y="-152"/>
      <point x="248" y="-152" type="curve" smooth="yes"/>
      <point x="266" y="-152"/>
      <point x="285" y="-160"/>
      <point x="285" y="-202" type="curve" smooth="yes"/>
      <point x="285" y="-278" type="line"/>
      <point x="574" y="-278" type="line"/>
      <point x="574" y="-175" type="line" smooth="yes"/>
      <point x="574" y="-113"/>
      <point x="538" y="-87"/>
      <point x="486" y="-87" type="curve" smooth="yes"/>
      <point x="434" y="-87"/>
      <point x="396" y="-113"/>
      <point x="396" y="-172" type="curve" smooth="yes"/>
      <point x="396" y="-255" type="line"/>
      <point x="444" y="-255" type="line"/>
      <point x="444" y="-173" type="line" smooth="yes"/>
      <point x="444" y="-145"/>
      <point x="460" y="-130"/>
      <point x="485" y="-130" type="curve" smooth="yes"/>
      <point x="510" y="-130"/>
      <point x="526" y="-145"/>
      <point x="526" y="-173" type="curve" smooth="yes"/>
      <point x="526" y="-235" type="line"/>
      <point x="333" y="-235" type="line"/>
      <point x="333" y="-203" type="line" smooth="yes"/>
      <point x="333" y="-133"/>
      <point x="291" y="-109"/>
      <point x="249" y="-109" type="curve" smooth="yes"/>
      <point x="202" y="-109"/>
      <point x="153" y="-139"/>
      <point x="153" y="-215" type="curve" smooth="yes"/>
      <point x="153" y="-324"/>
      <point x="249" y="-413"/>
    </contour>
    <contour>
      <point x="432" y="-51" type="curve" smooth="yes"/>
      <point x="455" y="-51"/>
      <point x="472" y="-33"/>
      <point x="472" y="-11" type="curve" smooth="yes"/>
      <point x="472" y="11"/>
      <point x="455" y="29"/>
      <point x="432" y="29" type="curve" smooth="yes"/>
      <point x="409" y="29"/>
      <point x="392" y="11"/>
      <point x="392" y="-11" type="curve" smooth="yes"/>
      <point x="392" y="-33"/>
      <point x="409" y="-51"/>
    </contour>
  </outline>
  <guideline angle="0" x="0" y="0"/>
</glyph>
<glyph name="t.Zero" format="2">
  <advance width="696"/>
  <unicode hex="0BE6"/>
  <outline>
    <contour>
      <point x="342" y="-15" type="curve" smooth="yes"/>
      <point x="509" y="-15"/>
      <point x="626" y="131"/>
      <point x="626" y="347" type="curve" smooth="yes"/>
      <point x="626" y="561"/>
      <point x="513" y="700"/>
      <point x="352" y="700" type="curve" smooth="yes"/>
      <point x="200" y="700"/>
      <point x="70" y="575"/>
      <point x="70" y="347" type="curve" smooth="yes"/>
      <point x="70" y="153"/>
      <point x="167" y="-15"/>
    </contour>
    <contour>
      <point x="328" y="58" type="curve" smooth="yes"/>
      <point x="194" y="58"/>
      <point x="129" y="196"/>
      <point x="129" y="341" type="curve" smooth="yes"/>
      <point x="129" y="517"/>
      <point x="224" y="632"/>
      <point x="338" y="632" type="curve" smooth="yes"/>
      <point x="448" y="632"/>
      <point x="521" y="524"/>
      <point x="521" y="353" type="curve" smooth="yes"/>
      <point x="521" y="204"/>
      <point x="467" y="58"/>
    </contour>
  </outline>
</glyph>
<glyph name="t.Two" format="2">
  <advance width="1008"/>
  <unicode hex="0BE8"/>
  <outline>
    <contour>
      <point x="362" y="137" type="line"/>
      <point x="530" y="137"/>
      <point x="633" y="207"/>
      <point x="633" y="329" type="curve" smooth="yes"/>
      <point x="633" y="443"/>
      <point x="541" y="534"/>
      <point x="380" y="534" type="curve" smooth="yes"/>
      <point x="234" y="534"/>
      <point x="117" y="461"/>
      <point x="117" y="331" type="curve" smooth="yes"/>
      <point x="117" y="261"/>
      <point x="152" y="204"/>
      <point x="198" y="185" type="curve"/>
    </contour>
    <contour>
      <point x="986" y="0" type="line"/>
      <point x="986" y="49" type="line"/>
      <point x="201" y="49" type="line" smooth="yes"/>
      <point x="165" y="49"/>
      <point x="140" y="63"/>
      <point x="140" y="93" type="curve" smooth="yes"/>
      <point x="140" y="123"/>
      <point x="162" y="137"/>
      <point x="196" y="137" type="curve" smooth="yes"/>
      <point x="362" y="137" type="line"/>
      <point x="186" y="216" type="line"/>
      <point x="186" y="188" type="line"/>
      <point x="107" y="186"/>
      <point x="65" y="152"/>
      <point x="65" y="93" type="curve" smooth="yes"/>
      <point x="65" y="35"/>
      <point x="107" y="0"/>
      <point x="179" y="0" type="curve" smooth="yes"/>
    </contour>
    <contour>
      <point x="352" y="183" type="curve" smooth="yes"/>
      <point x="241" y="183"/>
      <point x="176" y="241"/>
      <point x="176" y="328" type="curve" smooth="yes"/>
      <point x="176" y="416"/>
      <point x="243" y="480"/>
      <point x="358" y="480" type="curve" smooth="yes"/>
      <point x="464" y="480"/>
      <point x="528" y="424"/>
      <point x="528" y="334" type="curve" smooth="yes"/>
      <point x="528" y="240"/>
      <point x="461" y="183"/>
    </contour>
  </outline>
</glyph>
<glyph name="t.Three" format="2">
  <advance width="954"/>
  <unicode hex="0BE9"/>
  <outline>
    <contour>
      <point x="169" y="0" type="line"/>
      <point x="169" y="473" type="line"/>
      <point x="666" y="473" type="line"/>
      <point x="666" y="522" type="line"/>
      <point x="105" y="522" type="line"/>
      <point x="105" y="0" type="line"/>
    </contour>
    <contour>
      <point x="932" y="0" type="line"/>
      <point x="932" y="49" type="line"/>
      <point x="324" y="49" type="line"/>
      <point x="324" y="0" type="line"/>
    </contour>
    <contour>
      <point x="429" y="113" type="line"/>
      <point x="429" y="493" type="line"/>
      <point x="326" y="493" type="line"/>
      <point x="326" y="113" type="line"/>
    </contour>
    <contour>
      <point x="666" y="29" type="line"/>
      <point x="656" y="51" type="line"/>
      <point x="680" y="88"/>
      <point x="697" y="139"/>
      <point x="697" y="186" type="curve" smooth="yes"/>
      <point x="697" y="280"/>
      <point x="633" y="348"/>
      <point x="540" y="348" type="curve" smooth="yes"/>
      <point x="492" y="348"/>
      <point x="452" y="330"/>
      <point x="431" y="303" type="curve"/>
      <point x="405" y="303" type="line"/>
      <point x="429" y="204" type="line"/>
      <point x="429" y="260"/>
      <point x="464" y="292"/>
      <point x="512" y="292" type="curve" smooth="yes"/>
      <point x="572" y="292"/>
      <point x="592" y="241"/>
      <point x="592" y="187" type="curve" smooth="yes"/>
      <point x="592" y="137"/>
      <point x="574" y="81"/>
      <point x="535" y="29" type="curve"/>
    </contour>
  </outline>
</glyph>
<glyph name="t.Five" format="2">
  <advance width="1153"/>
  <unicode hex="0BEB"/>
  <outline>
    <contour>
      <point x="600" y="-339" type="curve" smooth="yes"/>
      <point x="876" y="-339"/>
      <point x="1058" y="-139"/>
      <point x="1058" y="106" type="curve" smooth="yes"/>
      <point x="1058" y="273"/>
      <point x="969" y="335"/>
      <point x="876" y="335" type="curve" smooth="yes"/>
      <point x="825" y="335"/>
      <point x="773" y="318"/>
      <point x="744" y="262" type="curve"/>
      <point x="764" y="196" type="line"/>
      <point x="764" y="248"/>
      <point x="797" y="279"/>
      <point x="847" y="279" type="curve" smooth="yes"/>
      <point x="910" y="279"/>
      <point x="953" y="230"/>
      <point x="953" y="102" type="curve" smooth="yes"/>
      <point x="953" y="-142"/>
      <point x="815" y="-283"/>
      <point x="598" y="-283" type="curve" smooth="yes"/>
      <point x="338" y="-283"/>
      <point x="129" y="-78"/>
      <point x="129" y="240" type="curve" smooth="yes"/>
      <point x="129" y="539"/>
      <point x="313" y="776"/>
      <point x="618" y="776" type="curve" smooth="yes"/>
      <point x="839" y="776"/>
      <point x="1020" y="652"/>
      <point x="1048" y="425" type="curve"/>
      <point x="1093" y="425" type="line"/>
      <point x="1063" y="706"/>
      <point x="881" y="858"/>
      <point x="620" y="858" type="curve" smooth="yes"/>
      <point x="272" y="858"/>
      <point x="70" y="583"/>
      <point x="70" y="248" type="curve" smooth="yes"/>
      <point x="70" y="-121"/>
      <point x="315" y="-339"/>
    </contour>
    <contour>
      <point x="498" y="0" type="line"/>
      <point x="498" y="473" type="line"/>
      <point x="916" y="473" type="line"/>
      <point x="916" y="522" type="line"/>
      <point x="434" y="522" type="line"/>
      <point x="434" y="0" type="line"/>
    </contour>
    <contour>
      <point x="764" y="0" type="line"/>
      <point x="764" y="493" type="line"/>
      <point x="661" y="493" type="line"/>
      <point x="661" y="0" type="line"/>
    </contour>
  </outline>
</glyph>
<glyph name="t.Eight" format="2">
  <advance width="1194"/>
  <unicode hex="0BEE"/>
  <outline>
    <contour>
      <point x="389" y="-75" type="curve" smooth="yes"/>
      <point x="575" y="-75"/>
      <point x="741" y="3"/>
      <point x="807" y="146" type="curve" smooth="yes"/>
      <point x="827" y="189"/>
      <point x="842" y="242"/>
      <point x="842" y="300" type="curve" smooth="yes"/>
      <point x="842" y="426"/>
      <point x="769" y="534"/>
      <point x="610" y="534" type="curve" smooth="yes"/>
      <point x="466" y="534"/>
      <point x="377" y="447"/>
      <point x="377" y="324" type="curve" smooth="yes"/>
      <point x="377" y="271"/>
      <point x="393" y="213"/>
      <point x="430" y="172" type="curve"/>
      <point x="412" y="146" type="line"/>
      <point x="517" y="150" type="line"/>
      <point x="462" y="195"/>
      <point x="436" y="261"/>
      <point x="436" y="320" type="curve" smooth="yes"/>
      <point x="436" y="409"/>
      <point x="494" y="476"/>
      <point x="593" y="476" type="curve" smooth="yes"/>
      <point x="690" y="476"/>
      <point x="737" y="411"/>
      <point x="737" y="311" type="curve" smooth="yes"/>
      <point x="737" y="249"/>
      <point x="722" y="198"/>
      <point x="704" y="156" type="curve" smooth="yes"/>
      <point x="663" y="60"/>
      <point x="555" y="-28"/>
      <point x="382" y="-28" type="curve" smooth="yes"/>
      <point x="197" y="-28"/>
      <point x="113" y="69"/>
      <point x="113" y="106" type="curve" smooth="yes"/>
      <point x="113" y="116"/>
      <point x="119" y="121"/>
      <point x="136" y="121" type="curve"/>
      <point x="1008" y="121" type="line"/>
      <point x="1008" y="170" type="line"/>
      <point x="98" y="170" type="line" smooth="yes"/>
      <point x="58" y="170"/>
      <point x="40" y="155"/>
      <point x="40" y="122" type="curve" smooth="yes"/>
      <point x="40" y="43"/>
      <point x="156" y="-75"/>
    </contour>
    <contour>
      <point x="1089" y="-188" type="line"/>
      <point x="1089" y="522" type="line"/>
      <point x="988" y="522" type="line"/>
      <point x="988" y="-188" type="line"/>
    </contour>
  </outline>
</glyph>
<glyph name="t.Nine" format="2">
  <advance width="1120"/>
  <unicode hex="0BEF"/>
  <outline>
    <contour>
      <point x="307" y="-15" type="curve" smooth="yes"/>
      <point x="452" y="-15"/>
      <point x="523" y="30"/>
      <point x="523" y="135" type="curve" smooth="yes"/>
      <point x="523" y="493" type="line"/>
      <point x="420" y="493" type="line"/>
      <point x="420" y="137" type="line" smooth="yes"/>
      <point x="420" y="68"/>
      <point x="385" y="39"/>
      <point x="301" y="39" type="curve" smooth="yes"/>
      <point x="194" y="39"/>
      <point x="109" y="96"/>
      <point x="109" y="181" type="curve" smooth="yes"/>
      <point x="109" y="221"/>
      <point x="126" y="242"/>
      <point x="192" y="242" type="curve" smooth="yes"/>
      <point x="682" y="242" type="line" smooth="yes"/>
      <point x="752" y="242"/>
      <point x="786" y="190"/>
      <point x="786" y="129" type="curve" smooth="yes"/>
      <point x="786" y="77"/>
      <point x="761" y="43"/>
      <point x="723" y="43" type="curve" smooth="yes"/>
      <point x="686" y="43"/>
      <point x="661" y="73"/>
      <point x="661" y="122" type="curve" smooth="yes"/>
      <point x="661" y="177"/>
      <point x="692" y="219"/>
      <point x="742" y="247" type="curve"/>
      <point x="643" y="266" type="line"/>
      <point x="657" y="240" type="line"/>
      <point x="624" y="207"/>
      <point x="606" y="163"/>
      <point x="606" y="118" type="curve" smooth="yes"/>
      <point x="606" y="38"/>
      <point x="661" y="-8"/>
      <point x="733" y="-8" type="curve" smooth="yes"/>
      <point x="822" y="-8"/>
      <point x="878" y="59"/>
      <point x="878" y="136" type="curve" smooth="yes"/>
      <point x="878" y="245"/>
      <point x="771" y="291"/>
      <point x="648" y="291" type="curve" smooth="yes"/>
      <point x="180" y="291" type="line" smooth="yes"/>
      <point x="89" y="291"/>
      <point x="50" y="246"/>
      <point x="50" y="178" type="curve" smooth="yes"/>
      <point x="50" y="64"/>
      <point x="162" y="-15"/>
    </contour>
    <contour>
      <point x="269" y="271" type="line"/>
      <point x="269" y="473" type="line"/>
      <point x="697" y="473" type="line"/>
      <point x="697" y="522" type="line"/>
      <point x="206" y="522" type="line"/>
      <point x="206" y="271" type="line"/>
    </contour>
    <contour>
      <point x="979" y="-15" type="line"/>
      <point x="1047" y="43"/>
      <point x="1065" y="100"/>
      <point x="1065" y="146" type="curve" smooth="yes"/>
      <point x="1065" y="252"/>
      <point x="972" y="320"/>
      <point x="851" y="320" type="curve" smooth="yes"/>
      <point x="792" y="320"/>
      <point x="742" y="304"/>
      <point x="702" y="279" type="curve"/>
      <point x="780" y="240" type="line"/>
      <point x="792" y="266" type="line"/>
      <point x="811" y="270"/>
      <point x="832" y="272"/>
      <point x="848" y="272" type="curve" smooth="yes"/>
      <point x="920" y="272"/>
      <point x="971" y="229"/>
      <point x="971" y="133" type="curve" smooth="yes"/>
      <point x="971" y="93"/>
      <point x="962" y="51"/>
      <point x="937" y="10" type="curve"/>
    </contour>
  </outline>
</glyph>
<glyph name="t.Ten" format="2">
  <advance width="899"/>
  <unicode hex="0BF0"/>
  <outline>
    <contour>
      <point x="256" y="-15" type="curve" smooth="yes"/>
      <point x="329" y="-15"/>
      <point x="386" y="18"/>
      <point x="404" y="86" type="curve"/>
      <point x="406" y="86" type="line"/>
      <point x="429" y="23"/>
      <point x="484" y="-15"/>
      <point x="565" y="-15" type="curve" smooth="yes"/>
      <point x="742" y="-15"/>
      <point x="824" y="169"/>
      <point x="824" y="386" type="curve" smooth="yes"/>
      <point x="824" y="702"/>
      <point x="652" y="838"/>
      <point x="441" y="838" type="curve" smooth="yes"/>
      <point x="406" y="838"/>
      <point x="371" y="834"/>
      <point x="333" y="827" type="curve"/>
      <point x="348" y="745" type="line"/>
      <point x="389" y="752"/>
      <point x="424" y="756"/>
      <point x="455" y="756" type="curve" smooth="yes"/>
      <point x="646" y="756"/>
      <point x="765" y="612"/>
      <point x="765" y="371" type="curve" smooth="yes"/>
      <point x="765" y="179"/>
      <point x="689" y="41"/>
      <point x="567" y="41" type="curve" smooth="yes"/>
      <point x="501" y="41"/>
      <point x="460" y="82"/>
      <point x="460" y="180" type="curve" smooth="yes"/>
      <point x="460" y="522" type="line"/>
      <point x="357" y="522" type="line"/>
      <point x="357" y="138" type="line" smooth="yes"/>
      <point x="357" y="74"/>
      <point x="324" y="43"/>
      <point x="275" y="43" type="curve" smooth="yes"/>
      <point x="233" y="43"/>
      <point x="208" y="66"/>
      <point x="208" y="131" type="curve" smooth="yes"/>
      <point x="208" y="522" type="line"/>
      <point x="105" y="522" type="line"/>
      <point x="105" y="130" type="line" smooth="yes"/>
      <point x="105" y="32"/>
      <point x="168" y="-15"/>
    </contour>
  </outline>
</glyph>
<glyph name="t.OneHundred" format="2">
  <advance width="900"/>
  <unicode hex="0BF1"/>
  <outline>
    <contour>
      <point x="392" y="0" type="line"/>
      <point x="392" y="473" type="line"/>
      <point x="870" y="473" type="line"/>
      <point x="870" y="522" type="line"/>
      <point x="339" y="522" type="line"/>
      <point x="339" y="436" type="line"/>
      <point x="325" y="346" type="line"/>
      <point x="325" y="0" type="line"/>
    </contour>
    <contour>
      <point x="169" y="0" type="line"/>
      <point x="169" y="396" type="line" smooth="yes"/>
      <point x="169" y="452"/>
      <point x="195" y="484"/>
      <point x="238" y="484" type="curve" smooth="yes"/>
      <point x="287" y="484"/>
      <point x="325" y="444"/>
      <point x="325" y="346" type="curve"/>
      <point x="365" y="482" type="line"/>
      <point x="337" y="482" type="line"/>
      <point x="318" y="515"/>
      <point x="284" y="534"/>
      <point x="238" y="534" type="curve" smooth="yes"/>
      <point x="167" y="534"/>
      <point x="105" y="493"/>
      <point x="105" y="394" type="curve" smooth="yes"/>
      <point x="105" y="0" type="line"/>
    </contour>
    <contour>
      <point x="710" y="0" type="line"/>
      <point x="710" y="493" type="line"/>
      <point x="607" y="493" type="line"/>
      <point x="607" y="0" type="line"/>
    </contour>
  </outline>
</glyph>
<glyph name="t.OneThousand" format="2">
  <advance width="1094"/>
  <unicode hex="0BF2"/>
  <outline>
    <contour>
      <point x="307" y="-15" type="curve" smooth="yes"/>
      <point x="452" y="-15"/>
      <point x="523" y="30"/>
      <point x="523" y="135" type="curve" smooth="yes"/>
      <point x="523" y="493" type="line"/>
      <point x="420" y="493" type="line"/>
      <point x="420" y="137" type="line" smooth="yes"/>
      <point x="420" y="68"/>
      <point x="385" y="39"/>
      <point x="301" y="39" type="curve" smooth="yes"/>
      <point x="194" y="39"/>
      <point x="109" y="96"/>
      <point x="109" y="181" type="curve" smooth="yes"/>
      <point x="109" y="221"/>
      <point x="126" y="242"/>
      <point x="192" y="242" type="curve" smooth="yes"/>
      <point x="986" y="242" type="line"/>
      <point x="986" y="291" type="line"/>
      <point x="180" y="291" type="line" smooth="yes"/>
      <point x="89" y="291"/>
      <point x="50" y="246"/>
      <point x="50" y="178" type="curve" smooth="yes"/>
      <point x="50" y="64"/>
      <point x="162" y="-15"/>
    </contour>
    <contour>
      <point x="548" y="-252" type="curve" smooth="yes"/>
      <point x="575" y="-252"/>
      <point x="593" y="-234"/>
      <point x="593" y="-186" type="curve" smooth="yes"/>
      <point x="593" y="-150"/>
      <point x="603" y="-131"/>
      <point x="647" y="-131" type="curve" smooth="yes"/>
      <point x="814" y="-131" type="line" smooth="yes"/>
      <point x="956" y="-131"/>
      <point x="1034" y="-67"/>
      <point x="1034" y="33" type="curve" smooth="yes"/>
      <point x="1034" y="124"/>
      <point x="972" y="168"/>
      <point x="872" y="168" type="curve" smooth="yes"/>
      <point x="667" y="168" type="line" smooth="yes"/>
      <point x="598" y="168"/>
      <point x="575" y="133"/>
      <point x="575" y="88" type="curve" smooth="yes"/>
      <point x="575" y="26"/>
      <point x="619" y="-27"/>
      <point x="720" y="-27" type="curve" smooth="yes"/>
      <point x="797" y="-27"/>
      <point x="854" y="3"/>
      <point x="854" y="78" type="curve" smooth="yes"/>
      <point x="854" y="262" type="line"/>
      <point x="769" y="262" type="line"/>
      <point x="769" y="80" type="line" smooth="yes"/>
      <point x="769" y="38"/>
      <point x="755" y="19"/>
      <point x="711" y="19" type="curve" smooth="yes"/>
      <point x="659" y="19"/>
      <point x="627" y="48"/>
      <point x="627" y="85" type="curve" smooth="yes"/>
      <point x="627" y="106"/>
      <point x="636" y="121"/>
      <point x="667" y="121" type="curve" smooth="yes"/>
      <point x="862" y="121" type="line" smooth="yes"/>
      <point x="930" y="121"/>
      <point x="961" y="97"/>
      <point x="961" y="29" type="curve" smooth="yes"/>
      <point x="961" y="-41"/>
      <point x="928" y="-83"/>
      <point x="803" y="-83" type="curve" smooth="yes"/>
      <point x="648" y="-83" type="line" smooth="yes"/>
      <point x="555" y="-83"/>
      <point x="496" y="-121"/>
      <point x="496" y="-188" type="curve" smooth="yes"/>
      <point x="496" y="-223"/>
      <point x="512" y="-252"/>
    </contour>
    <contour>
      <point x="269" y="271" type="line"/>
      <point x="269" y="473" type="line"/>
      <point x="727" y="473" type="line"/>
      <point x="727" y="522" type="line"/>
      <point x="206" y="522" type="line"/>
      <point x="206" y="271" type="line"/>
    </contour>
  </outline>
</glyph>
<glyph name="t.Month" format="2">
  <advance width="1149"/>
  <unicode hex="0BF4"/>
  <outline>
    <contour>
      <point x="779" y="0" type="line"/>
      <point x="861" y="0"/>
      <point x="901" y="73"/>
      <point x="901" y="207" type="curve" smooth="yes"/>
      <point x="901" y="339"/>
      <point x="849" y="458"/>
      <point x="743" y="511" type="curve" smooth="yes"/>
      <point x="710" y="527"/>
      <point x="644" y="534"/>
      <point x="630" y="534" type="curve" smooth="yes"/>
      <point x="516" y="534"/>
      <point x="478" y="465"/>
      <point x="478" y="363" type="curve" smooth="yes"/>
      <point x="478" y="29" type="line"/>
      <point x="581" y="29" type="line"/>
      <point x="581" y="350" type="line" smooth="yes"/>
      <point x="581" y="436"/>
      <point x="586" y="480"/>
      <point x="652" y="480" type="curve" smooth="yes"/>
      <point x="754" y="480"/>
      <point x="842" y="370"/>
      <point x="842" y="211" type="curve" smooth="yes"/>
      <point x="842" y="140"/>
      <point x="833" y="49"/>
      <point x="768" y="49" type="curve" smooth="yes"/>
      <point x="208" y="49" type="line"/>
      <point x="208" y="522" type="line"/>
      <point x="105" y="522" type="line"/>
      <point x="105" y="0" type="line"/>
    </contour>
    <contour>
      <point x="743" y="511" type="line"/>
      <point x="706" y="528"/>
      <point x="653" y="578"/>
      <point x="653" y="657" type="curve" smooth="yes"/>
      <point x="653" y="729"/>
      <point x="705" y="778"/>
      <point x="791" y="778" type="curve" smooth="yes"/>
      <point x="852" y="778"/>
      <point x="894" y="740"/>
      <point x="894" y="684" type="curve" smooth="yes"/>
      <point x="894" y="648"/>
      <point x="877" y="623"/>
      <point x="850" y="623" type="curve" smooth="yes"/>
      <point x="824" y="623"/>
      <point x="796" y="645"/>
      <point x="796" y="690" type="curve" smooth="yes"/>
      <point x="796" y="767"/>
      <point x="878" y="819"/>
      <point x="947" y="819" type="curve" smooth="yes"/>
      <point x="1007" y="819"/>
      <point x="1055" y="782"/>
      <point x="1055" y="702" type="curve" smooth="yes"/>
      <point x="1055" y="582" type="line"/>
      <point x="1151" y="582" type="line"/>
      <point x="1151" y="699" type="line" smooth="yes"/>
      <point x="1151" y="761"/>
      <point x="1176" y="785"/>
      <point x="1211" y="785" type="curve" smooth="yes"/>
      <point x="1237" y="785"/>
      <point x="1263" y="770"/>
      <point x="1275" y="763" type="curve"/>
      <point x="1308" y="829" type="line"/>
      <point x="1278" y="848"/>
      <point x="1253" y="857"/>
      <point x="1223" y="857" type="curve" smooth="yes"/>
      <point x="1175" y="857"/>
      <point x="1140" y="827"/>
      <point x="1122" y="778" type="curve"/>
      <point x="1118" y="778" type="line"/>
      <point x="1091" y="833"/>
      <point x="1030" y="864"/>
      <point x="958" y="864" type="curve" smooth="yes"/>
      <point x="846" y="864"/>
      <point x="748" y="782"/>
      <point x="748" y="688" type="curve" smooth="yes"/>
      <point x="748" y="618"/>
      <point x="798" y="575"/>
      <point x="860" y="575" type="curve" smooth="yes"/>
      <point x="923" y="575"/>
      <point x="974" y="620"/>
      <point x="974" y="689" type="curve" smooth="yes"/>
      <point x="974" y="776"/>
      <point x="891" y="825"/>
      <point x="791" y="825" type="curve" smooth="yes"/>
      <point x="674" y="825"/>
      <point x="591" y="756"/>
      <point x="591" y="659" type="curve" smooth="yes"/>
      <point x="591" y="610"/>
      <point x="613" y="567"/>
      <point x="645" y="535" type="curve"/>
      <point x="633" y="510" type="line"/>
    </contour>
  </outline>
</glyph>
<glyph name="t.Year" format="2">
  <advance width="2172"/>
  <unicode hex="0BF5"/>
  <outline>
    <contour>
      <point x="877" y="-339" type="curve" smooth="yes"/>
      <point x="1345" y="-339"/>
      <point x="1618" y="-130"/>
      <point x="1618" y="122" type="curve" smooth="yes"/>
      <point x="1618" y="249"/>
      <point x="1553" y="335"/>
      <point x="1447" y="335" type="curve" smooth="yes"/>
      <point x="1400" y="335"/>
      <point x="1363" y="318"/>
      <point x="1340" y="290" type="curve"/>
      <point x="1316" y="290" type="line"/>
      <point x="1338" y="187" type="line"/>
      <point x="1338" y="249"/>
      <point x="1371" y="279"/>
      <point x="1419" y="279" type="curve" smooth="yes"/>
      <point x="1490" y="279"/>
      <point x="1513" y="207"/>
      <point x="1513" y="122" type="curve" smooth="yes"/>
      <point x="1513" y="-114"/>
      <point x="1289" y="-283"/>
      <point x="872" y="-283" type="curve" smooth="yes"/>
      <point x="435" y="-283"/>
      <point x="129" y="-95"/>
      <point x="129" y="237" type="curve" smooth="yes"/>
      <point x="129" y="654"/>
      <point x="588" y="793"/>
      <point x="968" y="793" type="curve" smooth="yes"/>
      <point x="1270" y="793"/>
      <point x="1727" y="705"/>
      <point x="1727" y="356" type="curve" smooth="yes"/>
      <point x="1727" y="312"/>
      <point x="1720" y="218"/>
      <point x="1720" y="172" type="curve" smooth="yes"/>
      <point x="1720" y="16"/>
      <point x="1806" y="-15"/>
      <point x="1883" y="-15" type="curve" smooth="yes"/>
      <point x="2047" y="-15"/>
      <point x="2092" y="171"/>
      <point x="2092" y="278" type="curve" smooth="yes"/>
      <point x="2092" y="441"/>
      <point x="2022" y="548"/>
      <point x="1950" y="548" type="curve" smooth="yes"/>
      <point x="1919" y="548"/>
      <point x="1903" y="527"/>
      <point x="1903" y="502" type="curve" smooth="yes"/>
      <point x="1903" y="466"/>
      <point x="1935" y="455"/>
      <point x="1967" y="432" type="curve" smooth="yes"/>
      <point x="2000" y="408"/>
      <point x="2035" y="371"/>
      <point x="2035" y="272" type="curve" smooth="yes"/>
      <point x="2035" y="157"/>
      <point x="1989" y="44"/>
      <point x="1897" y="44" type="curve" smooth="yes"/>
      <point x="1856" y="44"/>
      <point x="1814" y="67"/>
      <point x="1814" y="164" type="curve" smooth="yes"/>
      <point x="1814" y="200"/>
      <point x="1820" y="291"/>
      <point x="1820" y="334" type="curve" smooth="yes"/>
      <point x="1820" y="674"/>
      <point x="1463" y="858"/>
      <point x="986" y="858" type="curve" smooth="yes"/>
      <point x="523" y="858"/>
      <point x="68" y="685"/>
      <point x="68" y="240" type="curve" smooth="yes"/>
      <point x="68" y="-142"/>
      <point x="427" y="-339"/>
    </contour>
    <contour>
      <point x="523" y="-15" type="curve" smooth="yes"/>
      <point x="645" y="-15"/>
      <point x="712" y="74"/>
      <point x="712" y="170" type="curve" smooth="yes"/>
      <point x="712" y="257"/>
      <point x="657" y="319"/>
      <point x="575" y="319" type="curve" smooth="yes"/>
      <point x="491" y="319"/>
      <point x="431" y="257"/>
      <point x="431" y="162" type="curve" smooth="yes"/>
      <point x="431" y="129"/>
      <point x="439" y="96"/>
      <point x="453" y="68" type="curve"/>
      <point x="432" y="47" type="line"/>
      <point x="510" y="41" type="line"/>
      <point x="493" y="68"/>
      <point x="480" y="116"/>
      <point x="480" y="152" type="curve" smooth="yes"/>
      <point x="480" y="216"/>
      <point x="514" y="252"/>
      <point x="556" y="252" type="curve" smooth="yes"/>
      <point x="593" y="252"/>
      <point x="614" y="224"/>
      <point x="614" y="175" type="curve" smooth="yes"/>
      <point x="614" y="106"/>
      <point x="571" y="58"/>
      <point x="499" y="58" type="curve"/>
      <point x="459" y="63" type="line"/>
      <point x="398" y="84"/>
      <point x="359" y="152"/>
      <point x="359" y="235" type="curve" smooth="yes"/>
      <point x="359" y="366"/>
      <point x="462" y="467"/>
      <point x="616" y="467" type="curve" smooth="yes"/>
      <point x="761" y="467"/>
      <point x="837" y="378"/>
      <point x="837" y="251" type="curve" smooth="yes"/>
      <point x="837" y="167"/>
      <point x="803" y="80"/>
      <point x="739" y="5" type="curve"/>
      <point x="741" y="0" type="line"/>
      <point x="1095" y="0" type="line"/>
      <point x="1095" y="473" type="line"/>
      <point x="1527" y="473" type="line"/>
      <point x="1527" y="522" type="line"/>
      <point x="1044" y="522" type="line"/>
      <point x="1044" y="49" type="line"/>
      <point x="876" y="49" type="line"/>
      <point x="915" y="104"/>
      <point x="942" y="178"/>
      <point x="942" y="254" type="curve" smooth="yes"/>
      <point x="942" y="411"/>
      <point x="830" y="534"/>
      <point x="633" y="534" type="curve" smooth="yes"/>
      <point x="427" y="534"/>
      <point x="300" y="398"/>
      <point x="300" y="233" type="curve" smooth="yes"/>
      <point x="300" y="94"/>
      <point x="388" y="-15"/>
    </contour>
    <contour>
      <point x="1338" y="0" type="line"/>
      <point x="1338" y="493" type="line"/>
      <point x="1235" y="493" type="line"/>
      <point x="1235" y="0" type="line"/>
    </contour>
  </outline>
</glyph>
<glyph name="t.Debit" format="2">
  <advance width="1177"/>
  <unicode hex="0BF6"/>
  <outline>
    <contour>
      <point x="389" y="-310" type="curve" smooth="yes"/>
      <point x="693" y="-310"/>
      <point x="811" y="-232"/>
      <point x="811" y="-99" type="curve" smooth="yes"/>
      <point x="811" y="522" type="line"/>
      <point x="708" y="522" type="line"/>
      <point x="708" y="-110" type="line" smooth="yes"/>
      <point x="708" y="-207"/>
      <point x="617" y="-263"/>
      <point x="389" y="-263" type="curve" smooth="yes"/>
      <point x="193" y="-263"/>
      <point x="86" y="-189"/>
      <point x="86" y="-152" type="curve" smooth="yes"/>
      <point x="86" y="-142"/>
      <point x="92" y="-137"/>
      <point x="109" y="-137" type="curve" smooth="yes"/>
      <point x="1072" y="-137" type="line"/>
      <point x="1072" y="522" type="line"/>
      <point x="969" y="522" type="line"/>
      <point x="969" y="-88" type="line"/>
      <point x="82" y="-88" type="line" smooth="yes"/>
      <point x="36" y="-88"/>
      <point x="16" y="-109"/>
      <point x="16" y="-141" type="curve" smooth="yes"/>
      <point x="16" y="-210"/>
      <point x="138" y="-310"/>
    </contour>
    <contour>
      <point x="728" y="0" type="line"/>
      <point x="728" y="49" type="line"/>
      <point x="208" y="49" type="line"/>
      <point x="208" y="522" type="line"/>
      <point x="105" y="522" type="line"/>
      <point x="105" y="0" type="line"/>
    </contour>
  </outline>
</glyph>
<glyph name="t.AsAbove" format="2">
  <advance width="2005"/>
  <unicode hex="0BF8"/>
  <outline>
    <contour>
      <point x="319" y="-15" type="curve" smooth="yes"/>
      <point x="436" y="-15"/>
      <point x="507" y="74"/>
      <point x="507" y="176" type="curve" smooth="yes"/>
      <point x="507" y="266"/>
      <point x="453" y="326"/>
      <point x="371" y="326" type="curve" smooth="yes"/>
      <point x="287" y="326"/>
      <point x="225" y="263"/>
      <point x="225" y="167" type="curve" smooth="yes"/>
      <point x="225" y="137"/>
      <point x="231" y="97"/>
      <point x="245" y="70" type="curve"/>
      <point x="235" y="51" type="line"/>
      <point x="309" y="36" type="line"/>
      <point x="284" y="67"/>
      <point x="274" y="124"/>
      <point x="274" y="156" type="curve" smooth="yes"/>
      <point x="274" y="220"/>
      <point x="309" y="259"/>
      <point x="352" y="259" type="curve" smooth="yes"/>
      <point x="389" y="259"/>
      <point x="409" y="230"/>
      <point x="409" y="180" type="curve" smooth="yes"/>
      <point x="409" y="108"/>
      <point x="366" y="58"/>
      <point x="294" y="58" type="curve"/>
      <point x="250" y="65" type="line"/>
      <point x="181" y="96"/>
      <point x="129" y="178"/>
      <point x="129" y="290" type="curve" smooth="yes"/>
      <point x="129" y="492"/>
      <point x="300" y="605"/>
      <point x="481" y="605" type="curve" smooth="yes"/>
      <point x="710" y="605"/>
      <point x="835" y="423"/>
      <point x="835" y="237" type="curve" smooth="yes"/>
      <point x="835" y="129"/>
      <point x="796" y="50"/>
      <point x="739" y="50" type="curve" smooth="yes"/>
      <point x="695" y="50"/>
      <point x="665" y="98"/>
      <point x="665" y="184" type="curve" smooth="yes"/>
      <point x="665" y="348"/>
      <point x="780" y="469"/>
      <point x="938" y="469" type="curve" smooth="yes"/>
      <point x="1075" y="469"/>
      <point x="1123" y="375"/>
      <point x="1123" y="260" type="curve" smooth="yes"/>
      <point x="1123" y="173"/>
      <point x="1096" y="87"/>
      <point x="1025" y="5" type="curve"/>
      <point x="1027" y="0" type="line"/>
      <point x="1983" y="0" type="line"/>
      <point x="1983" y="49" type="line"/>
      <point x="1162" y="49" type="line"/>
      <point x="1202" y="104"/>
      <point x="1228" y="181"/>
      <point x="1228" y="261" type="curve" smooth="yes"/>
      <point x="1228" y="409"/>
      <point x="1138" y="534"/>
      <point x="953" y="534" type="curve" smooth="yes"/>
      <point x="759" y="534"/>
      <point x="605" y="386"/>
      <point x="605" y="183" type="curve" smooth="yes"/>
      <point x="605" y="69"/>
      <point x="653" y="-15"/>
      <point x="752" y="-15" type="curve" smooth="yes"/>
      <point x="871" y="-15"/>
      <point x="940" y="108"/>
      <point x="940" y="246" type="curve" smooth="yes"/>
      <point x="940" y="486"/>
      <point x="741" y="667"/>
      <point x="491" y="667" type="curve" smooth="yes"/>
      <point x="264" y="667"/>
      <point x="70" y="522"/>
      <point x="70" y="287" type="curve" smooth="yes"/>
      <point x="70" y="109"/>
      <point x="182" y="-15"/>
    </contour>
    <contour>
      <point x="1713" y="-292" type="line"/>
      <point x="1713" y="393" type="line"/>
      <point x="1713" y="496"/>
      <point x="1650" y="539"/>
      <point x="1569" y="539" type="curve" smooth="yes"/>
      <point x="1448" y="539"/>
      <point x="1358" y="442"/>
      <point x="1358" y="299" type="curve" smooth="yes"/>
      <point x="1358" y="186"/>
      <point x="1415" y="93"/>
      <point x="1492" y="51" type="curve"/>
      <point x="1479" y="24" type="line"/>
      <point x="1605" y="42" type="line"/>
      <point x="1502" y="81"/>
      <point x="1416" y="170"/>
      <point x="1416" y="295" type="curve" smooth="yes"/>
      <point x="1416" y="389"/>
      <point x="1466" y="472"/>
      <point x="1548" y="472" type="curve" smooth="yes"/>
      <point x="1584" y="472"/>
      <point x="1610" y="456"/>
      <point x="1610" y="408" type="curve"/>
      <point x="1610" y="-292" type="line"/>
    </contour>
  </outline>
</glyph>
<glyph name="t.Rupee" format="2">
  <advance width="1172"/>
  <unicode hex="0BF9"/>
  <outline>
    <contour>
      <point x="615" y="-339" type="curve" smooth="yes"/>
      <point x="916" y="-339"/>
      <point x="1107" y="-139"/>
      <point x="1107" y="106" type="curve" smooth="yes"/>
      <point x="1107" y="253"/>
      <point x="1038" y="335"/>
      <point x="929" y="335" type="curve" smooth="yes"/>
      <point x="892" y="335"/>
      <point x="851" y="325"/>
      <point x="822" y="290" type="curve"/>
      <point x="797" y="290" type="line"/>
      <point x="820" y="187" type="line"/>
      <point x="820" y="248"/>
      <point x="853" y="279"/>
      <point x="901" y="279" type="curve" smooth="yes"/>
      <point x="977" y="279"/>
      <point x="1002" y="207"/>
      <point x="1002" y="102" type="curve" smooth="yes"/>
      <point x="1002" y="-135"/>
      <point x="862" y="-283"/>
      <point x="613" y="-283" type="curve" smooth="yes"/>
      <point x="326" y="-283"/>
      <point x="138" y="-82"/>
      <point x="138" y="236" type="curve" smooth="yes"/>
      <point x="138" y="598"/>
      <point x="368" y="778"/>
      <point x="578" y="778" type="curve" smooth="yes"/>
      <point x="650" y="778"/>
      <point x="680" y="728"/>
      <point x="680" y="684" type="curve" smooth="yes"/>
      <point x="680" y="648"/>
      <point x="663" y="623"/>
      <point x="636" y="623" type="curve" smooth="yes"/>
      <point x="610" y="623"/>
      <point x="582" y="645"/>
      <point x="582" y="690" type="curve" smooth="yes"/>
      <point x="582" y="771"/>
      <point x="670" y="819"/>
      <point x="733" y="819" type="curve" smooth="yes"/>
      <point x="793" y="819"/>
      <point x="840" y="781"/>
      <point x="840" y="708" type="curve" smooth="yes"/>
      <point x="840" y="665"/>
      <point x="824" y="623"/>
      <point x="791" y="586" type="curve"/>
      <point x="793" y="582" type="line"/>
      <point x="1010" y="582" type="line"/>
      <point x="1010" y="625" type="line"/>
      <point x="896" y="625" type="line"/>
      <point x="912" y="650"/>
      <point x="919" y="678"/>
      <point x="919" y="708" type="curve" smooth="yes"/>
      <point x="919" y="808"/>
      <point x="842" y="864"/>
      <point x="744" y="864" type="curve" smooth="yes"/>
      <point x="692" y="864"/>
      <point x="623" y="844"/>
      <point x="588" y="799" type="curve"/>
      <point x="556" y="773"/>
      <point x="534" y="734"/>
      <point x="534" y="688" type="curve" smooth="yes"/>
      <point x="534" y="618"/>
      <point x="584" y="575"/>
      <point x="646" y="575" type="curve" smooth="yes"/>
      <point x="709" y="575"/>
      <point x="760" y="620"/>
      <point x="760" y="689" type="curve" smooth="yes"/>
      <point x="760" y="776"/>
      <point x="677" y="825"/>
      <point x="577" y="825" type="curve" smooth="yes"/>
      <point x="307" y="825"/>
      <point x="79" y="616"/>
      <point x="79" y="243" type="curve" smooth="yes"/>
      <point x="79" y="-134"/>
      <point x="311" y="-339"/>
    </contour>
    <contour>
      <point x="554" y="0" type="line"/>
      <point x="554" y="473" type="line"/>
      <point x="1010" y="473" type="line"/>
      <point x="1010" y="522" type="line"/>
      <point x="490" y="522" type="line"/>
      <point x="490" y="0" type="line"/>
    </contour>
    <contour>
      <point x="820" y="0" type="line"/>
      <point x="820" y="493" type="line"/>
      <point x="717" y="493" type="line"/>
      <point x="717" y="0" type="line"/>
    </contour>
  </outline>
  <guideline angle="0" x="0" y="0"/>
</glyph>
<glyph name="t.Number" format="2">
  <advance width="1013"/>
  <unicode hex="0BFA"/>
  <outline>
    <contour>
      <point x="123" y="-252" type="curve" smooth="yes"/>
      <point x="151" y="-252"/>
      <point x="169" y="-233"/>
      <point x="169" y="-189" type="curve" smooth="yes"/>
      <point x="169" y="-149"/>
      <point x="179" y="-132"/>
      <point x="223" y="-132" type="curve" smooth="yes"/>
      <point x="389" y="-132" type="line" smooth="yes"/>
      <point x="579" y="-132"/>
      <point x="710" y="-43"/>
      <point x="710" y="139" type="curve" smooth="yes"/>
      <point x="710" y="255"/>
      <point x="646" y="335"/>
      <point x="544" y="335" type="curve" smooth="yes"/>
      <point x="497" y="335"/>
      <point x="460" y="318"/>
      <point x="437" y="290" type="curve"/>
      <point x="411" y="290" type="line"/>
      <point x="435" y="187" type="line"/>
      <point x="435" y="249"/>
      <point x="468" y="279"/>
      <point x="516" y="279" type="curve" smooth="yes"/>
      <point x="583" y="279"/>
      <point x="605" y="217"/>
      <point x="605" y="138" type="curve" smooth="yes"/>
      <point x="605" y="-29"/>
      <point x="509" y="-83"/>
      <point x="377" y="-83" type="curve" smooth="yes"/>
      <point x="224" y="-83" type="line" smooth="yes"/>
      <point x="131" y="-83"/>
      <point x="72" y="-120"/>
      <point x="72" y="-190" type="curve" smooth="yes"/>
      <point x="72" y="-222"/>
      <point x="89" y="-252"/>
    </contour>
    <contour>
      <point x="435" y="0" type="line"/>
      <point x="435" y="493" type="line"/>
      <point x="332" y="493" type="line"/>
      <point x="332" y="0" type="line"/>
    </contour>
    <contour>
      <point x="169" y="0" type="line"/>
      <point x="169" y="473" type="line"/>
      <point x="644" y="473" type="line"/>
      <point x="644" y="522" type="line"/>
      <point x="105" y="522" type="line"/>
      <point x="105" y="0" type="line"/>
    </contour>
    <contour>
      <point x="567" y="510" type="line"/>
      <point x="508" y="547"/>
      <point x="485" y="608"/>
      <point x="485" y="657" type="curve" smooth="yes"/>
      <point x="485" y="729"/>
      <point x="537" y="778"/>
      <point x="623" y="778" type="curve" smooth="yes"/>
      <point x="684" y="778"/>
      <point x="726" y="740"/>
      <point x="726" y="684" type="curve" smooth="yes"/>
      <point x="726" y="648"/>
      <point x="709" y="623"/>
      <point x="682" y="623" type="curve" smooth="yes"/>
      <point x="656" y="623"/>
      <point x="628" y="645"/>
      <point x="628" y="690" type="curve" smooth="yes"/>
      <point x="628" y="767"/>
      <point x="710" y="819"/>
      <point x="779" y="819" type="curve" smooth="yes"/>
      <point x="839" y="819"/>
      <point x="886" y="781"/>
      <point x="886" y="708" type="curve" smooth="yes"/>
      <point x="886" y="665"/>
      <point x="870" y="623"/>
      <point x="837" y="586" type="curve"/>
      <point x="839" y="582" type="line"/>
      <point x="1056" y="582" type="line"/>
      <point x="1056" y="625" type="line"/>
      <point x="942" y="625" type="line"/>
      <point x="958" y="650"/>
      <point x="965" y="678"/>
      <point x="965" y="708" type="curve" smooth="yes"/>
      <point x="965" y="808"/>
      <point x="888" y="864"/>
      <point x="790" y="864" type="curve" smooth="yes"/>
      <point x="678" y="864"/>
      <point x="580" y="782"/>
      <point x="580" y="688" type="curve" smooth="yes"/>
      <point x="580" y="618"/>
      <point x="630" y="575"/>
      <point x="692" y="575" type="curve" smooth="yes"/>
      <point x="755" y="575"/>
      <point x="806" y="620"/>
      <point x="806" y="689" type="curve" smooth="yes"/>
      <point x="806" y="776"/>
      <point x="723" y="825"/>
      <point x="623" y="825" type="curve" smooth="yes"/>
      <point x="506" y="825"/>
      <point x="423" y="756"/>
      <point x="423" y="659" type="curve" smooth="yes"/>
      <point x="423" y="607"/>
      <point x="446" y="557"/>
      <point x="483" y="524" type="curve"/>
      <point x="467" y="495" type="line"/>
    </contour>
  </outline>
</glyph>
<glyph name="grBinduBelow" format="2">
  <unicode hex="1133B"/>
  <outline>
    <contour>
      <point x="-360" y="-245" type="curve" smooth="yes"/>
      <point x="-315" y="-245"/>
      <point x="-284" y="-211"/>
      <point x="-284" y="-169" type="curve" smooth="yes"/>
      <point x="-284" y="-127"/>
      <point x="-315" y="-93"/>
      <point x="-360" y="-93" type="curve" smooth="yes"/>
      <point x="-405" y="-93"/>
      <point x="-436" y="-127"/>
      <point x="-436" y="-169" type="curve" smooth="yes"/>
      <point x="-436" y="-211"/>
      <point x="-405" y="-245"/>
    </contour>
  </outline>
</glyph>
<glyph name="t.Ci" format="2">
  <advance width="1001"/>
  <outline>
    <contour>
      <point x="892" y="0" type="line"/>
      <point x="897" y="389"/>
      <point x="898" y="442"/>
      <point x="898" y="471" type="curve" smooth="yes"/>
      <point x="898" y="732"/>
      <point x="723" y="858"/>
      <point x="490" y="858" type="curve" smooth="yes"/>
      <point x="237" y="858"/>
      <point x="77" y="712"/>
      <point x="77" y="522" type="curve" smooth="yes"/>
      <point x="77" y="429"/>
      <point x="117" y="340"/>
      <point x="185" y="292" type="curve"/>
      <point x="176" y="271" type="line"/>
      <point x="241" y="271" type="line"/>
      <point x="241" y="324" type="line"/>
      <point x="220" y="324" type="line"/>
      <point x="164" y="367"/>
      <point x="136" y="445"/>
      <point x="136" y="512" type="curve" smooth="yes"/>
      <point x="136" y="670"/>
      <point x="276" y="775"/>
      <point x="478" y="775" type="curve" smooth="yes"/>
      <point x="693" y="775"/>
      <point x="840" y="656"/>
      <point x="840" y="450" type="curve" smooth="yes"/>
      <point x="840" y="425"/>
      <point x="840" y="371"/>
      <point x="837" y="0" type="curve"/>
    </contour>
    <contour>
      <point x="322" y="-15" type="curve" smooth="yes"/>
      <point x="467" y="-15"/>
      <point x="538" y="30"/>
      <point x="538" y="135" type="curve" smooth="yes"/>
      <point x="538" y="493" type="line"/>
      <point x="435" y="493" type="line"/>
      <point x="435" y="137" type="line" smooth="yes"/>
      <point x="435" y="68"/>
      <point x="400" y="39"/>
      <point x="316" y="39" type="curve" smooth="yes"/>
      <point x="209" y="39"/>
      <point x="124" y="96"/>
      <point x="124" y="181" type="curve" smooth="yes"/>
      <point x="124" y="221"/>
      <point x="141" y="242"/>
      <point x="207" y="242" type="curve" smooth="yes"/>
      <point x="712" y="242" type="line"/>
      <point x="712" y="291" type="line"/>
      <point x="206" y="291" type="line" smooth="yes"/>
      <point x="97" y="291"/>
      <point x="65" y="241"/>
      <point x="65" y="178" type="curve" smooth="yes"/>
      <point x="65" y="64"/>
      <point x="177" y="-15"/>
    </contour>
    <contour>
      <point x="284" y="271" type="line"/>
      <point x="284" y="473" type="line"/>
      <point x="712" y="473" type="line"/>
      <point x="712" y="522" type="line"/>
      <point x="221" y="522" type="line"/>
      <point x="221" y="271" type="line"/>
    </contour>
  </outline>
</glyph>
<glyph name="t.Cu" format="2">
  <advance width="905"/>
  <outline>
    <contour>
      <point x="307" y="-15" type="curve" smooth="yes"/>
      <point x="452" y="-15"/>
      <point x="523" y="30"/>
      <point x="523" y="135" type="curve" smooth="yes"/>
      <point x="523" y="493" type="line"/>
      <point x="420" y="493" type="line"/>
      <point x="420" y="137" type="line" smooth="yes"/>
      <point x="420" y="68"/>
      <point x="385" y="39"/>
      <point x="301" y="39" type="curve" smooth="yes"/>
      <point x="194" y="39"/>
      <point x="109" y="96"/>
      <point x="109" y="181" type="curve" smooth="yes"/>
      <point x="109" y="221"/>
      <point x="126" y="242"/>
      <point x="192" y="242" type="curve" smooth="yes"/>
      <point x="860" y="242" type="line"/>
      <point x="860" y="291" type="line"/>
      <point x="180" y="291" type="line" smooth="yes"/>
      <point x="89" y="291"/>
      <point x="50" y="246"/>
      <point x="50" y="178" type="curve" smooth="yes"/>
      <point x="50" y="64"/>
      <point x="162" y="-15"/>
    </contour>
    <contour>
      <point x="745" y="0" type="line"/>
      <point x="745" y="262" type="line"/>
      <point x="643" y="262" type="line"/>
      <point x="643" y="0" type="line"/>
    </contour>
    <contour>
      <point x="269" y="271" type="line"/>
      <point x="269" y="473" type="line"/>
      <point x="727" y="473" type="line"/>
      <point x="727" y="522" type="line"/>
      <point x="206" y="522" type="line"/>
      <point x="206" y="271" type="line"/>
    </contour>
  </outline>
  <guideline angle="0" x="0" y="0"/>
</glyph>
<glyph name="t.Cuu" format="2">
  <advance width="1199"/>
  <outline>
    <contour>
      <point x="614" y="-339" type="curve" smooth="yes"/>
      <point x="898" y="-339"/>
      <point x="1144" y="-191"/>
      <point x="1144" y="28" type="curve" smooth="yes"/>
      <point x="1144" y="126"/>
      <point x="1088" y="177"/>
      <point x="1017" y="177" type="curve" smooth="yes"/>
      <point x="985" y="177"/>
      <point x="959" y="164"/>
      <point x="943" y="144" type="curve"/>
      <point x="920" y="144" type="line"/>
      <point x="941" y="47" type="line"/>
      <point x="941" y="104"/>
      <point x="967" y="121"/>
      <point x="993" y="121" type="curve" smooth="yes"/>
      <point x="1029" y="121"/>
      <point x="1050" y="94"/>
      <point x="1050" y="27" type="curve" smooth="yes"/>
      <point x="1050" y="-154"/>
      <point x="866" y="-283"/>
      <point x="612" y="-283" type="curve" smooth="yes"/>
      <point x="303" y="-283"/>
      <point x="129" y="-93"/>
      <point x="129" y="143" type="curve" smooth="yes"/>
      <point x="129" y="276"/>
      <point x="184" y="410"/>
      <point x="308" y="497" type="curve"/>
      <point x="269" y="537" type="line"/>
      <point x="151" y="450"/>
      <point x="70" y="317"/>
      <point x="70" y="140" type="curve" smooth="yes"/>
      <point x="70" y="-154"/>
      <point x="295" y="-339"/>
    </contour>
    <contour>
      <point x="520" y="-15" type="curve" smooth="yes"/>
      <point x="665" y="-15"/>
      <point x="736" y="30"/>
      <point x="736" y="135" type="curve" smooth="yes"/>
      <point x="736" y="493" type="line"/>
      <point x="633" y="493" type="line"/>
      <point x="633" y="137" type="line" smooth="yes"/>
      <point x="633" y="68"/>
      <point x="598" y="39"/>
      <point x="514" y="39" type="curve" smooth="yes"/>
      <point x="407" y="39"/>
      <point x="322" y="96"/>
      <point x="322" y="181" type="curve" smooth="yes"/>
      <point x="322" y="221"/>
      <point x="339" y="242"/>
      <point x="405" y="242" type="curve" smooth="yes"/>
      <point x="1073" y="242" type="line"/>
      <point x="1073" y="291" type="line"/>
      <point x="393" y="291" type="line" smooth="yes"/>
      <point x="302" y="291"/>
      <point x="263" y="246"/>
      <point x="263" y="178" type="curve" smooth="yes"/>
      <point x="263" y="64"/>
      <point x="375" y="-15"/>
    </contour>
    <contour>
      <point x="941" y="0" type="line"/>
      <point x="941" y="262" type="line"/>
      <point x="839" y="262" type="line"/>
      <point x="839" y="0" type="line"/>
    </contour>
    <contour>
      <point x="482" y="271" type="line"/>
      <point x="482" y="473" type="line"/>
      <point x="940" y="473" type="line"/>
      <point x="940" y="522" type="line"/>
      <point x="419" y="522" type="line"/>
      <point x="419" y="271" type="line"/>
    </contour>
  </outline>
</glyph>
<glyph name="t.Eight.sups" format="2">
  <advance width="866"/>
  <outline>
    <contour>
      <point x="317" y="268" type="curve" smooth="yes"/>
      <point x="502" y="268"/>
      <point x="591" y="367"/>
      <point x="619" y="433" type="curve" smooth="yes"/>
      <point x="634" y="470"/>
      <point x="644" y="506"/>
      <point x="644" y="547" type="curve" smooth="yes"/>
      <point x="644" y="638"/>
      <point x="590" y="717"/>
      <point x="472" y="717" type="curve" smooth="yes"/>
      <point x="365" y="717"/>
      <point x="299" y="654"/>
      <point x="299" y="565" type="curve" smooth="yes"/>
      <point x="299" y="527"/>
      <point x="311" y="484"/>
      <point x="338" y="455" type="curve"/>
      <point x="327" y="431" type="line"/>
      <point x="404" y="439" type="line"/>
      <point x="367" y="471"/>
      <point x="348" y="516"/>
      <point x="348" y="559" type="curve" smooth="yes"/>
      <point x="348" y="622"/>
      <point x="388" y="669"/>
      <point x="459" y="669" type="curve" smooth="yes"/>
      <point x="528" y="669"/>
      <point x="562" y="623"/>
      <point x="562" y="552" type="curve" smooth="yes"/>
      <point x="562" y="509"/>
      <point x="550" y="471"/>
      <point x="534" y="433" type="curve" smooth="yes"/>
      <point x="507" y="368"/>
      <point x="429" y="307"/>
      <point x="312" y="307" type="curve" smooth="yes"/>
      <point x="183" y="307"/>
      <point x="119" y="376"/>
      <point x="119" y="401" type="curve" smooth="yes"/>
      <point x="119" y="409"/>
      <point x="124" y="412"/>
      <point x="135" y="412" type="curve"/>
      <point x="763" y="412" type="line"/>
      <point x="763" y="453" type="line"/>
      <point x="101" y="453" type="line" smooth="yes"/>
      <point x="73" y="453"/>
      <point x="60" y="442"/>
      <point x="60" y="417" type="curve" smooth="yes"/>
      <point x="60" y="357"/>
      <point x="149" y="268"/>
    </contour>
    <contour>
      <point x="821" y="205" type="line"/>
      <point x="821" y="699" type="line"/>
      <point x="743" y="699" type="line"/>
      <point x="743" y="205" type="line"/>
    </contour>
  </outline>
</glyph>
<glyph name="t.Five.sups" format="2">
  <advance width="794"/>
  <outline>
    <contour>
      <point x="445" y="144" type="curve" smooth="yes"/>
      <point x="635" y="144"/>
      <point x="765" y="268"/>
      <point x="765" y="416" type="curve" smooth="yes"/>
      <point x="765" y="524"/>
      <point x="697" y="565"/>
      <point x="629" y="565" type="curve" smooth="yes"/>
      <point x="581" y="565"/>
      <point x="551" y="545"/>
      <point x="527" y="511" type="curve"/>
      <point x="544" y="455" type="line"/>
      <point x="544" y="493"/>
      <point x="565" y="519"/>
      <point x="606" y="519" type="curve" smooth="yes"/>
      <point x="650" y="519"/>
      <point x="683" y="490"/>
      <point x="683" y="410" type="curve" smooth="yes"/>
      <point x="683" y="275"/>
      <point x="588" y="190"/>
      <point x="441" y="190" type="curve" smooth="yes"/>
      <point x="265" y="190"/>
      <point x="133" y="314"/>
      <point x="133" y="504" type="curve" smooth="yes"/>
      <point x="133" y="683"/>
      <point x="249" y="822"/>
      <point x="458" y="822" type="curve" smooth="yes"/>
      <point x="605" y="822"/>
      <point x="726" y="753"/>
      <point x="746" y="627" type="curve"/>
      <point x="784" y="627" type="line"/>
      <point x="763" y="796"/>
      <point x="638" y="887"/>
      <point x="460" y="887" type="curve" smooth="yes"/>
      <point x="214" y="887"/>
      <point x="85" y="718"/>
      <point x="85" y="511" type="curve" smooth="yes"/>
      <point x="85" y="282"/>
      <point x="244" y="144"/>
    </contour>
    <contour>
      <point x="355" y="314" type="line"/>
      <point x="355" y="658" type="line"/>
      <point x="656" y="658" type="line"/>
      <point x="656" y="699" type="line"/>
      <point x="302" y="699" type="line"/>
      <point x="302" y="314" type="line"/>
    </contour>
    <contour>
      <point x="544" y="314" type="line"/>
      <point x="544" y="678" type="line"/>
      <point x="468" y="678" type="line"/>
      <point x="468" y="314" type="line"/>
    </contour>
  </outline>
</glyph>
<glyph name="t.Four.sups" format="2">
  <advance width="663"/>
  <outline>
    <contour>
      <point x="270" y="300" type="curve" smooth="yes"/>
      <point x="363" y="300"/>
      <point x="421" y="333"/>
      <point x="421" y="411" type="curve" smooth="yes"/>
      <point x="421" y="678" type="line"/>
      <point x="340" y="678" type="line"/>
      <point x="340" y="415" type="line" smooth="yes"/>
      <point x="340" y="365"/>
      <point x="314" y="345"/>
      <point x="258" y="345" type="curve" smooth="yes"/>
      <point x="177" y="345"/>
      <point x="118" y="386"/>
      <point x="118" y="446" type="curve" smooth="yes"/>
      <point x="118" y="475"/>
      <point x="131" y="489"/>
      <point x="178" y="489" type="curve" smooth="yes"/>
      <point x="653" y="489" type="line"/>
      <point x="653" y="699" type="line"/>
      <point x="602" y="699" type="line"/>
      <point x="602" y="531" type="line"/>
      <point x="166" y="531" type="line" smooth="yes"/>
      <point x="99" y="531"/>
      <point x="70" y="492"/>
      <point x="70" y="441" type="curve" smooth="yes"/>
      <point x="70" y="358"/>
      <point x="147" y="300"/>
    </contour>
    <contour>
      <point x="236" y="511" type="line"/>
      <point x="236" y="658" type="line"/>
      <point x="544" y="658" type="line"/>
      <point x="544" y="699" type="line"/>
      <point x="185" y="699" type="line"/>
      <point x="185" y="511" type="line"/>
    </contour>
  </outline>
</glyph>
<glyph name="t.Hi" format="2">
  <advance width="1770"/>
  <outline>
    <contour>
      <point x="81" y="-252" type="curve" smooth="yes"/>
      <point x="108" y="-252"/>
      <point x="126" y="-234"/>
      <point x="126" y="-186" type="curve" smooth="yes"/>
      <point x="126" y="-150"/>
      <point x="136" y="-132"/>
      <point x="180" y="-132" type="curve" smooth="yes"/>
      <point x="1129" y="-132" type="line" smooth="yes"/>
      <point x="1340" y="-132"/>
      <point x="1494" y="1"/>
      <point x="1494" y="230" type="curve" smooth="yes"/>
      <point x="1494" y="390"/>
      <point x="1428" y="456"/>
      <point x="1406" y="477" type="curve"/>
      <point x="1312" y="525" type="line" smooth="yes"/>
      <point x="1299" y="532"/>
      <point x="1278" y="534"/>
      <point x="1260" y="534" type="curve" smooth="yes"/>
      <point x="1183" y="534"/>
      <point x="1127" y="499"/>
      <point x="1106" y="450" type="curve"/>
      <point x="1102" y="450" type="line"/>
      <point x="1078" y="507"/>
      <point x="1030" y="534"/>
      <point x="967" y="534" type="curve" smooth="yes"/>
      <point x="892" y="534"/>
      <point x="832" y="495"/>
      <point x="832" y="391" type="curve" smooth="yes"/>
      <point x="832" y="49" type="line"/>
      <point x="646" y="49" type="line"/>
      <point x="685" y="104"/>
      <point x="712" y="178"/>
      <point x="712" y="254" type="curve" smooth="yes"/>
      <point x="712" y="411"/>
      <point x="600" y="534"/>
      <point x="403" y="534" type="curve" smooth="yes"/>
      <point x="197" y="534"/>
      <point x="70" y="398"/>
      <point x="70" y="233" type="curve" smooth="yes"/>
      <point x="70" y="94"/>
      <point x="158" y="-15"/>
      <point x="293" y="-15" type="curve" smooth="yes"/>
      <point x="415" y="-15"/>
      <point x="482" y="74"/>
      <point x="482" y="170" type="curve" smooth="yes"/>
      <point x="482" y="257"/>
      <point x="427" y="319"/>
      <point x="345" y="319" type="curve" smooth="yes"/>
      <point x="261" y="319"/>
      <point x="201" y="257"/>
      <point x="201" y="162" type="curve" smooth="yes"/>
      <point x="201" y="129"/>
      <point x="209" y="96"/>
      <point x="223" y="68" type="curve"/>
      <point x="202" y="47" type="line"/>
      <point x="280" y="41" type="line"/>
      <point x="263" y="68"/>
      <point x="250" y="116"/>
      <point x="250" y="152" type="curve" smooth="yes"/>
      <point x="250" y="216"/>
      <point x="284" y="252"/>
      <point x="326" y="252" type="curve" smooth="yes"/>
      <point x="363" y="252"/>
      <point x="384" y="224"/>
      <point x="384" y="175" type="curve" smooth="yes"/>
      <point x="384" y="106"/>
      <point x="341" y="58"/>
      <point x="269" y="58" type="curve"/>
      <point x="229" y="63" type="line"/>
      <point x="168" y="84"/>
      <point x="129" y="152"/>
      <point x="129" y="235" type="curve" smooth="yes"/>
      <point x="129" y="366"/>
      <point x="232" y="467"/>
      <point x="386" y="467" type="curve" smooth="yes"/>
      <point x="531" y="467"/>
      <point x="607" y="378"/>
      <point x="607" y="251" type="curve" smooth="yes"/>
      <point x="607" y="167"/>
      <point x="573" y="80"/>
      <point x="509" y="5" type="curve"/>
      <point x="511" y="0" type="line"/>
      <point x="894" y="0" type="line"/>
      <point x="894" y="394" type="line" smooth="yes"/>
      <point x="894" y="458"/>
      <point x="923" y="484"/>
      <point x="964" y="484" type="curve" smooth="yes"/>
      <point x="1019" y="484"/>
      <point x="1041" y="435"/>
      <point x="1041" y="371" type="curve" smooth="yes"/>
      <point x="1041" y="0" type="line"/>
      <point x="1144" y="0" type="line"/>
      <point x="1144" y="369" type="line" smooth="yes"/>
      <point x="1144" y="437"/>
      <point x="1187" y="484"/>
      <point x="1251" y="484" type="curve" smooth="yes"/>
      <point x="1329" y="484"/>
      <point x="1389" y="415"/>
      <point x="1389" y="239" type="curve" smooth="yes"/>
      <point x="1389" y="37"/>
      <point x="1302" y="-83"/>
      <point x="1114" y="-83" type="curve" smooth="yes"/>
      <point x="181" y="-83" type="line" smooth="yes"/>
      <point x="88" y="-83"/>
      <point x="29" y="-121"/>
      <point x="29" y="-188" type="curve" smooth="yes"/>
      <point x="29" y="-223"/>
      <point x="45" y="-252"/>
    </contour>
    <contour>
      <point x="1662" y="0" type="line"/>
      <point x="1666" y="367"/>
      <point x="1668" y="476"/>
      <point x="1668" y="595" type="curve" smooth="yes"/>
      <point x="1668" y="756"/>
      <point x="1583" y="858"/>
      <point x="1448" y="858" type="curve" smooth="yes"/>
      <point x="1326" y="858"/>
      <point x="1244" y="775"/>
      <point x="1244" y="672" type="curve" smooth="yes"/>
      <point x="1244" y="624"/>
      <point x="1263" y="570"/>
      <point x="1301" y="532" type="curve"/>
      <point x="1282" y="514" type="line"/>
      <point x="1406" y="477" type="line"/>
      <point x="1370" y="510"/>
      <point x="1305" y="574"/>
      <point x="1305" y="656" type="curve" smooth="yes"/>
      <point x="1305" y="730"/>
      <point x="1360" y="778"/>
      <point x="1441" y="778" type="curve" smooth="yes"/>
      <point x="1555" y="778"/>
      <point x="1611" y="672"/>
      <point x="1611" y="559" type="curve" smooth="yes"/>
      <point x="1611" y="439"/>
      <point x="1610" y="327"/>
      <point x="1608" y="0" type="curve"/>
    </contour>
  </outline>
</glyph>
<glyph name="t.Hii" format="2">
  <advance width="1569"/>
  <outline>
    <contour>
      <point x="81" y="-252" type="curve" smooth="yes"/>
      <point x="108" y="-252"/>
      <point x="126" y="-234"/>
      <point x="126" y="-186" type="curve" smooth="yes"/>
      <point x="126" y="-150"/>
      <point x="136" y="-132"/>
      <point x="180" y="-132" type="curve" smooth="yes"/>
      <point x="1129" y="-132" type="line" smooth="yes"/>
      <point x="1340" y="-132"/>
      <point x="1494" y="1"/>
      <point x="1494" y="230" type="curve" smooth="yes"/>
      <point x="1494" y="447"/>
      <point x="1379" y="502"/>
      <point x="1341" y="519" type="curve" smooth="yes"/>
      <point x="1328" y="525"/>
      <point x="1278" y="534"/>
      <point x="1266" y="534" type="curve" smooth="yes"/>
      <point x="1186" y="534"/>
      <point x="1128" y="502"/>
      <point x="1106" y="450" type="curve"/>
      <point x="1102" y="450" type="line"/>
      <point x="1078" y="507"/>
      <point x="1030" y="534"/>
      <point x="967" y="534" type="curve" smooth="yes"/>
      <point x="892" y="534"/>
      <point x="832" y="495"/>
      <point x="832" y="391" type="curve" smooth="yes"/>
      <point x="832" y="49" type="line"/>
      <point x="646" y="49" type="line"/>
      <point x="685" y="104"/>
      <point x="712" y="178"/>
      <point x="712" y="254" type="curve" smooth="yes"/>
      <point x="712" y="411"/>
      <point x="600" y="534"/>
      <point x="403" y="534" type="curve" smooth="yes"/>
      <point x="197" y="534"/>
      <point x="70" y="398"/>
      <point x="70" y="233" type="curve" smooth="yes"/>
      <point x="70" y="94"/>
      <point x="158" y="-15"/>
      <point x="293" y="-15" type="curve" smooth="yes"/>
      <point x="415" y="-15"/>
      <point x="482" y="74"/>
      <point x="482" y="170" type="curve" smooth="yes"/>
      <point x="482" y="257"/>
      <point x="427" y="319"/>
      <point x="345" y="319" type="curve" smooth="yes"/>
      <point x="261" y="319"/>
      <point x="201" y="257"/>
      <point x="201" y="162" type="curve" smooth="yes"/>
      <point x="201" y="129"/>
      <point x="209" y="96"/>
      <point x="223" y="68" type="curve"/>
      <point x="202" y="47" type="line"/>
      <point x="280" y="41" type="line"/>
      <point x="263" y="68"/>
      <point x="250" y="116"/>
      <point x="250" y="152" type="curve" smooth="yes"/>
      <point x="250" y="216"/>
      <point x="284" y="252"/>
      <point x="326" y="252" type="curve" smooth="yes"/>
      <point x="363" y="252"/>
      <point x="384" y="224"/>
      <point x="384" y="175" type="curve" smooth="yes"/>
      <point x="384" y="106"/>
      <point x="341" y="58"/>
      <point x="269" y="58" type="curve"/>
      <point x="229" y="63" type="line"/>
      <point x="168" y="84"/>
      <point x="129" y="152"/>
      <point x="129" y="235" type="curve" smooth="yes"/>
      <point x="129" y="366"/>
      <point x="232" y="467"/>
      <point x="386" y="467" type="curve" smooth="yes"/>
      <point x="531" y="467"/>
      <point x="607" y="378"/>
      <point x="607" y="251" type="curve" smooth="yes"/>
      <point x="607" y="167"/>
      <point x="573" y="80"/>
      <point x="509" y="5" type="curve"/>
      <point x="511" y="0" type="line"/>
      <point x="894" y="0" type="line"/>
      <point x="894" y="394" type="line" smooth="yes"/>
      <point x="894" y="458"/>
      <point x="923" y="484"/>
      <point x="964" y="484" type="curve" smooth="yes"/>
      <point x="1019" y="484"/>
      <point x="1041" y="435"/>
      <point x="1041" y="371" type="curve" smooth="yes"/>
      <point x="1041" y="0" type="line"/>
      <point x="1144" y="0" type="line"/>
      <point x="1144" y="369" type="line" smooth="yes"/>
      <point x="1144" y="437"/>
      <point x="1187" y="484"/>
      <point x="1251" y="484" type="curve" smooth="yes"/>
      <point x="1329" y="484"/>
      <point x="1389" y="415"/>
      <point x="1389" y="239" type="curve" smooth="yes"/>
      <point x="1389" y="37"/>
      <point x="1302" y="-83"/>
      <point x="1114" y="-83" type="curve" smooth="yes"/>
      <point x="181" y="-83" type="line" smooth="yes"/>
      <point x="88" y="-83"/>
      <point x="29" y="-121"/>
      <point x="29" y="-188" type="curve" smooth="yes"/>
      <point x="29" y="-223"/>
      <point x="45" y="-252"/>
    </contour>
    <contour>
      <point x="1341" y="519" type="line"/>
      <point x="1303" y="536"/>
      <point x="1223" y="570"/>
      <point x="1223" y="672" type="curve" smooth="yes"/>
      <point x="1223" y="750"/>
      <point x="1283" y="803"/>
      <point x="1370" y="803" type="curve"/>
      <point x="1408" y="797" type="line"/>
      <point x="1471" y="790"/>
      <point x="1492" y="738"/>
      <point x="1492" y="699" type="curve" smooth="yes"/>
      <point x="1492" y="653"/>
      <point x="1464" y="631"/>
      <point x="1433" y="631" type="curve" smooth="yes"/>
      <point x="1400" y="631"/>
      <point x="1373" y="657"/>
      <point x="1373" y="699" type="curve" smooth="yes"/>
      <point x="1373" y="732"/>
      <point x="1391" y="782"/>
      <point x="1445" y="806" type="curve"/>
      <point x="1358" y="825" type="line"/>
      <point x="1370" y="801" type="line"/>
      <point x="1332" y="771"/>
      <point x="1318" y="733"/>
      <point x="1318" y="695" type="curve" smooth="yes"/>
      <point x="1318" y="625"/>
      <point x="1366" y="573"/>
      <point x="1443" y="573" type="curve" smooth="yes"/>
      <point x="1526" y="573"/>
      <point x="1571" y="633"/>
      <point x="1571" y="701" type="curve" smooth="yes"/>
      <point x="1571" y="792"/>
      <point x="1491" y="858"/>
      <point x="1372" y="858" type="curve" smooth="yes"/>
      <point x="1238" y="858"/>
      <point x="1161" y="776"/>
      <point x="1161" y="676" type="curve" smooth="yes"/>
      <point x="1161" y="620"/>
      <point x="1186" y="571"/>
      <point x="1234" y="535" type="curve"/>
      <point x="1234" y="512" type="line"/>
    </contour>
  </outline>
</glyph>
<glyph name="t.KSsi" format="2">
  <advance width="1897"/>
  <outline>
    <contour>
      <point x="307" y="-15" type="curve" smooth="yes"/>
      <point x="452" y="-15"/>
      <point x="523" y="30"/>
      <point x="523" y="135" type="curve" smooth="yes"/>
      <point x="523" y="493" type="line"/>
      <point x="420" y="493" type="line"/>
      <point x="420" y="137" type="line" smooth="yes"/>
      <point x="420" y="69"/>
      <point x="384" y="39"/>
      <point x="304" y="39" type="curve" smooth="yes"/>
      <point x="192" y="39"/>
      <point x="109" y="96"/>
      <point x="109" y="181" type="curve" smooth="yes"/>
      <point x="109" y="221"/>
      <point x="126" y="242"/>
      <point x="192" y="242" type="curve" smooth="yes"/>
      <point x="682" y="242" type="line" smooth="yes"/>
      <point x="752" y="242"/>
      <point x="786" y="190"/>
      <point x="786" y="129" type="curve" smooth="yes"/>
      <point x="786" y="77"/>
      <point x="761" y="43"/>
      <point x="723" y="43" type="curve" smooth="yes"/>
      <point x="686" y="43"/>
      <point x="661" y="73"/>
      <point x="661" y="122" type="curve" smooth="yes"/>
      <point x="661" y="177"/>
      <point x="693" y="222"/>
      <point x="749" y="251" type="curve"/>
      <point x="641" y="268" type="line"/>
      <point x="657" y="240" type="line"/>
      <point x="624" y="207"/>
      <point x="606" y="163"/>
      <point x="606" y="118" type="curve" smooth="yes"/>
      <point x="606" y="38"/>
      <point x="661" y="-8"/>
      <point x="733" y="-8" type="curve" smooth="yes"/>
      <point x="822" y="-8"/>
      <point x="878" y="59"/>
      <point x="878" y="136" type="curve" smooth="yes"/>
      <point x="878" y="243"/>
      <point x="774" y="291"/>
      <point x="647" y="291" type="curve" smooth="yes"/>
      <point x="180" y="291" type="line" smooth="yes"/>
      <point x="89" y="291"/>
      <point x="50" y="246"/>
      <point x="50" y="178" type="curve" smooth="yes"/>
      <point x="50" y="64"/>
      <point x="162" y="-15"/>
    </contour>
    <contour>
      <point x="269" y="271" type="line"/>
      <point x="269" y="473" type="line"/>
      <point x="697" y="473" type="line"/>
      <point x="697" y="522" type="line"/>
      <point x="206" y="522" type="line"/>
      <point x="206" y="271" type="line"/>
    </contour>
    <contour>
      <point x="1788" y="0" type="line"/>
      <point x="1792" y="335"/>
      <point x="1793" y="434"/>
      <point x="1793" y="543" type="curve" smooth="yes"/>
      <point x="1793" y="736"/>
      <point x="1693" y="858"/>
      <point x="1514" y="858" type="curve" smooth="yes"/>
      <point x="1356" y="858"/>
      <point x="1241" y="761"/>
      <point x="1241" y="641" type="curve" smooth="yes"/>
      <point x="1241" y="604"/>
      <point x="1252" y="563"/>
      <point x="1276" y="532" type="curve"/>
      <point x="1275" y="530" type="line"/>
      <point x="1375" y="401" type="line"/>
      <point x="1375" y="516"/>
      <point x="1302" y="528"/>
      <point x="1302" y="624" type="curve" smooth="yes"/>
      <point x="1302" y="716"/>
      <point x="1384" y="778"/>
      <point x="1503" y="778" type="curve" smooth="yes"/>
      <point x="1665" y="778"/>
      <point x="1736" y="662"/>
      <point x="1736" y="510" type="curve" smooth="yes"/>
      <point x="1736" y="401"/>
      <point x="1736" y="297"/>
      <point x="1734" y="0" type="curve"/>
    </contour>
    <contour>
      <point x="1375" y="-292" type="line"/>
      <point x="1375" y="398" type="line"/>
      <point x="1375" y="489"/>
      <point x="1311" y="533"/>
      <point x="1239" y="533" type="curve" smooth="yes"/>
      <point x="1138" y="533"/>
      <point x="1078" y="471"/>
      <point x="1078" y="374" type="curve" smooth="yes"/>
      <point x="1078" y="269"/>
      <point x="1152" y="196"/>
      <point x="1301" y="196" type="curve" smooth="yes"/>
      <point x="1387" y="196"/>
      <point x="1449" y="218"/>
      <point x="1503" y="252" type="curve"/>
      <point x="1503" y="49" type="line"/>
      <point x="1042" y="49" type="line"/>
      <point x="1060" y="76"/>
      <point x="1069" y="109"/>
      <point x="1069" y="143" type="curve" smooth="yes"/>
      <point x="1069" y="254"/>
      <point x="972" y="320"/>
      <point x="851" y="320" type="curve" smooth="yes"/>
      <point x="792" y="320"/>
      <point x="742" y="304"/>
      <point x="702" y="279" type="curve"/>
      <point x="784" y="250" type="line"/>
      <point x="792" y="266" type="line"/>
      <point x="811" y="270"/>
      <point x="833" y="272"/>
      <point x="847" y="272" type="curve" smooth="yes"/>
      <point x="920" y="272"/>
      <point x="977" y="224"/>
      <point x="977" y="138" type="curve" smooth="yes"/>
      <point x="977" y="91"/>
      <point x="960" y="46"/>
      <point x="923" y="5" type="curve"/>
      <point x="925" y="0" type="line"/>
      <point x="1606" y="0" type="line"/>
      <point x="1606" y="437" type="line"/>
      <point x="1601" y="438" type="line"/>
      <point x="1516" y="305"/>
      <point x="1414" y="249"/>
      <point x="1297" y="249" type="curve" smooth="yes"/>
      <point x="1193" y="249"/>
      <point x="1143" y="295"/>
      <point x="1143" y="377" type="curve" smooth="yes"/>
      <point x="1143" y="440"/>
      <point x="1172" y="473"/>
      <point x="1216" y="473" type="curve" smooth="yes"/>
      <point x="1249" y="473"/>
      <point x="1272" y="454"/>
      <point x="1272" y="397" type="curve" smooth="yes"/>
      <point x="1272" y="-292" type="line"/>
    </contour>
  </outline>
</glyph>
